M48
;Layer_Color=9474304
;FILE_FORMAT=2:5
INCH,LZ
;TYPE=PLATED
T1F00S00C0.00394
T2F00S00C0.01575
T3F00S00C0.03150
T4F00S00C0.03543
T5F00S00C0.03600
T6F00S00C0.03900
T7F00S00C0.04016
T8F00S00C0.04724
T9F00S00C0.11810
%
T01
X0365633Y0203539
X0367601
Y0205507
X0365633
Y0207476
X0367601
Y0209444
X0365633
X036957
X0371538
Y0207476
X036957
Y0205507
X0371538
Y0203539
X036957
X037007Y0254377
X0372038
Y0256345
X037007
Y0258314
X0372038
Y0260282
X037007
X0368101
Y0258314
X0366133
Y0260282
Y0256345
X0368101
Y0254377
X0366133
T02
X0353Y022
X03475Y02665
X03739Y02667
X04069Y02286
X04643Y02428
X0452Y03036
X03898Y03172
T03
X04857Y02421
Y02521
Y02621
X0391Y0359
X0381
X0371
T04
X0495Y01605
X0494712Y0199753
X0444712
X0445Y01605
T05
X04805Y02884
Y02985
Y03083
Y03184
T06
X03974Y0222923
Y0233924
T07
X03485Y0336
X03585
X03685
X03785
X03885
X03985
X04085
X04185
X04285
X04385
X04485
X04585
X04685
X04785
X04885
X04985
T08
X03655Y01195
X03855
X041325
X043325
X0461
X0481
T09
X0346Y01205
X0499801
X0346Y0367
X0499801
M30
