G04*
G04 #@! TF.GenerationSoftware,Altium Limited,Altium Designer,21.9.2 (33)*
G04*
G04 Layer_Physical_Order=1*
G04 Layer_Color=255*
%FSTAX25Y25*%
%MOIN*%
G70*
G04*
G04 #@! TF.SameCoordinates,0F4E3B0E-42B1-4E8D-80DC-DAFE1E1038FA*
G04*
G04*
G04 #@! TF.FilePolarity,Positive*
G04*
G01*
G75*
%ADD14C,0.01000*%
%ADD20O,0.01181X0.05709*%
%ADD21O,0.05709X0.01181*%
%ADD22R,0.12795X0.08465*%
%ADD23R,0.03937X0.08465*%
%ADD24R,0.05000X0.05500*%
%ADD25R,0.03543X0.05118*%
%ADD26R,0.05500X0.05000*%
G04:AMPARAMS|DCode=27|XSize=77.56mil|YSize=23.62mil|CornerRadius=2.95mil|HoleSize=0mil|Usage=FLASHONLY|Rotation=180.000|XOffset=0mil|YOffset=0mil|HoleType=Round|Shape=RoundedRectangle|*
%AMROUNDEDRECTD27*
21,1,0.07756,0.01772,0,0,180.0*
21,1,0.07165,0.02362,0,0,180.0*
1,1,0.00591,-0.03583,0.00886*
1,1,0.00591,0.03583,0.00886*
1,1,0.00591,0.03583,-0.00886*
1,1,0.00591,-0.03583,-0.00886*
%
%ADD27ROUNDEDRECTD27*%
%ADD28R,0.06102X0.03740*%
G04:AMPARAMS|DCode=29|XSize=77.56mil|YSize=23.62mil|CornerRadius=2.95mil|HoleSize=0mil|Usage=FLASHONLY|Rotation=90.000|XOffset=0mil|YOffset=0mil|HoleType=Round|Shape=RoundedRectangle|*
%AMROUNDEDRECTD29*
21,1,0.07756,0.01772,0,0,90.0*
21,1,0.07165,0.02362,0,0,90.0*
1,1,0.00591,0.00886,0.03583*
1,1,0.00591,0.00886,-0.03583*
1,1,0.00591,-0.00886,-0.03583*
1,1,0.00591,-0.00886,0.03583*
%
%ADD29ROUNDEDRECTD29*%
%ADD30R,0.05906X0.07874*%
%ADD31R,0.12638X0.06102*%
%ADD32R,0.04724X0.04331*%
%ADD33R,0.06102X0.08268*%
%ADD34R,0.05118X0.03543*%
%ADD63C,0.02500*%
%ADD64C,0.06000*%
%ADD65C,0.05000*%
%ADD66O,0.07500X0.06500*%
%ADD67C,0.13800*%
%ADD68C,0.06299*%
%ADD69R,0.06299X0.06299*%
%ADD70C,0.00787*%
%ADD71C,0.08000*%
%ADD72O,0.06299X0.07874*%
%ADD73R,0.06299X0.07874*%
%ADD74O,0.07874X0.06299*%
%ADD75R,0.07874X0.06299*%
%ADD76R,0.07874X0.09843*%
%ADD77C,0.05984*%
%ADD78R,0.05984X0.05984*%
%ADD79C,0.03150*%
G36*
X0506961Y0371404D02*
X0506461Y0371252D01*
X0505937Y0372036D01*
X0504837Y0373136D01*
X0503543Y0374001D01*
X0502105Y0374596D01*
X0500579Y03749D01*
X0499023D01*
X0497497Y0374596D01*
X0496059Y0374001D01*
X0494765Y0373136D01*
X0493665Y0372036D01*
X04928Y0370742D01*
X0492205Y0369304D01*
X0491901Y0367778D01*
Y0366222D01*
X0492205Y0364696D01*
X04928Y0363258D01*
X0493665Y0361964D01*
X0494765Y0360864D01*
X0496059Y0359999D01*
X0497497Y0359404D01*
X0499023Y03591D01*
X0500579D01*
X0502105Y0359404D01*
X0503543Y0359999D01*
X0504837Y0360864D01*
X0505937Y0361964D01*
X0506461Y0362748D01*
X0506961Y0362596D01*
Y0217922D01*
X0496242D01*
Y02236D01*
Y0227688D01*
X0496229Y022775D01*
Y02438D01*
X0496113Y0244385D01*
X0495781Y0244881D01*
X0492381Y0248281D01*
X0491885Y0248613D01*
X04913Y0248729D01*
X0489659D01*
X0489515Y0249229D01*
X0490112Y0250007D01*
X049053Y0251017D01*
X0490673Y02521D01*
X049053Y0253183D01*
X0490112Y0254193D01*
X0489447Y025506D01*
X048858Y0255725D01*
X0487571Y0256143D01*
X0486487Y0256285D01*
X0484913D01*
X0483829Y0256143D01*
X048282Y0255725D01*
X0481953Y025506D01*
X0481288Y0254193D01*
X0481055Y025363D01*
X0481049Y0253629D01*
X044166D01*
Y0255659D01*
X0436117D01*
Y0248541D01*
X044166D01*
Y0250571D01*
X0481049D01*
X0481055Y025057D01*
X0481288Y0250007D01*
X0481885Y0249229D01*
X0481741Y0248729D01*
X0478D01*
X0477415Y0248613D01*
X0476919Y0248281D01*
X0464015Y0235378D01*
X0461251D01*
Y0237349D01*
X0453751D01*
Y0235378D01*
X045305D01*
Y0237349D01*
X044555D01*
Y0236466D01*
X0445088Y0236275D01*
X0441357Y0240006D01*
X0440861Y0240337D01*
X0440276Y0240454D01*
X0439214D01*
X043902Y0240744D01*
X0438591Y024103D01*
X0438086Y0241131D01*
X0430953D01*
X0430921Y0241185D01*
Y0241231D01*
X0431398Y0241718D01*
X0434003D01*
Y0243924D01*
Y0246131D01*
X0430921D01*
X04307Y0246312D01*
Y0247064D01*
X0410192D01*
Y0245017D01*
X0410151Y024481D01*
Y0243038D01*
X0410192Y0242832D01*
Y0240454D01*
X0408307D01*
Y024751D01*
X0407065D01*
Y0248295D01*
X040901D01*
Y0250571D01*
X04116D01*
Y024835D01*
X04186D01*
Y0255671D01*
X04206D01*
Y024835D01*
X04276D01*
Y0250571D01*
X0428637D01*
Y0248541D01*
X043418D01*
Y0255659D01*
X0428637D01*
Y0253629D01*
X04276D01*
Y025585D01*
X042492D01*
X0424713Y025635D01*
X0427629Y0259266D01*
X042796Y0259762D01*
X0428077Y0260347D01*
Y0262108D01*
X0428516Y0262481D01*
X0428752Y0262528D01*
X0430248D01*
X0430484Y0262481D01*
X043072Y0262528D01*
X0432217D01*
X0432453Y0262481D01*
X0432689Y0262528D01*
X0434185D01*
X0434421Y0262481D01*
X0434657Y0262528D01*
X0436154D01*
X043639Y0262481D01*
X0436626Y0262528D01*
X0438122D01*
X0438358Y0262481D01*
X0438594Y0262528D01*
X0440091D01*
X0440327Y0262481D01*
X0440563Y0262528D01*
X0449972D01*
Y0264837D01*
X0451768D01*
Y026361D01*
X0458887D01*
Y0264837D01*
X0459856D01*
Y0263638D01*
X0466974D01*
Y026488D01*
X047071D01*
X0471295Y0264997D01*
X0471791Y0265328D01*
X0481581Y0275119D01*
X0481913Y0275615D01*
X0482029Y02762D01*
Y0284249D01*
X0482109Y0284259D01*
X0483143Y0284688D01*
X0484031Y0285369D01*
X0484712Y0286257D01*
X0485141Y0287291D01*
X0485287Y02884D01*
X0485141Y028951D01*
X0484712Y0290543D01*
X0484031Y0291431D01*
X0483143Y0292112D01*
X0482109Y0292541D01*
X0481Y0292687D01*
X048D01*
X0478891Y0292541D01*
X0477857Y0292112D01*
X0476969Y0291431D01*
X0476288Y0290543D01*
X0475929Y0289679D01*
X0475429Y0289778D01*
Y0291266D01*
X0478584Y0294421D01*
X0478628Y0294459D01*
X0478636Y0294465D01*
X0478891Y0294359D01*
X048Y0294213D01*
X0481D01*
X0482109Y0294359D01*
X0483143Y0294788D01*
X0484031Y0295469D01*
X0484712Y0296357D01*
X0485141Y0297391D01*
X0485287Y02985D01*
X0485141Y0299609D01*
X0484712Y0300643D01*
X0484031Y0301531D01*
X0483143Y0302212D01*
X0482109Y0302641D01*
X0481Y0302787D01*
X048D01*
X0478891Y0302641D01*
X0477857Y0302212D01*
X0476969Y0301531D01*
X0476288Y0300643D01*
X0475859Y0299609D01*
X0475713Y02985D01*
X0475859Y0297391D01*
X047626Y0296423D01*
X0472819Y0292981D01*
X0472487Y0292485D01*
X0472371Y02919D01*
Y0287233D01*
X0469867Y0284729D01*
X0456933D01*
X0450692Y0290971D01*
X0450196Y0291303D01*
X0450013Y0291826D01*
X0450019Y0291858D01*
X0450392Y0292297D01*
X0455076D01*
Y0290341D01*
X0460619D01*
Y0297459D01*
X0459377D01*
Y0300041D01*
X0460619D01*
Y0306771D01*
X0464131D01*
Y03041D01*
X0466902D01*
X046865D01*
Y03046D01*
X046866Y0304505D01*
X0468691Y030442D01*
X0468741Y0304345D01*
X0468812Y030428D01*
X0468903Y0304225D01*
X0469015Y030418D01*
X0469146Y0304145D01*
X0469298Y030412D01*
X046947Y0304105D01*
X0469662Y03041D01*
X0469674D01*
Y0306771D01*
X0476033D01*
X0476288Y0306157D01*
X0476969Y0305269D01*
X0477857Y0304588D01*
X0478891Y0304159D01*
X048Y0304013D01*
X0481D01*
X0482109Y0304159D01*
X0483143Y0304588D01*
X0484031Y0305269D01*
X0484712Y0306157D01*
X0485141Y030719D01*
X0485287Y03083D01*
X0485141Y0309409D01*
X0484712Y0310443D01*
X0484031Y0311331D01*
X0483143Y0312012D01*
X0482109Y0312441D01*
X0481Y0312587D01*
X048D01*
X0478891Y0312441D01*
X0477857Y0312012D01*
X0476969Y0311331D01*
X0476288Y0310443D01*
X0476033Y0309829D01*
X0446202D01*
X0445935Y0310329D01*
X0445963Y0310371D01*
X0463D01*
X0463585Y0310487D01*
X0464081Y0310819D01*
X0479581Y0326319D01*
X0479913Y0326815D01*
X0480029Y03274D01*
Y0332277D01*
X0480041Y033228D01*
X0480951Y0332805D01*
X0481695Y0333549D01*
X048222Y0334459D01*
X0482492Y0335474D01*
Y0336526D01*
X048222Y0337541D01*
X0481695Y0338451D01*
X0480951Y0339194D01*
X0480041Y033972D01*
X0479026Y0339992D01*
X0477974D01*
X0476959Y033972D01*
X0476049Y0339194D01*
X0475306Y0338451D01*
X047478Y0337541D01*
X0474508Y0336526D01*
Y0335474D01*
X047478Y0334459D01*
X0475306Y0333549D01*
X0476049Y0332805D01*
X0476959Y033228D01*
X0476971Y0332277D01*
Y0328033D01*
X0462366Y0313429D01*
X0460946D01*
X0460754Y0313891D01*
X0469581Y0322719D01*
X0469913Y0323215D01*
X0470029Y03238D01*
Y0332277D01*
X0470041Y033228D01*
X0470951Y0332805D01*
X0471695Y0333549D01*
X047222Y0334459D01*
X0472492Y0335474D01*
Y0336526D01*
X047222Y0337541D01*
X0471695Y0338451D01*
X0470951Y0339194D01*
X0470041Y033972D01*
X0469026Y0339992D01*
X0467974D01*
X0466959Y033972D01*
X0466049Y0339194D01*
X0465306Y0338451D01*
X046478Y0337541D01*
X0464508Y0336526D01*
Y0335474D01*
X046478Y0334459D01*
X0465306Y0333549D01*
X0466049Y0332805D01*
X0466959Y033228D01*
X0466971Y0332277D01*
Y0324433D01*
X0458266Y0315729D01*
X0451365D01*
X0451173Y0316191D01*
X0459475Y0324493D01*
X0459807Y032499D01*
X0459923Y0325575D01*
Y0332248D01*
X0460041Y033228D01*
X0460951Y0332805D01*
X0461694Y0333549D01*
X046222Y0334459D01*
X0462492Y0335474D01*
Y0336526D01*
X046222Y0337541D01*
X0461694Y0338451D01*
X0460951Y0339194D01*
X0460041Y033972D01*
X0459026Y0339992D01*
X0457974D01*
X0456959Y033972D01*
X0456049Y0339194D01*
X0455305Y0338451D01*
X045478Y0337541D01*
X0454508Y0336526D01*
Y0335474D01*
X045478Y0334459D01*
X0455305Y0333549D01*
X0456049Y0332805D01*
X0456864Y0332335D01*
Y0326208D01*
X0448785Y0318129D01*
X0443946D01*
X0443754Y0318591D01*
X0449581Y0324419D01*
X0449913Y0324915D01*
X0450029Y03255D01*
Y0332277D01*
X0450041Y033228D01*
X0450951Y0332805D01*
X0451694Y0333549D01*
X045222Y0334459D01*
X0452492Y0335474D01*
Y0336526D01*
X045222Y0337541D01*
X0451694Y0338451D01*
X0450951Y0339194D01*
X0450041Y033972D01*
X0449026Y0339992D01*
X0447974D01*
X0446959Y033972D01*
X0446049Y0339194D01*
X0445305Y0338451D01*
X044478Y0337541D01*
X0444508Y0336526D01*
Y0335474D01*
X044478Y0334459D01*
X0445305Y0333549D01*
X0446049Y0332805D01*
X0446959Y033228D01*
X0446971Y0332277D01*
Y0326133D01*
X0430507Y030967D01*
X0430045Y0309861D01*
Y0314482D01*
X0432181Y0316619D01*
X0432513Y0317115D01*
X0432629Y03177D01*
Y031955D01*
X04351D01*
Y03233D01*
Y032705D01*
X043252D01*
X0432513Y0327085D01*
X0432181Y0327581D01*
X0429081Y0330681D01*
X0428585Y0331013D01*
X0428Y0331129D01*
X0405534D01*
X0402214Y0334449D01*
X040222Y0334459D01*
X0402492Y0335474D01*
Y0336526D01*
X040222Y0337541D01*
X0401694Y0338451D01*
X0400951Y0339194D01*
X0400041Y033972D01*
X0399026Y0339992D01*
X0397974D01*
X0396959Y033972D01*
X0396049Y0339194D01*
X0395305Y0338451D01*
X039478Y0337541D01*
X0394508Y0336526D01*
Y0335474D01*
X039478Y0334459D01*
X0395305Y0333549D01*
X0396049Y0332805D01*
X0396959Y033228D01*
X0397974Y0332008D01*
X0399026D01*
X0400041Y033228D01*
X0400051Y0332286D01*
X0402746Y0329591D01*
X0402554Y0329129D01*
X0397843D01*
X0392282Y033469D01*
X0392492Y0335474D01*
Y0336526D01*
X039222Y0337541D01*
X0391694Y0338451D01*
X0390951Y0339194D01*
X0390041Y033972D01*
X0389026Y0339992D01*
X0387974D01*
X0386959Y033972D01*
X0386049Y0339194D01*
X0385306Y0338451D01*
X038478Y0337541D01*
X0384508Y0336526D01*
Y0335474D01*
X038478Y0334459D01*
X0385306Y0333549D01*
X0386049Y0332805D01*
X0386959Y033228D01*
X0387974Y0332008D01*
X0389026D01*
X0390041Y033228D01*
X0390247Y0332399D01*
X0395055Y0327591D01*
X0394864Y0327129D01*
X0389843D01*
X0382282Y033469D01*
X0382492Y0335474D01*
Y0336526D01*
X038222Y0337541D01*
X0381695Y0338451D01*
X0380951Y0339194D01*
X0380041Y033972D01*
X0379026Y0339992D01*
X0377974D01*
X0376959Y033972D01*
X0376049Y0339194D01*
X0375306Y0338451D01*
X037478Y0337541D01*
X0374508Y0336526D01*
Y0335474D01*
X037478Y0334459D01*
X0375306Y0333549D01*
X0376049Y0332805D01*
X0376959Y033228D01*
X0377974Y0332008D01*
X0379026D01*
X0380041Y033228D01*
X0380247Y0332399D01*
X0388128Y0324519D01*
X0388624Y0324187D01*
X0389209Y0324071D01*
X0412266D01*
X0421081Y0315256D01*
Y0303892D01*
X0420642Y0303519D01*
X0420406Y0303472D01*
X0418909D01*
X0418673Y0303519D01*
X0418437Y0303472D01*
X0409027D01*
Y0301642D01*
X0408528Y0301435D01*
X040511Y0304853D01*
X0405157Y0305353D01*
X0406319D01*
Y0312471D01*
X0405076D01*
Y0313441D01*
X0406319D01*
Y0320559D01*
X0400775D01*
Y0318729D01*
X0392131D01*
X0392128Y031873D01*
X0392077Y0318741D01*
X0392026Y0318757D01*
X0391973Y0318778D01*
X0391917Y0318807D01*
X0391858Y0318844D01*
X0391794Y031889D01*
X0391725Y0318947D01*
X039163Y0319038D01*
X0391555Y0319087D01*
X0391381Y031926D01*
X0390794Y0319599D01*
X0390139Y0319775D01*
X0389461D01*
X0388806Y0319599D01*
X0388219Y031926D01*
X0388045Y0319087D01*
X038797Y0319038D01*
X0387875Y0318947D01*
X0387806Y031889D01*
X0387742Y0318844D01*
X0387683Y0318807D01*
X0387627Y0318778D01*
X0387574Y0318757D01*
X0387523Y0318741D01*
X0387472Y031873D01*
X0387469Y0318729D01*
X03817D01*
X0381115Y0318613D01*
X0380619Y0318281D01*
X0370245Y0307908D01*
X0369914Y0307412D01*
X0369797Y0306827D01*
Y0299D01*
X036775D01*
Y0292D01*
X037525D01*
Y0299D01*
X0372856D01*
Y0306193D01*
X0382333Y0315671D01*
X0387469D01*
X0387472Y031567D01*
X0387523Y0315659D01*
X0387574Y0315643D01*
X0387627Y0315622D01*
X0387683Y0315593D01*
X0387742Y0315557D01*
X0387806Y031551D01*
X0387875Y0315453D01*
X038797Y0315362D01*
X0388045Y0315314D01*
X0388219Y031514D01*
X0388806Y0314801D01*
X0389461Y0314625D01*
X0390139D01*
X0390794Y0314801D01*
X0391381Y031514D01*
X0391555Y0315314D01*
X039163Y0315362D01*
X0391725Y0315453D01*
X0391794Y031551D01*
X0391858Y0315557D01*
X0391917Y0315593D01*
X0391973Y0315622D01*
X0392026Y0315643D01*
X0392077Y0315659D01*
X0392128Y031567D01*
X0392131Y0315671D01*
X0400775D01*
Y0313441D01*
X0402017D01*
Y0312471D01*
X0400775D01*
Y0305353D01*
X0402017D01*
Y0304253D01*
X0402134Y0303668D01*
X0402465Y0303172D01*
X0407085Y0298552D01*
X0407581Y0298221D01*
X0408166Y0298105D01*
X0409027D01*
Y0294063D01*
X0408981Y0293827D01*
X0409027Y0293591D01*
Y0292094D01*
X0408981Y0291858D01*
X0409027Y0291622D01*
Y0290126D01*
X0408981Y028989D01*
X0409027Y0289654D01*
Y0288243D01*
X0408867Y0288129D01*
X0408499Y0288064D01*
X0405929Y0290634D01*
Y0295459D01*
X0405813Y0296044D01*
X0405481Y029654D01*
X0401527Y0300495D01*
X0401379Y0300654D01*
X0401282Y0300774D01*
Y0304316D01*
X039876D01*
Y0305286D01*
X0400003D01*
Y0312404D01*
X0394459D01*
Y0305286D01*
X0395702D01*
Y0304316D01*
X039318D01*
Y0298576D01*
X0399082D01*
X0399326Y0298369D01*
X039961Y0298086D01*
X0399419Y0297624D01*
X039318D01*
Y0291883D01*
X0401282D01*
Y029576D01*
X0401744Y0295952D01*
X0402871Y0294825D01*
Y029D01*
X0402987Y0289415D01*
X0403319Y0288919D01*
X0406261Y0285976D01*
X040607Y0285514D01*
X0395788D01*
X0390099Y0291203D01*
Y0291883D01*
X0392621D01*
Y0297624D01*
X0384592D01*
X0384518Y0297624D01*
X0384518Y0297624D01*
X0384133Y0297525D01*
X0384133Y0297525D01*
X0377015D01*
Y0291982D01*
X0384133D01*
X0384133Y0291982D01*
X0384518Y0291883D01*
X0384518Y0291883D01*
X0384592Y0291883D01*
X038704D01*
Y0290569D01*
X0387157Y0289984D01*
X0387488Y0289488D01*
X0392969Y0284007D01*
X0392778Y0283545D01*
X0386918D01*
X0382881Y0287581D01*
X0382385Y0287913D01*
X03818Y0288029D01*
X037525D01*
Y029D01*
X036775D01*
Y0287899D01*
X0362953D01*
Y0291307D01*
X0355047D01*
Y0287899D01*
X0350059D01*
Y0289142D01*
X0342941D01*
Y0283598D01*
X0350059D01*
Y0284841D01*
X0355047D01*
Y0281433D01*
X0362953D01*
Y0284841D01*
X036775D01*
Y0283D01*
X037525D01*
Y0284971D01*
X0381167D01*
X0385203Y0280934D01*
X0385699Y0280603D01*
X0386284Y0280486D01*
X0408608D01*
X0408981Y0280047D01*
X0408608Y0279608D01*
X0407379D01*
X0406793Y0279492D01*
X0406297Y027916D01*
X0403419Y0276281D01*
X0403087Y0275785D01*
X0402971Y02752D01*
Y0270133D01*
X0401511Y0268674D01*
X0401049Y0268866D01*
Y0269173D01*
X0393931D01*
Y0268029D01*
X0392962D01*
Y0269173D01*
X0385844D01*
Y0267931D01*
X037642D01*
Y02734D01*
X0376385Y0273573D01*
X0376359Y0273747D01*
X0376347Y0273767D01*
X0376342Y027379D01*
X0376244Y0273937D01*
X0376153Y0274088D01*
X0371953Y0278688D01*
X0371934Y0278701D01*
X0371921Y0278721D01*
X037181Y0278795D01*
Y0278835D01*
X0371752D01*
X0371633Y0278923D01*
X037161Y0278929D01*
X037159Y0278942D01*
X0371417Y0278976D01*
X0371246Y0279018D01*
X0371223Y0279015D01*
X03712Y027902D01*
X03666D01*
X036621Y0278942D01*
X0365879Y0278721D01*
X0365658Y027839D01*
X036558Y0278D01*
Y0266508D01*
X0364797Y0265623D01*
X036433Y02658D01*
Y0266689D01*
X0362058D01*
Y026363D01*
X0362425D01*
X0362631Y0263174D01*
X0362089Y0262562D01*
X0361641D01*
Y026194D01*
X0361636Y0261932D01*
X0361613Y0261765D01*
X036158Y02616D01*
Y02531D01*
X0361615Y0252928D01*
X0361641Y0252755D01*
X0361641Y0252755D01*
Y0252097D01*
X0362134D01*
X036558Y0248306D01*
Y02297D01*
X0365658Y022931D01*
X0365879Y0228979D01*
X0365968Y022892D01*
X0365816Y022842D01*
X03651D01*
X0365002Y02284D01*
X0364901D01*
X0364818Y0228383D01*
X0364725Y0228345D01*
X036471Y0228342D01*
X0364698Y0228334D01*
X036445Y0228231D01*
X0364169Y022795D01*
X0364066Y0227702D01*
X0364058Y022769D01*
X0364055Y0227675D01*
X0364017Y0227582D01*
X0364Y0227499D01*
Y0227398D01*
X036398Y02273D01*
Y0220193D01*
X0363597Y021991D01*
X0361326D01*
Y0216351D01*
Y0212792D01*
X0362197D01*
X0362388Y021233D01*
X0361782Y0211724D01*
X0361141D01*
Y0202562D01*
X0361125Y0202524D01*
X036112Y0202499D01*
Y0202499D01*
X036112Y0202499D01*
X036112Y0202398D01*
X0361105Y0202325D01*
X036111Y02023D01*
X0361105Y0202275D01*
X036112Y0202202D01*
X036112Y0202101D01*
X036112Y0202101D01*
Y0202101D01*
X0361125Y0202076D01*
X0361141Y0202038D01*
Y0201259D01*
X0361699D01*
X036548Y0197478D01*
Y01794D01*
X03655Y0179302D01*
X03655Y0179202D01*
X036552Y0179101D01*
X0365558Y0179008D01*
X036557Y0178951D01*
Y0178228D01*
X0371507D01*
Y0179236D01*
X037152Y01793D01*
Y0197682D01*
X0371977Y0198017D01*
X0375861Y0200856D01*
X0378144Y0202295D01*
X0378144Y0202295D01*
X0381163Y0204198D01*
X0389958D01*
X039323Y0200926D01*
Y020068D01*
X0393211Y0200316D01*
X0393182Y0200049D01*
X0393177Y0200022D01*
X0392752D01*
Y0199048D01*
X0392744Y019901D01*
X0392752Y0198971D01*
Y0192904D01*
X039323D01*
Y0191934D01*
X0392752D01*
Y0185866D01*
X0392744Y0185828D01*
X0392752Y018579D01*
Y0184816D01*
X0393177D01*
X0393178Y0184809D01*
X039323Y0184054D01*
Y0180299D01*
X0391965D01*
Y0174756D01*
X0399083D01*
Y0175233D01*
X0402394D01*
X0402601Y0175215D01*
X0402891Y0175167D01*
X0403108Y0175109D01*
X0403249Y0175051D01*
X0403294Y0175025D01*
Y0174161D01*
X0403394Y0173656D01*
X040368Y0173228D01*
X0404109Y0172941D01*
X0404614Y0172841D01*
X0406386D01*
X0406891Y0172941D01*
X040732Y0173228D01*
X0407606Y0173656D01*
X0407706Y0174161D01*
Y0177132D01*
X0407794Y0177412D01*
X0408293Y0177336D01*
Y0174161D01*
X0408394Y0173656D01*
X040868Y0173228D01*
X0409109Y0172941D01*
X0409614Y0172841D01*
X0411386D01*
X0411891Y0172941D01*
X041232Y0173228D01*
X0412606Y0173656D01*
X0412707Y0174161D01*
Y0181327D01*
X0412606Y0181832D01*
X041232Y0182261D01*
X0412029Y0182455D01*
Y01947D01*
X0411913Y0195285D01*
X0411581Y0195781D01*
X0398929Y0208434D01*
Y0218157D01*
X039933Y0218264D01*
X040047Y0218922D01*
X0401401Y0219853D01*
X0402059Y0220993D01*
X04024Y0222265D01*
Y0223582D01*
X0402059Y0224853D01*
X0401401Y0225993D01*
X040047Y0226924D01*
X039933Y0227583D01*
X0398058Y0227923D01*
X0396742D01*
X039547Y0227583D01*
X0395111Y0227375D01*
X0390129Y0232357D01*
Y0254467D01*
X0393934Y0258271D01*
X0396954D01*
X0397146Y0257809D01*
X0396128Y025679D01*
X0395796Y0256294D01*
X0395697Y0255795D01*
X039301D01*
Y0248295D01*
X039588D01*
Y024751D01*
X0393709D01*
Y0240391D01*
X0395871D01*
Y0238691D01*
X039547Y0238583D01*
X039433Y0237925D01*
X0393399Y0236994D01*
X0392741Y0235854D01*
X03924Y0234582D01*
Y0233266D01*
X0392741Y0231994D01*
X0393399Y0230854D01*
X039433Y0229923D01*
X039547Y0229265D01*
X0396742Y0228924D01*
X0398058D01*
X039933Y0229265D01*
X040047Y0229923D01*
X0401401Y0230854D01*
X0402059Y0231994D01*
X0402133Y0232271D01*
X0410192D01*
Y0231218D01*
X04074D01*
X0407181Y0231175D01*
X0406561D01*
X0405906Y0230999D01*
X0405319Y023066D01*
X040484Y0230181D01*
X0404501Y0229594D01*
X0404325Y0228939D01*
Y0228261D01*
X0404501Y0227606D01*
X0404656Y0227337D01*
Y0223255D01*
X040464Y022306D01*
X0404594Y022277D01*
X0404537Y022255D01*
X0404482Y0222407D01*
X0404453Y0222357D01*
X04044Y0222351D01*
X0404395Y022235D01*
X04035D01*
Y0221378D01*
X0403492Y022134D01*
X04035Y0221302D01*
Y0221242D01*
X0403499Y0221226D01*
X04035Y0221221D01*
Y021485D01*
X04105D01*
Y022235D01*
X0409466D01*
X0409426Y0222416D01*
X0409368Y0222557D01*
X040931Y0222774D01*
X0409262Y0223063D01*
X0409244Y022327D01*
Y022663D01*
X0410192D01*
Y0225784D01*
X0422071D01*
Y0222934D01*
X0419962Y0220825D01*
X04195Y0221016D01*
Y022235D01*
X04125D01*
Y021485D01*
X0414371D01*
Y0214149D01*
X04124D01*
Y0206649D01*
X04194D01*
Y0214149D01*
X0417429D01*
Y021485D01*
X04195D01*
Y0217071D01*
X04199D01*
X0420485Y0217187D01*
X0420981Y0217519D01*
X0424681Y0221219D01*
X0425013Y0221715D01*
X0425129Y02223D01*
Y0225784D01*
X0425871D01*
Y0221634D01*
X0421891Y0217654D01*
X0421559Y0217158D01*
X0421443Y0216572D01*
Y0213653D01*
X0420201D01*
Y0206535D01*
X0421443D01*
Y020575D01*
X04194D01*
Y019825D01*
X0421371D01*
Y01978D01*
X0421487Y0197215D01*
X0421819Y0196719D01*
X0424519Y0194019D01*
X0425015Y0193687D01*
X04256Y0193571D01*
X04358D01*
X0436385Y0193687D01*
X0436482Y0193752D01*
X0436982Y0193484D01*
Y01667D01*
X0434259D01*
Y0167972D01*
X04307D01*
X0427141D01*
Y01667D01*
X0399083D01*
Y0167972D01*
X0395524D01*
X0391965D01*
Y0165701D01*
X03953D01*
Y0101539D01*
X0338539D01*
Y0116272D01*
X0338655Y0116373D01*
X0339314Y0116286D01*
X0339864Y0115464D01*
X0340964Y0114364D01*
X0342258Y0113499D01*
X0343696Y0112904D01*
X0345222Y01126D01*
X0346778D01*
X0348304Y0112904D01*
X0349742Y0113499D01*
X0351036Y0114364D01*
X0352136Y0115464D01*
X0353001Y0116758D01*
X0353596Y0118196D01*
X03539Y0119722D01*
Y0121278D01*
X0353596Y0122804D01*
X0353001Y0124242D01*
X0352136Y0125536D01*
X0351036Y0126636D01*
X0349742Y0127501D01*
X0348304Y0128096D01*
X0346778Y01284D01*
X0345222D01*
X0343696Y0128096D01*
X0342258Y0127501D01*
X0340964Y0126636D01*
X0339864Y0125536D01*
X0339314Y0124714D01*
X0338655Y0124627D01*
X0338539Y0124728D01*
X0338539Y0362772D01*
X0338655Y0362873D01*
X0339314Y0362786D01*
X0339864Y0361964D01*
X0340964Y0360864D01*
X0342258Y0359999D01*
X0343696Y0359404D01*
X0345222Y03591D01*
X0346778D01*
X0348304Y0359404D01*
X0349742Y0359999D01*
X0351036Y0360864D01*
X0352136Y0361964D01*
X0353001Y0363258D01*
X0353596Y0364696D01*
X03539Y0366222D01*
Y0367778D01*
X0353596Y0369304D01*
X0353001Y0370742D01*
X0352136Y0372036D01*
X0351036Y0373136D01*
X0349742Y0374001D01*
X0348304Y0374596D01*
X0346778Y03749D01*
X0345222D01*
X0343696Y0374596D01*
X0342258Y0374001D01*
X0340964Y0373136D01*
X0339864Y0372036D01*
X0339314Y0371214D01*
X0338655Y0371127D01*
X0338539Y0371228D01*
Y0379461D01*
X0506961D01*
Y0371404D01*
D02*
G37*
G36*
X0427452Y0320552D02*
X0427367Y0320522D01*
X0427292Y0320472D01*
X0427227Y0320402D01*
X0427172Y0320312D01*
X0427127Y0320202D01*
X0427092Y0320072D01*
X0427067Y0319922D01*
X0427052Y0319752D01*
X0427047Y0319562D01*
X0426047D01*
X0426042Y0319752D01*
X0426027Y0319922D01*
X0426002Y0320072D01*
X0425967Y0320202D01*
X0425922Y0320312D01*
X0425867Y0320402D01*
X0425802Y0320472D01*
X0425727Y0320522D01*
X0425642Y0320552D01*
X0425547Y0320562D01*
X0427547D01*
X0427452Y0320552D01*
D02*
G37*
G36*
X0401799Y03162D02*
X0401789Y0316295D01*
X0401759Y031638D01*
X0401708Y0316455D01*
X0401637Y031652D01*
X0401546Y0316575D01*
X0401435Y031662D01*
X0401303Y0316655D01*
X0401152Y031668D01*
X040098Y0316695D01*
X0400787Y03167D01*
Y03177D01*
X040098Y0317705D01*
X0401152Y031772D01*
X0401303Y0317745D01*
X0401435Y031778D01*
X0401546Y0317825D01*
X0401637Y031788D01*
X0401708Y0317945D01*
X0401759Y031802D01*
X0401789Y0318105D01*
X0401799Y03182D01*
Y03162D01*
D02*
G37*
G36*
X0391044Y0318188D02*
X0391166Y0318086D01*
X0391291Y0317995D01*
X0391418Y0317917D01*
X0391548Y0317851D01*
X0391681Y0317796D01*
X0391816Y0317754D01*
X0391954Y0317724D01*
X0392095Y0317706D01*
X0392238Y03177D01*
Y03167D01*
X0392095Y0316694D01*
X0391954Y0316676D01*
X0391816Y0316646D01*
X0391681Y0316604D01*
X0391548Y0316549D01*
X0391418Y0316483D01*
X0391291Y0316405D01*
X0391166Y0316315D01*
X0391044Y0316212D01*
X0390925Y0316098D01*
X03898Y03172D01*
X0390925Y0318302D01*
X0391044Y0318188D01*
D02*
G37*
G36*
X03898Y03172D02*
X0388675Y0316098D01*
X0388556Y0316212D01*
X0388434Y0316315D01*
X0388309Y0316405D01*
X0388182Y0316483D01*
X0388052Y0316549D01*
X0387919Y0316604D01*
X0387784Y0316646D01*
X0387646Y0316676D01*
X0387505Y0316694D01*
X0387362Y03167D01*
Y03177D01*
X0387505Y0317706D01*
X0387646Y0317724D01*
X0387784Y0317754D01*
X0387919Y0317796D01*
X0388052Y0317851D01*
X0388182Y0317917D01*
X0388309Y0317995D01*
X0388434Y0318086D01*
X0388556Y0318188D01*
X0388675Y0318302D01*
X03898Y03172D01*
D02*
G37*
G36*
X0476931Y0307304D02*
X047692Y0307398D01*
X0476886Y0307482D01*
X0476829Y0307557D01*
X0476749Y0307621D01*
X0476647Y0307676D01*
X0476522Y0307721D01*
X0476375Y0307755D01*
X0476204Y030778D01*
X0476011Y0307795D01*
X0475796Y03078D01*
Y03088D01*
X0476011Y0308805D01*
X0476204Y030882D01*
X0476375Y0308845D01*
X0476522Y0308879D01*
X0476647Y0308924D01*
X0476749Y0308979D01*
X0476829Y0309043D01*
X0476886Y0309118D01*
X047692Y0309202D01*
X0476931Y0309296D01*
Y0307304D01*
D02*
G37*
G36*
X0404452Y0306367D02*
X0404367Y0306337D01*
X0404292Y0306286D01*
X0404227Y0306215D01*
X0404172Y0306124D01*
X0404127Y0306013D01*
X0404092Y0305882D01*
X0404067Y030573D01*
X0404052Y0305558D01*
X0404047Y0305365D01*
X0403047D01*
X0403042Y0305558D01*
X0403027Y030573D01*
X0403002Y0305882D01*
X0402967Y0306013D01*
X0402922Y0306124D01*
X0402867Y0306215D01*
X0402802Y0306286D01*
X0402727Y0306337D01*
X0402642Y0306367D01*
X0402547Y0306377D01*
X0404547D01*
X0404452Y0306367D01*
D02*
G37*
G36*
X0440872Y0302123D02*
X0439782D01*
X043979Y0302146D01*
X0439798Y0302188D01*
X0439805Y0302248D01*
X0439819Y030254D01*
X0439827Y0303191D01*
X0440827D01*
X0440872Y0302123D01*
D02*
G37*
G36*
X0436924Y0303139D02*
X0436935Y0302123D01*
X0435845D01*
X043586Y0302156D01*
X0435873Y0302206D01*
X0435885Y0302274D01*
X0435896Y030236D01*
X0435917Y0302722D01*
X0435924Y0303243D01*
X0436924Y0303139D01*
D02*
G37*
G36*
X0434966Y0302123D02*
X0433876D01*
X0433885Y0302146D01*
X0433892Y0302188D01*
X0433899Y0302248D01*
X0433914Y030254D01*
X0433921Y0303191D01*
X0434921D01*
X0434966Y0302123D01*
D02*
G37*
G36*
X0432998D02*
X0431908D01*
X0431916Y0302146D01*
X0431924Y0302188D01*
X0431931Y0302248D01*
X0431946Y030254D01*
X0431953Y0303191D01*
X0432953D01*
X0432998Y0302123D01*
D02*
G37*
G36*
X0431029D02*
X0429939D01*
X0429948Y0302146D01*
X0429955Y0302188D01*
X0429962Y0302248D01*
X0429977Y030254D01*
X0429984Y0303191D01*
X0430984D01*
X0431029Y0302123D01*
D02*
G37*
G36*
X0429061D02*
X0427971D01*
X0427979Y0302146D01*
X0427987Y0302188D01*
X0427994Y0302248D01*
X0428009Y030254D01*
X0428016Y0303191D01*
X0429016D01*
X0429061Y0302123D01*
D02*
G37*
G36*
X0427092D02*
X0426002D01*
X0426011Y0302146D01*
X0426018Y0302188D01*
X0426025Y0302248D01*
X042604Y030254D01*
X0426047Y0303191D01*
X0427047D01*
X0427092Y0302123D01*
D02*
G37*
G36*
X0425124D02*
X0424034D01*
X0424042Y0302146D01*
X042405Y0302188D01*
X0424057Y0302248D01*
X0424072Y030254D01*
X0424079Y0303191D01*
X0425079D01*
X0425124Y0302123D01*
D02*
G37*
G36*
X0423155D02*
X0422065D01*
X0422074Y0302146D01*
X0422081Y0302188D01*
X0422088Y0302248D01*
X0422103Y030254D01*
X042211Y0303191D01*
X042311D01*
X0423155Y0302123D01*
D02*
G37*
G36*
X0421187D02*
X0420097D01*
X0420105Y0302146D01*
X0420113Y0302188D01*
X042012Y0302248D01*
X0420134Y030254D01*
X0420142Y0303191D01*
X0421142D01*
X0421187Y0302123D01*
D02*
G37*
G36*
X0458752Y0301055D02*
X0458668Y0301025D01*
X0458593Y0300974D01*
X0458528Y0300903D01*
X0458472Y0300812D01*
X0458427Y0300701D01*
X0458392Y0300569D01*
X0458367Y0300417D01*
X0458353Y0300245D01*
X0458348Y0300053D01*
X0457347D01*
X0457342Y0300245D01*
X0457328Y0300417D01*
X0457303Y0300569D01*
X0457268Y0300701D01*
X0457223Y0300812D01*
X0457167Y0300903D01*
X0457102Y0300974D01*
X0457027Y0301025D01*
X0456943Y0301055D01*
X0456847Y0301065D01*
X0458848D01*
X0458752Y0301055D01*
D02*
G37*
G36*
X0400203Y0300926D02*
X0400176Y0300835D01*
X0400177Y0300729D01*
X0400206Y0300609D01*
X0400264Y0300475D01*
X040035Y0300327D01*
X0400464Y0300164D01*
X0400607Y0299986D01*
X0400977Y0299588D01*
X040027Y0298881D01*
X0400064Y029908D01*
X0399695Y0299394D01*
X0399532Y0299508D01*
X0399383Y0299594D01*
X0399249Y0299652D01*
X0399129Y0299682D01*
X0399024Y0299683D01*
X0398933Y0299656D01*
X0398856Y02996D01*
X0400258Y0301003D01*
X0400203Y0300926D01*
D02*
G37*
G36*
X0418095Y0298634D02*
X0418085Y0298729D01*
X0418055Y0298814D01*
X0418004Y0298889D01*
X0417933Y0298954D01*
X0417842Y0299009D01*
X0417731Y0299054D01*
X0417599Y0299089D01*
X0417448Y0299114D01*
X0417276Y0299129D01*
X0417083Y0299134D01*
Y0300134D01*
X0417276Y0300139D01*
X0417448Y0300154D01*
X0417599Y0300179D01*
X0417731Y0300214D01*
X0417842Y0300259D01*
X0417933Y0300314D01*
X0418004Y0300379D01*
X0418055Y0300454D01*
X0418085Y0300539D01*
X0418095Y0300634D01*
Y0298634D01*
D02*
G37*
G36*
X0414366Y0299134D02*
X0414176Y0299124D01*
X0414006Y0299094D01*
X0413856Y0299044D01*
X0413726Y0298974D01*
X0413616Y0298884D01*
X0413526Y0298774D01*
X0413456Y0298644D01*
X0413406Y0298494D01*
X0413376Y0298324D01*
X0413366Y0298134D01*
X0412366D01*
X0412356Y0298324D01*
X0412326Y0298494D01*
X0412276Y0298644D01*
X0412206Y0298774D01*
X0412116Y0298884D01*
X0412006Y0298974D01*
X0411876Y0299044D01*
X0411726Y0299094D01*
X0411556Y0299124D01*
X0411366Y0299134D01*
X0412866Y0300134D01*
X0414366Y0299134D01*
D02*
G37*
G36*
X0458353Y0297257D02*
X0458367Y0297087D01*
X0458392Y0296937D01*
X0458427Y0296807D01*
X0458472Y0296697D01*
X0458528Y0296607D01*
X0458593Y0296537D01*
X0458668Y0296487D01*
X0458752Y0296457D01*
X0458848Y0296447D01*
X0456847D01*
X0456943Y0296457D01*
X0457027Y0296487D01*
X0457102Y0296537D01*
X0457167Y0296607D01*
X0457223Y0296697D01*
X0457268Y0296807D01*
X0457303Y0296937D01*
X0457328Y0297087D01*
X0457342Y0297257D01*
X0457347Y0297447D01*
X0458348D01*
X0458353Y0297257D01*
D02*
G37*
G36*
X0478876Y029547D02*
X0478794Y029552D01*
X0478703Y0295549D01*
X0478605Y0295555D01*
X0478498Y0295539D01*
X0478383Y0295501D01*
X047826Y0295441D01*
X0478129Y0295359D01*
X047799Y0295255D01*
X0477842Y0295128D01*
X0477687Y029498D01*
X0476899Y0295606D01*
X0477046Y029576D01*
X0477169Y0295904D01*
X0477268Y0296039D01*
X0477344Y0296164D01*
X0477396Y0296279D01*
X0477424Y0296384D01*
X0477429Y029648D01*
X0477409Y0296566D01*
X0477366Y0296642D01*
X0477299Y0296709D01*
X0478876Y029547D01*
D02*
G37*
G36*
X0413371Y0295224D02*
X0413386Y0295052D01*
X0413411Y02949D01*
X0413446Y0294769D01*
X0413491Y0294658D01*
X0413546Y0294567D01*
X0413611Y0294496D01*
X0413686Y0294445D01*
X0413771Y0294415D01*
X0413866Y0294405D01*
X0411866D01*
X0411961Y0294415D01*
X0412046Y0294445D01*
X0412121Y0294496D01*
X0412186Y0294567D01*
X0412241Y0294658D01*
X0412286Y0294769D01*
X0412321Y02949D01*
X0412346Y0295052D01*
X0412361Y0295224D01*
X0412366Y0295417D01*
X0413366D01*
X0413371Y0295224D01*
D02*
G37*
G36*
X0448646Y0294363D02*
X0448688Y0294356D01*
X0448748Y0294349D01*
X044904Y0294334D01*
X0449691Y0294327D01*
Y0293327D01*
X0448623Y0293282D01*
Y0294372D01*
X0448646Y0294363D01*
D02*
G37*
G36*
X04561Y0292827D02*
X045609Y0292922D01*
X0456059Y0293007D01*
X0456009Y0293082D01*
X0455938Y0293147D01*
X0455847Y0293202D01*
X0455735Y0293247D01*
X0455604Y0293282D01*
X0455452Y0293307D01*
X045528Y0293322D01*
X0455088Y0293327D01*
Y0294327D01*
X045528Y0294332D01*
X0455452Y0294347D01*
X0455604Y0294372D01*
X0455735Y0294407D01*
X0455847Y0294452D01*
X0455938Y0294507D01*
X0456009Y0294572D01*
X0456059Y0294647D01*
X045609Y0294732D01*
X04561Y0294827D01*
Y0292827D01*
D02*
G37*
G36*
X0389475Y0292897D02*
X0389389Y0292867D01*
X0389315Y0292816D01*
X0389249Y0292745D01*
X0389194Y0292654D01*
X0389149Y0292543D01*
X0389114Y0292412D01*
X0389089Y029226D01*
X0389074Y0292088D01*
X038907Y0291896D01*
X038807D01*
X0388065Y0292088D01*
X038805Y029226D01*
X0388024Y0292412D01*
X0387989Y0292543D01*
X0387945Y0292654D01*
X038789Y0292745D01*
X0387825Y0292816D01*
X038775Y0292867D01*
X0387665Y0292897D01*
X0387569Y0292908D01*
X0389569D01*
X0389475Y0292897D01*
D02*
G37*
G36*
X0448646Y0292395D02*
X0448688Y0292387D01*
X0448748Y029238D01*
X044904Y0292366D01*
X0449691Y0292358D01*
Y0291358D01*
X0448623Y0291313D01*
Y0292403D01*
X0448646Y0292395D01*
D02*
G37*
G36*
X0448645Y0290426D02*
X0448684Y0290419D01*
X044874Y0290412D01*
X0448904Y0290401D01*
X044961Y029039D01*
Y028939D01*
X0448623Y0289345D01*
Y0290435D01*
X0448645Y0290426D01*
D02*
G37*
G36*
X0374248Y0287405D02*
X0374278Y028732D01*
X0374328Y0287245D01*
X0374398Y028718D01*
X0374488Y0287125D01*
X0374598Y028708D01*
X0374728Y0287045D01*
X0374878Y028702D01*
X0375048Y0287005D01*
X0375238Y0287D01*
Y0286D01*
X0375048Y0285995D01*
X0374878Y028598D01*
X0374728Y0285955D01*
X0374598Y028592D01*
X0374488Y0285875D01*
X0374398Y028582D01*
X0374328Y0285755D01*
X0374278Y028568D01*
X0374248Y0285595D01*
X0374238Y02855D01*
Y02875D01*
X0374248Y0287405D01*
D02*
G37*
G36*
X0410377Y0285408D02*
X0410354Y0285416D01*
X0410312Y0285424D01*
X0410252Y0285431D01*
X040996Y0285446D01*
X0409309Y0285453D01*
Y0286453D01*
X0410377Y0286498D01*
Y0285408D01*
D02*
G37*
G36*
X0368774Y028537D02*
X0368764Y0285465D01*
X0368734Y028555D01*
X0368683Y0285625D01*
X0368612Y028569D01*
X0368521Y0285745D01*
X036841Y028579D01*
X0368278Y0285825D01*
X0368126Y028585D01*
X0367954Y0285865D01*
X0367762Y028587D01*
Y028687D01*
X0367954Y0286875D01*
X0368126Y028689D01*
X0368278Y0286915D01*
X036841Y028695D01*
X0368521Y0286995D01*
X0368612Y028705D01*
X0368683Y0287115D01*
X0368734Y028719D01*
X0368764Y0287275D01*
X0368774Y028737D01*
Y028537D01*
D02*
G37*
G36*
X0361951Y0287275D02*
X0361981Y028719D01*
X0362031Y0287115D01*
X0362101Y028705D01*
X0362191Y0286995D01*
X0362301Y028695D01*
X0362431Y0286915D01*
X0362581Y028689D01*
X0362751Y0286875D01*
X0362941Y028687D01*
Y028587D01*
X0362751Y0285865D01*
X0362581Y028585D01*
X0362431Y0285825D01*
X0362301Y028579D01*
X0362191Y0285745D01*
X0362101Y028569D01*
X0362031Y0285625D01*
X0361981Y028555D01*
X0361951Y0285465D01*
X0361941Y028537D01*
Y028737D01*
X0361951Y0287275D01*
D02*
G37*
G36*
X0356071Y028537D02*
X0356061Y0285465D01*
X0356031Y028555D01*
X035598Y0285625D01*
X0355909Y028569D01*
X0355818Y0285745D01*
X0355707Y028579D01*
X0355575Y0285825D01*
X0355424Y028585D01*
X0355252Y0285865D01*
X0355059Y028587D01*
Y028687D01*
X0355252Y0286875D01*
X0355424Y028689D01*
X0355575Y0286915D01*
X0355707Y028695D01*
X0355818Y0286995D01*
X0355909Y028705D01*
X035598Y0287115D01*
X0356031Y028719D01*
X0356061Y0287275D01*
X0356071Y028737D01*
Y028537D01*
D02*
G37*
G36*
X0349045Y0287275D02*
X0349076Y028719D01*
X0349126Y0287115D01*
X0349197Y028705D01*
X0349288Y0286995D01*
X0349399Y028695D01*
X0349531Y0286915D01*
X0349683Y028689D01*
X0349855Y0286875D01*
X0350047Y028687D01*
Y028587D01*
X0349855Y0285865D01*
X0349683Y028585D01*
X0349531Y0285825D01*
X0349399Y028579D01*
X0349288Y0285745D01*
X0349197Y028569D01*
X0349126Y0285625D01*
X0349076Y028555D01*
X0349045Y0285465D01*
X0349035Y028537D01*
Y028737D01*
X0349045Y0287275D01*
D02*
G37*
G36*
X0481404Y0285197D02*
X0481319Y0285165D01*
X0481244Y0285112D01*
X048118Y0285038D01*
X0481125Y0284942D01*
X048108Y0284825D01*
X0481045Y0284687D01*
X048102Y0284528D01*
X0481005Y0284348D01*
X0481Y0284146D01*
X048D01*
X0479995Y0284348D01*
X047998Y0284528D01*
X0479955Y0284687D01*
X047992Y0284825D01*
X0479875Y0284942D01*
X047982Y0285038D01*
X0479756Y0285112D01*
X0479681Y0285165D01*
X0479596Y0285197D01*
X0479501Y0285208D01*
X0481499D01*
X0481404Y0285197D01*
D02*
G37*
G36*
X0410377Y0283439D02*
X0410354Y0283448D01*
X0410312Y0283455D01*
X0410252Y0283462D01*
X040996Y0283477D01*
X0409309Y0283484D01*
Y0284484D01*
X0410377Y0284529D01*
Y0283439D01*
D02*
G37*
G36*
Y0281471D02*
X0410354Y0281479D01*
X0410312Y0281487D01*
X0410252Y0281494D01*
X040996Y0281509D01*
X0409309Y0281516D01*
Y0282516D01*
X0410377Y0282561D01*
Y0281471D01*
D02*
G37*
G36*
Y0279502D02*
X0410354Y0279511D01*
X0410312Y0279519D01*
X0410252Y0279525D01*
X040996Y027954D01*
X0409309Y0279547D01*
Y0280547D01*
X0410377Y0280592D01*
Y0279502D01*
D02*
G37*
G36*
Y0277534D02*
X0410354Y0277542D01*
X0410312Y027755D01*
X0410252Y0277557D01*
X040996Y0277572D01*
X0409309Y0277579D01*
Y0278579D01*
X0410377Y0278624D01*
Y0277534D01*
D02*
G37*
G36*
X0400035Y0267306D02*
X0400066Y0267221D01*
X0400116Y0267146D01*
X0400187Y0267081D01*
X0400278Y0267026D01*
X040039Y0266981D01*
X0400521Y0266946D01*
X0400673Y0266921D01*
X0400845Y0266906D01*
X0401037Y0266901D01*
Y0265901D01*
X0400845Y0265896D01*
X0400673Y0265881D01*
X0400521Y0265856D01*
X040039Y0265821D01*
X0400278Y0265776D01*
X0400187Y0265721D01*
X0400116Y0265656D01*
X0400066Y0265581D01*
X0400035Y0265496D01*
X0400025Y0265401D01*
Y0267401D01*
X0400035Y0267306D01*
D02*
G37*
G36*
X0386856Y0265401D02*
X0386846Y0265496D01*
X0386816Y0265581D01*
X0386766Y0265656D01*
X0386696Y0265721D01*
X0386606Y0265776D01*
X0386496Y0265821D01*
X0386366Y0265856D01*
X0386216Y0265881D01*
X0386046Y0265896D01*
X0385856Y0265901D01*
Y0266901D01*
X0386046Y0266906D01*
X0386216Y0266921D01*
X0386366Y0266946D01*
X0386496Y0266981D01*
X0386606Y0267026D01*
X0386696Y0267081D01*
X0386766Y0267146D01*
X0386816Y0267221D01*
X0386846Y0267306D01*
X0386856Y0267401D01*
Y0265401D01*
D02*
G37*
G36*
X0452793Y0265366D02*
X0452782Y0265461D01*
X0452752Y0265546D01*
X0452701Y0265621D01*
X0452631Y0265686D01*
X0452539Y0265741D01*
X0452428Y0265786D01*
X0452297Y0265821D01*
X0452145Y0265846D01*
X0451973Y0265861D01*
X0451781Y0265866D01*
Y0266866D01*
X0451973Y0266871D01*
X0452145Y0266886D01*
X0452297Y0266911D01*
X0452428Y0266946D01*
X0452539Y0266991D01*
X0452631Y0267046D01*
X0452701Y0267111D01*
X0452752Y0267186D01*
X0452782Y0267271D01*
X0452793Y0267366D01*
Y0265366D01*
D02*
G37*
G36*
X0440915Y0267271D02*
X0440945Y0267186D01*
X0440996Y0267111D01*
X0441067Y0267046D01*
X0441158Y0266991D01*
X0441269Y0266946D01*
X04414Y0266911D01*
X0441552Y0266886D01*
X0441724Y0266871D01*
X0441917Y0266866D01*
Y0265866D01*
X0441724Y0265861D01*
X0441552Y0265846D01*
X04414Y0265821D01*
X0441269Y0265786D01*
X0441158Y0265741D01*
X0441067Y0265686D01*
X0440996Y0265621D01*
X0440945Y0265546D01*
X0440915Y0265461D01*
X0440905Y0265366D01*
Y0267366D01*
X0440915Y0267271D01*
D02*
G37*
G36*
X0438895Y0263854D02*
X0438887Y0263812D01*
X043888Y0263752D01*
X0438865Y026346D01*
X0438858Y0262809D01*
X0437858D01*
X0437813Y0263877D01*
X0438903D01*
X0438895Y0263854D01*
D02*
G37*
G36*
X0427084D02*
X0427076Y0263812D01*
X0427069Y0263752D01*
X0427054Y026346D01*
X0427047Y0262809D01*
X0426047D01*
X0426002Y0263877D01*
X0427092D01*
X0427084Y0263854D01*
D02*
G37*
G36*
X0425115D02*
X0425107Y0263812D01*
X0425101Y0263752D01*
X0425086Y026346D01*
X0425079Y0262809D01*
X0424079D01*
X0424034Y0263877D01*
X0425124D01*
X0425115Y0263854D01*
D02*
G37*
G36*
X0397713Y0255533D02*
X0397726Y0255376D01*
X0397747Y0255237D01*
X0397777Y0255116D01*
X0397815Y0255014D01*
X0397862Y0254931D01*
X0397918Y0254866D01*
X0397982Y025482D01*
X0398054Y0254792D01*
X0398135Y0254783D01*
X0396283D01*
X0396364Y0254792D01*
X0396436Y025482D01*
X03965Y0254866D01*
X0396556Y0254931D01*
X0396602Y0255014D01*
X0396641Y0255116D01*
X0396671Y0255237D01*
X0396692Y0255376D01*
X0396705Y0255533D01*
X0396709Y0255709D01*
X0397709D01*
X0397713Y0255533D01*
D02*
G37*
G36*
X0481949Y0251103D02*
X0481937Y0251198D01*
X0481903Y0251282D01*
X0481846Y0251357D01*
X0481766Y0251421D01*
X0481664Y0251476D01*
X0481538Y0251521D01*
X048139Y0251555D01*
X0481219Y025158D01*
X0481026Y0251595D01*
X0480809Y02516D01*
Y02526D01*
X0481026Y0252605D01*
X0481219Y025262D01*
X048139Y0252645D01*
X0481538Y0252679D01*
X0481664Y0252724D01*
X0481766Y0252779D01*
X0481846Y0252843D01*
X0481903Y0252918D01*
X0481937Y0253002D01*
X0481949Y0253097D01*
Y0251103D01*
D02*
G37*
G36*
X0440647Y0253005D02*
X0440677Y025292D01*
X0440728Y0252845D01*
X0440798Y025278D01*
X0440889Y0252725D01*
X0441001Y025268D01*
X0441132Y0252645D01*
X0441284Y025262D01*
X0441456Y0252605D01*
X0441648Y02526D01*
Y02516D01*
X0441456Y0251595D01*
X0441284Y025158D01*
X0441132Y0251555D01*
X0441001Y025152D01*
X0440889Y0251475D01*
X0440798Y025142D01*
X0440728Y0251355D01*
X0440677Y025128D01*
X0440647Y0251195D01*
X0440636Y02511D01*
Y02531D01*
X0440647Y0253005D01*
D02*
G37*
G36*
X0429661Y02511D02*
X0429651Y0251195D01*
X042962Y025128D01*
X042957Y0251355D01*
X0429499Y025142D01*
X0429408Y0251475D01*
X0429296Y025152D01*
X0429165Y0251555D01*
X0429013Y025158D01*
X0428841Y0251595D01*
X0428649Y02516D01*
Y02526D01*
X0428841Y0252605D01*
X0429013Y025262D01*
X0429165Y0252645D01*
X0429296Y025268D01*
X0429408Y0252725D01*
X0429499Y025278D01*
X042957Y0252845D01*
X042962Y025292D01*
X0429651Y0253005D01*
X0429661Y02531D01*
Y02511D01*
D02*
G37*
G36*
X0426586Y0253005D02*
X0426616Y025292D01*
X0426667Y0252845D01*
X0426738Y025278D01*
X0426829Y0252725D01*
X042694Y025268D01*
X0427072Y0252645D01*
X0427224Y025262D01*
X0427396Y0252605D01*
X0427588Y02526D01*
Y02516D01*
X0427396Y0251595D01*
X0427224Y025158D01*
X0427072Y0251555D01*
X042694Y025152D01*
X0426829Y0251475D01*
X0426738Y025142D01*
X0426667Y0251355D01*
X0426616Y025128D01*
X0426586Y0251195D01*
X0426576Y02511D01*
Y02531D01*
X0426586Y0253005D01*
D02*
G37*
G36*
X0412624Y02511D02*
X0412614Y0251195D01*
X0412583Y025128D01*
X0412533Y0251355D01*
X0412462Y025142D01*
X0412371Y0251475D01*
X041226Y025152D01*
X0412128Y0251555D01*
X0411976Y025158D01*
X0411804Y0251595D01*
X0411612Y02516D01*
Y02526D01*
X0411804Y0252605D01*
X0411976Y025262D01*
X0412128Y0252645D01*
X041226Y025268D01*
X0412371Y0252725D01*
X0412462Y025278D01*
X0412533Y0252845D01*
X0412583Y025292D01*
X0412614Y0253005D01*
X0412624Y02531D01*
Y02511D01*
D02*
G37*
G36*
X0407996Y0253005D02*
X0408026Y025292D01*
X0408077Y0252845D01*
X0408148Y025278D01*
X0408239Y0252725D01*
X040835Y025268D01*
X0408482Y0252645D01*
X0408634Y025262D01*
X0408806Y0252605D01*
X0408998Y02526D01*
Y02516D01*
X0408806Y0251595D01*
X0408634Y025158D01*
X0408482Y0251555D01*
X040835Y025152D01*
X0408239Y0251475D01*
X0408148Y025142D01*
X0408077Y0251355D01*
X0408026Y025128D01*
X0407996Y0251195D01*
X0407986Y02511D01*
Y02531D01*
X0407996Y0253005D01*
D02*
G37*
G36*
X0418902Y0244824D02*
X0418933Y024474D01*
X0418985Y0244666D01*
X0419057Y0244602D01*
X041915Y0244548D01*
X0419264Y0244503D01*
X0419398Y0244469D01*
X0419554Y0244444D01*
X0419729Y0244429D01*
X0419926Y0244424D01*
Y0243424D01*
X0419729Y0243419D01*
X0419554Y0243405D01*
X0419398Y024338D01*
X0419264Y0243345D01*
X041915Y0243301D01*
X0419057Y0243247D01*
X0418985Y0243182D01*
X0418933Y0243109D01*
X0418902Y0243025D01*
X0418891Y0242931D01*
Y0244917D01*
X0418902Y0244824D01*
D02*
G37*
G36*
X040644Y0241393D02*
X0406355Y0241363D01*
X040628Y0241313D01*
X0406215Y0241243D01*
X040616Y0241153D01*
X0406115Y0241043D01*
X040608Y0240913D01*
X0406055Y0240763D01*
X040604Y0240593D01*
X0406035Y0240403D01*
X0405035D01*
X040503Y0240593D01*
X0405015Y0240763D01*
X040499Y0240913D01*
X0404955Y0241043D01*
X040491Y0241153D01*
X0404855Y0241243D01*
X040479Y0241313D01*
X0404715Y0241363D01*
X040463Y0241393D01*
X0404535Y0241403D01*
X0406535D01*
X040644Y0241393D01*
D02*
G37*
G36*
X0483835Y0238955D02*
X0483694Y0238934D01*
X0483552Y0238899D01*
X0483411Y0238849D01*
X048327Y0238786D01*
X0483128Y0238708D01*
X0482987Y0238616D01*
X0482845Y023851D01*
X0482704Y023839D01*
X0482562Y0238255D01*
X0481148D01*
X0481282Y023839D01*
X0481783Y0238955D01*
X0481775Y0238962D01*
X0483977D01*
X0483835Y0238955D01*
D02*
G37*
G36*
X0438351Y0239824D02*
X0438382Y023974D01*
X0438434Y0239666D01*
X0438506Y0239602D01*
X0438599Y0239548D01*
X0438713Y0239503D01*
X0438847Y0239469D01*
X0439002Y0239444D01*
X0439178Y0239429D01*
X0439375Y0239424D01*
Y0238424D01*
X0439178Y0238419D01*
X0439002Y0238404D01*
X0438847Y023838D01*
X0438713Y0238345D01*
X0438599Y0238301D01*
X0438506Y0238247D01*
X0438434Y0238182D01*
X0438382Y0238108D01*
X0438351Y0238025D01*
X043834Y0237931D01*
Y0239917D01*
X0438351Y0239824D01*
D02*
G37*
G36*
X0411217Y0237931D02*
X0411207Y0238025D01*
X0411176Y0238108D01*
X0411124Y0238182D01*
X0411052Y0238247D01*
X0410959Y0238301D01*
X0410845Y0238345D01*
X041071Y023838D01*
X0410555Y0238404D01*
X041038Y0238419D01*
X0410183Y0238424D01*
Y0239424D01*
X041038Y0239429D01*
X0410555Y0239444D01*
X041071Y0239469D01*
X0410845Y0239503D01*
X0410959Y0239548D01*
X0411052Y0239602D01*
X0411124Y0239666D01*
X0411176Y023974D01*
X0411207Y0239824D01*
X0411217Y0239917D01*
Y0237931D01*
D02*
G37*
G36*
X0430666Y0232931D02*
X0430656Y0233025D01*
X0430625Y0233108D01*
X0430573Y0233183D01*
X0430501Y0233247D01*
X0430408Y0233301D01*
X0430294Y0233345D01*
X0430159Y023338D01*
X0430004Y0233404D01*
X0429828Y0233419D01*
X0429632Y0233424D01*
Y0234424D01*
X0429828Y0234429D01*
X0430004Y0234444D01*
X0430159Y0234469D01*
X0430294Y0234503D01*
X0430408Y0234548D01*
X0430501Y0234602D01*
X0430573Y0234666D01*
X0430625Y023474D01*
X0430656Y0234824D01*
X0430666Y0234917D01*
Y0232931D01*
D02*
G37*
G36*
X0460237Y0234754D02*
X0460267Y0234669D01*
X0460318Y0234594D01*
X0460389Y0234529D01*
X046048Y0234474D01*
X0460591Y0234429D01*
X0460723Y0234394D01*
X0460875Y0234369D01*
X0461047Y0234354D01*
X0461239Y0234349D01*
Y0233349D01*
X0461047Y0233344D01*
X0460875Y0233329D01*
X0460723Y0233304D01*
X0460591Y0233269D01*
X046048Y0233224D01*
X0460389Y0233169D01*
X0460318Y0233104D01*
X0460267Y0233029D01*
X0460237Y0232944D01*
X0460227Y0232849D01*
Y0234849D01*
X0460237Y0234754D01*
D02*
G37*
G36*
X0446562Y0232849D02*
X0446552Y0232944D01*
X0446522Y0233029D01*
X0446472Y0233104D01*
X0446402Y0233169D01*
X0446312Y0233224D01*
X0446202Y0233269D01*
X0446072Y0233304D01*
X0445922Y0233329D01*
X0445752Y0233344D01*
X0445562Y0233349D01*
Y0234349D01*
X0445752Y0234354D01*
X0445922Y0234369D01*
X0446072Y0234394D01*
X0446202Y0234429D01*
X0446312Y0234474D01*
X0446402Y0234529D01*
X0446472Y0234594D01*
X0446522Y0234669D01*
X0446552Y0234754D01*
X0446562Y0234849D01*
Y0232849D01*
D02*
G37*
G36*
X0411268Y0232834D02*
X0411201Y0232923D01*
X0411125Y0233002D01*
X0411039Y0233072D01*
X0410945Y0233132D01*
X0410841Y0233184D01*
X0410728Y0233225D01*
X0410605Y0233258D01*
X0410474Y0233281D01*
X0410333Y0233295D01*
X0410183Y02333D01*
Y02343D01*
X0410379Y0234305D01*
X0410553Y023432D01*
X0410707Y0234345D01*
X041084Y023438D01*
X0410951Y0234425D01*
X0411042Y023448D01*
X0411112Y0234545D01*
X041116Y023462D01*
X0411188Y0234705D01*
X0411195Y02348D01*
X0411268Y0232834D01*
D02*
G37*
G36*
X03754Y02734D02*
Y02531D01*
X03714Y02487D01*
Y02297D01*
X03666D01*
Y02487D01*
X03626Y02531D01*
Y02616D01*
X03666Y0266122D01*
Y0278D01*
X03712D01*
X03754Y02734D01*
D02*
G37*
G36*
X0438351Y0229824D02*
X0438382Y022974D01*
X0438434Y0229666D01*
X0438506Y0229602D01*
X0438599Y0229548D01*
X0438713Y0229503D01*
X0438847Y0229469D01*
X0439002Y0229444D01*
X0439178Y0229429D01*
X0439375Y0229424D01*
Y0228424D01*
X0439178Y0228419D01*
X0439002Y0228404D01*
X0438847Y022838D01*
X0438713Y0228345D01*
X0438599Y0228301D01*
X0438506Y0228247D01*
X0438434Y0228183D01*
X0438382Y0228109D01*
X0438351Y0228025D01*
X043834Y0227931D01*
Y0229918D01*
X0438351Y0229824D01*
D02*
G37*
G36*
X0435408Y0227751D02*
X0435323Y0227721D01*
X0435248Y0227671D01*
X0435183Y02276D01*
X0435128Y0227509D01*
X0435083Y0227397D01*
X0435048Y0227266D01*
X0435023Y0227114D01*
X0435008Y0226942D01*
X0435003Y022675D01*
X0434003D01*
X0433998Y0226942D01*
X0433983Y0227114D01*
X0433958Y0227266D01*
X0433923Y0227397D01*
X0433878Y0227509D01*
X0433823Y02276D01*
X0433758Y0227671D01*
X0433683Y0227721D01*
X0433598Y0227751D01*
X0433503Y0227762D01*
X0435503D01*
X0435408Y0227751D01*
D02*
G37*
G36*
X0446675Y02226D02*
X0446665Y0222695D01*
X0446635Y022278D01*
X0446584Y0222855D01*
X0446513Y022292D01*
X0446422Y0222975D01*
X0446311Y022302D01*
X0446179Y0223055D01*
X0446028Y022308D01*
X0445856Y0223095D01*
X0445663Y02231D01*
Y02241D01*
X0445856Y0224105D01*
X0446028Y022412D01*
X0446179Y0224145D01*
X0446311Y022418D01*
X0446422Y0224225D01*
X0446513Y022428D01*
X0446584Y0224345D01*
X0446635Y022442D01*
X0446665Y0224505D01*
X0446675Y02246D01*
Y02226D01*
D02*
G37*
G36*
X0408213Y0223361D02*
X040825Y0222935D01*
X0408313Y0222558D01*
X04084Y0222232D01*
X0408512Y0221955D01*
X040865Y0221729D01*
X0408813Y0221553D01*
X0409Y0221427D01*
X0409212Y0221352D01*
X040945Y0221326D01*
X0404512Y0221338D01*
X0404738Y0221363D01*
X040494Y0221438D01*
X0405118Y0221563D01*
X0405272Y0221738D01*
X0405403Y0221963D01*
X040551Y0222238D01*
X0405593Y0222563D01*
X0405653Y0222938D01*
X0405688Y0223363D01*
X04057Y0223838D01*
X04082D01*
X0408213Y0223361D01*
D02*
G37*
G36*
X0473645Y0221155D02*
X047356Y0221125D01*
X0473485Y0221074D01*
X047342Y0221003D01*
X0473365Y0220912D01*
X047332Y0220801D01*
X0473285Y0220669D01*
X047326Y0220517D01*
X0473245Y0220345D01*
X047324Y0220153D01*
X047224D01*
X0472235Y0220345D01*
X047222Y0220517D01*
X0472195Y0220669D01*
X047216Y0220801D01*
X0472115Y0220912D01*
X047206Y0221003D01*
X0471995Y0221074D01*
X047192Y0221125D01*
X0471835Y0221155D01*
X047174Y0221165D01*
X047374D01*
X0473645Y0221155D01*
D02*
G37*
G36*
X0418486Y0219505D02*
X0418516Y021942D01*
X0418567Y0219345D01*
X0418638Y021928D01*
X0418729Y0219225D01*
X041884Y021918D01*
X0418972Y0219145D01*
X0419124Y021912D01*
X0419296Y0219105D01*
X0419488Y02191D01*
Y02181D01*
X0419296Y0218095D01*
X0419124Y021808D01*
X0418972Y0218055D01*
X041884Y021802D01*
X0418729Y0217975D01*
X0418638Y021792D01*
X0418567Y0217855D01*
X0418516Y021778D01*
X0418486Y0217695D01*
X0418476Y02176D01*
Y02196D01*
X0418486Y0219505D01*
D02*
G37*
G36*
X0432533Y0213449D02*
X0432548Y0213277D01*
X0432573Y0213125D01*
X0432608Y0212994D01*
X0432653Y0212882D01*
X0432708Y0212791D01*
X0432773Y021272D01*
X0432848Y021267D01*
X0432933Y0212639D01*
X0433028Y0212629D01*
X0431028D01*
X0431123Y0212639D01*
X0431208Y021267D01*
X0431283Y021272D01*
X0431348Y0212791D01*
X0431403Y0212882D01*
X0431448Y0212994D01*
X0431483Y0213125D01*
X0431508Y0213277D01*
X0431523Y0213449D01*
X0431528Y0213641D01*
X0432528D01*
X0432533Y0213449D01*
D02*
G37*
G36*
X0423477D02*
X0423492Y0213277D01*
X0423517Y0213125D01*
X0423552Y0212994D01*
X0423597Y0212882D01*
X0423652Y0212791D01*
X0423717Y021272D01*
X0423792Y021267D01*
X0423877Y0212639D01*
X0423972Y0212629D01*
X0421972D01*
X0422067Y0212639D01*
X0422152Y021267D01*
X0422227Y021272D01*
X0422292Y0212791D01*
X0422347Y0212882D01*
X0422392Y0212994D01*
X0422427Y0213125D01*
X0422452Y0213277D01*
X0422467Y0213449D01*
X0422472Y0213641D01*
X0423472D01*
X0423477Y0213449D01*
D02*
G37*
G36*
X0396779Y0201035D02*
X0396855Y019991D01*
X0396901Y0199635D01*
X0396957Y019941D01*
X0397023Y0199235D01*
X03971Y019911D01*
X0397186Y0199035D01*
X0397283Y019901D01*
X0393764D01*
X0393861Y0199035D01*
X0393947Y019911D01*
X0394024Y0199235D01*
X039409Y019941D01*
X0394146Y0199635D01*
X0394192Y019991D01*
X0394228Y0200235D01*
X0394268Y0201035D01*
X0394274Y020151D01*
X0396774D01*
X0396779Y0201035D01*
D02*
G37*
G36*
X0423805Y0199252D02*
X042372Y0199222D01*
X0423645Y0199172D01*
X042358Y0199102D01*
X0423525Y0199012D01*
X042348Y0198902D01*
X0423445Y0198772D01*
X042342Y0198622D01*
X0423405Y0198452D01*
X04234Y0198262D01*
X04224D01*
X0422395Y0198452D01*
X042238Y0198622D01*
X0422355Y0198772D01*
X042232Y0198902D01*
X0422275Y0199012D01*
X042222Y0199102D01*
X0422155Y0199172D01*
X042208Y0199222D01*
X0421995Y0199252D01*
X04219Y0199262D01*
X04239D01*
X0423805Y0199252D01*
D02*
G37*
G36*
X0397186Y0185803D02*
X03971Y0185728D01*
X0397023Y0185603D01*
X0396957Y0185428D01*
X0396901Y0185203D01*
X0396855Y0184928D01*
X0396819Y0184603D01*
X0396779Y0183803D01*
X0396774Y0183328D01*
X0394274D01*
X0394268Y0183803D01*
X0394192Y0184928D01*
X0394146Y0185203D01*
X039409Y0185428D01*
X0394024Y0185603D01*
X0393947Y0185728D01*
X0393861Y0185803D01*
X0393764Y0185828D01*
X0397283D01*
X0397186Y0185803D01*
D02*
G37*
G36*
X0411005Y0182419D02*
X041102Y0182243D01*
X0411044Y0182088D01*
X0411079Y0181954D01*
X0411123Y018184D01*
X0411178Y0181747D01*
X0411242Y0181674D01*
X0411316Y0181623D01*
X04114Y0181591D01*
X0411493Y0181581D01*
X0409507D01*
X04096Y0181591D01*
X0409684Y0181623D01*
X0409758Y0181674D01*
X0409822Y0181747D01*
X0409877Y018184D01*
X0409921Y0181954D01*
X0409956Y0182088D01*
X040998Y0182243D01*
X0409995Y0182419D01*
X041Y0182616D01*
X0411D01*
X0411005Y0182419D01*
D02*
G37*
G36*
X0381Y02053D02*
X0377601Y0203158D01*
X0375318Y0201719D01*
X0375318Y0201719D01*
X0375288Y02017D01*
X0371376Y019884D01*
X0370918Y0198505D01*
D01*
X03705Y01982D01*
Y0197682D01*
Y01793D01*
X036652D01*
X03665Y01794D01*
Y0197478D01*
Y01979D01*
X0362125Y0202275D01*
X036212Y02023D01*
X0362125Y0202325D01*
X03622Y02024D01*
Y02107D01*
X0365Y02135D01*
Y02273D01*
X0365017Y0227383D01*
X03651Y02274D01*
X03729D01*
X03756Y02298D01*
X03757Y02388D01*
X0381D01*
Y02053D01*
D02*
G37*
G36*
X0404337Y0175028D02*
X0404312Y0175265D01*
X0404237Y0175478D01*
X0404111Y0175665D01*
X0403935Y0175828D01*
X0403709Y0175965D01*
X0403433Y0176078D01*
X0403106Y0176165D01*
X040273Y0176228D01*
X0402303Y0176265D01*
X0401825Y0176278D01*
Y0178778D01*
X0402303Y017879D01*
X040273Y0178828D01*
X0403106Y017889D01*
X0403433Y0178978D01*
X0403709Y017909D01*
X0403935Y0179228D01*
X0404111Y017939D01*
X0404237Y0179578D01*
X0404312Y017979D01*
X0404337Y0180028D01*
Y0175028D01*
D02*
G37*
G36*
X04218Y01422D02*
X04377Y01263D01*
Y01142D01*
X04288D01*
Y01246D01*
X04141Y01393D01*
Y01624D01*
X04218D01*
Y01422D01*
D02*
G37*
G36*
X0412Y01305D02*
X04176Y01249D01*
Y01142D01*
X04089Y0114304D01*
Y01228D01*
X04041Y01276D01*
Y01623D01*
X04042Y01624D01*
X0412D01*
Y01305D01*
D02*
G37*
G36*
X04985Y0157D02*
X0492D01*
X04852Y0150416D01*
X04854Y0114D01*
X04852Y01142D01*
X04765D01*
X0476404Y0154604D01*
X04859Y01641D01*
X04985Y01641D01*
Y0157D01*
D02*
G37*
G36*
X04656Y01445D02*
X04656Y01138D01*
X045641Y01138D01*
Y014129D01*
X04493Y01484D01*
X04279D01*
Y01543D01*
X04558D01*
X04656Y01445D01*
D02*
G37*
%LPC*%
G36*
X0489697Y0367225D02*
X0487425D01*
Y0367213D01*
X04877D01*
X0487705Y0367023D01*
X048772Y0366853D01*
X0487745Y0366703D01*
X048778Y0366573D01*
X0487825Y0366463D01*
X048788Y0366373D01*
X0487945Y0366303D01*
X048802Y0366253D01*
X0488105Y0366223D01*
X04882Y0366213D01*
X0487425D01*
Y0364166D01*
X0489697D01*
Y0367225D01*
D02*
G37*
G36*
X0486425D02*
X0484154D01*
Y0364166D01*
X0486425D01*
Y0366213D01*
X04862D01*
X0486295Y0366223D01*
X048638Y0366253D01*
X0486425Y0366283D01*
Y0367225D01*
D02*
G37*
G36*
X0489697Y0363166D02*
X0487425D01*
Y0361131D01*
X0488133D01*
X0488052Y0361122D01*
X048798Y0361094D01*
X0487916Y0361047D01*
X048786Y0360981D01*
X0487814Y0360897D01*
X0487775Y0360793D01*
X0487746Y0360671D01*
X0487724Y0360531D01*
X0487711Y0360371D01*
X0487707Y0360193D01*
X0487425D01*
Y0360107D01*
X0489697D01*
Y0363166D01*
D02*
G37*
G36*
X0486425D02*
X0484154D01*
Y0360107D01*
X0486425D01*
Y0361097D01*
X0486362Y0361122D01*
X0486281Y0361131D01*
X0486425D01*
Y0363166D01*
D02*
G37*
G36*
X03715Y0363907D02*
Y0363891D01*
D01*
X0371505Y0363674D01*
X037152Y0363481D01*
X0371545Y036331D01*
X0371579Y0363162D01*
X0371624Y0363036D01*
X0371679Y0362934D01*
X0371743Y0362854D01*
X0371818Y0362797D01*
X0371902Y0362763D01*
X0371996Y0362751D01*
X03715D01*
Y03595D01*
X0375185D01*
Y0359787D01*
X0375043Y0360871D01*
X0374625Y036188D01*
X0373959Y0362747D01*
X0373093Y0363412D01*
X0372083Y036383D01*
X03715Y0363907D01*
D02*
G37*
G36*
X03705D02*
X0369917Y036383D01*
X0368907Y0363412D01*
X036804Y0362747D01*
X0367375Y036188D01*
X0366957Y0360871D01*
X0366815Y0359787D01*
Y03595D01*
X03705D01*
Y0362751D01*
X0370004D01*
X0370098Y0362763D01*
X0370182Y0362797D01*
X0370257Y0362854D01*
X0370321Y0362934D01*
X0370376Y0363036D01*
X0370421Y0363162D01*
X0370455Y036331D01*
X037048Y0363481D01*
X0370495Y0363674D01*
X03705Y0363891D01*
Y0363907D01*
D02*
G37*
G36*
X0491272Y0359138D02*
X0489D01*
Y0358277D01*
X0489002Y0358274D01*
X0489057Y0358209D01*
X0489121Y0358163D01*
X0489193Y0358135D01*
X0489274Y0358126D01*
X0489D01*
Y0356079D01*
X0490248D01*
Y0356578D01*
X0490258Y0356484D01*
X0490288Y0356399D01*
X0490339Y0356324D01*
X049041Y0356259D01*
X0490501Y0356204D01*
X0490612Y0356159D01*
X0490743Y0356123D01*
X0490895Y0356099D01*
X0491067Y0356084D01*
X0491259Y0356079D01*
X0491272D01*
Y0359138D01*
D02*
G37*
G36*
X0488D02*
X0485728D01*
Y0356079D01*
X0488D01*
Y0358126D01*
X0487422D01*
X0487503Y0358135D01*
X0487575Y0358163D01*
X0487639Y0358209D01*
X0487695Y0358274D01*
X0487742Y0358357D01*
X048778Y0358459D01*
X048781Y0358579D01*
X0487831Y0358718D01*
X0487844Y0358876D01*
X0487848Y0359052D01*
X0488D01*
Y0359138D01*
D02*
G37*
G36*
X0491272Y0355079D02*
X049126D01*
Y0355079D01*
X0491067Y0355073D01*
X0490895Y0355059D01*
X0490743Y0355034D01*
X0490612Y0354998D01*
X0490501Y0354954D01*
X049041Y0354899D01*
X0490339Y0354834D01*
X0490288Y0354759D01*
X0490258Y0354674D01*
X0490248Y0354578D01*
Y0355079D01*
X0489D01*
Y035202D01*
X0491272D01*
Y0355079D01*
D02*
G37*
G36*
X0375185Y03585D02*
X03715D01*
Y0354093D01*
X0372083Y035417D01*
X0373093Y0354588D01*
X0373959Y0355253D01*
X0374625Y035612D01*
X0375043Y0357129D01*
X0375185Y0358213D01*
Y03585D01*
D02*
G37*
G36*
X03705D02*
X0366815D01*
Y0358213D01*
X0366957Y0357129D01*
X0367375Y035612D01*
X036804Y0355253D01*
X0368907Y0354588D01*
X0369917Y035417D01*
X03705Y0354093D01*
Y03585D01*
D02*
G37*
G36*
X0381Y0363973D02*
X0379917Y036383D01*
X0378907Y0363412D01*
X0378041Y0362747D01*
X0377375Y036188D01*
X0376957Y0360871D01*
X0376815Y0359787D01*
Y0358213D01*
X0376957Y0357129D01*
X0377375Y035612D01*
X0378041Y0355253D01*
X0378907Y0354588D01*
X0379917Y035417D01*
X0381Y0354027D01*
X0382083Y035417D01*
X0383093Y0354588D01*
X038396Y0355253D01*
X0384625Y035612D01*
X0385043Y0357129D01*
X0385185Y0358213D01*
Y0359787D01*
X0385043Y0360871D01*
X0384625Y036188D01*
X038396Y0362747D01*
X0383093Y0363412D01*
X0382083Y036383D01*
X0381Y0363973D01*
D02*
G37*
G36*
X0488Y0355079D02*
X0485728D01*
Y035202D01*
X0488D01*
Y0355079D01*
D02*
G37*
G36*
X0482217Y0367225D02*
X0476673D01*
Y036596D01*
X0470966D01*
X0470088Y0365786D01*
X0469344Y0365288D01*
X045385Y0349794D01*
X0393294D01*
Y0353141D01*
X0393312Y0353346D01*
X039336Y0353633D01*
X0393418Y0353848D01*
X0393475Y0353988D01*
X0393514Y0354051D01*
X0393607Y0354061D01*
X0393613Y0354063D01*
X039515D01*
Y0363937D01*
X038685D01*
Y0354063D01*
X0388387D01*
X0388393Y0354061D01*
X0388486Y0354051D01*
X0388525Y0353988D01*
X0388582Y0353848D01*
X038864Y0353633D01*
X0388688Y0353346D01*
X0388706Y0353141D01*
Y0349794D01*
X037D01*
X0369122Y034962D01*
X0368378Y0349122D01*
X0359201Y0339945D01*
X0359026Y0339992D01*
X0357974D01*
X0356959Y033972D01*
X0356049Y0339194D01*
X0355306Y0338451D01*
X035478Y0337541D01*
X0354508Y0336526D01*
Y0335474D01*
X035478Y0334459D01*
X0355306Y0333549D01*
X0356049Y0332805D01*
X0356959Y033228D01*
X0357974Y0332008D01*
X0359026D01*
X0360041Y033228D01*
X0360951Y0332805D01*
X0361695Y0333549D01*
X036222Y0334459D01*
X0362492Y0335474D01*
Y0336526D01*
X0362445Y0336701D01*
X037095Y0345206D01*
X04548D01*
X0455678Y034538D01*
X0456422Y0345878D01*
X0471916Y0361372D01*
X0476673D01*
Y0360107D01*
X0477151D01*
Y0359138D01*
X0476673D01*
Y035202D01*
X0477178D01*
Y035075D01*
X0476D01*
Y034325D01*
X0483D01*
Y035075D01*
X0481767D01*
Y035202D01*
X0482217D01*
Y0359138D01*
X0481739D01*
Y0360107D01*
X0482217D01*
Y0367225D01*
D02*
G37*
G36*
X0499026Y0339992D02*
X0499D01*
Y03365D01*
X0502492D01*
Y0336526D01*
X050222Y0337541D01*
X0501694Y0338451D01*
X0500951Y0339194D01*
X0500041Y033972D01*
X0499026Y0339992D01*
D02*
G37*
G36*
X0498D02*
X0497974D01*
X0496959Y033972D01*
X0496049Y0339194D01*
X0495305Y0338451D01*
X049478Y0337541D01*
X0494508Y0336526D01*
Y03365D01*
X0498D01*
Y0339992D01*
D02*
G37*
G36*
X0352492D02*
X0349D01*
Y03365D01*
X0352492D01*
Y0339992D01*
D02*
G37*
G36*
X0348D02*
X0344508D01*
Y03365D01*
X0348D01*
Y0339992D01*
D02*
G37*
G36*
X0502492Y03355D02*
X0499D01*
Y0332008D01*
X0499026D01*
X0500041Y033228D01*
X0500951Y0332805D01*
X0501694Y0333549D01*
X050222Y0334459D01*
X0502492Y0335474D01*
Y03355D01*
D02*
G37*
G36*
X0498D02*
X0494508D01*
Y0335474D01*
X049478Y0334459D01*
X0495305Y0333549D01*
X0496049Y0332805D01*
X0496959Y033228D01*
X0497974Y0332008D01*
X0498D01*
Y03355D01*
D02*
G37*
G36*
X0492Y035075D02*
X0485D01*
Y0344376D01*
X0484998Y034437D01*
X0485Y0344349D01*
Y03443D01*
X0484992Y0344262D01*
X0485Y0344224D01*
Y034325D01*
X0485898D01*
X0485904Y0343248D01*
X048599Y0343239D01*
X0486026Y0343179D01*
X0486083Y0343038D01*
X0486141Y0342822D01*
X0486188Y0342534D01*
X0486206Y0342331D01*
Y0339285D01*
X0486049Y0339194D01*
X0485306Y0338451D01*
X048478Y0337541D01*
X0484508Y0336526D01*
Y0335474D01*
X048478Y0334459D01*
X0485306Y0333549D01*
X0486049Y0332805D01*
X0486959Y033228D01*
X0487974Y0332008D01*
X0489026D01*
X0490041Y033228D01*
X0490951Y0332805D01*
X0491694Y0333549D01*
X049222Y0334459D01*
X0492492Y0335474D01*
Y0336526D01*
X049222Y0337541D01*
X0491694Y0338451D01*
X0490951Y0339194D01*
X0490794Y0339285D01*
Y0342331D01*
X0490812Y0342534D01*
X0490859Y0342822D01*
X0490917Y0343038D01*
X0490974Y0343179D01*
X049101Y0343239D01*
X0491096Y0343248D01*
X0491102Y034325D01*
X0492D01*
Y0344224D01*
X0492008Y0344262D01*
X0492Y03443D01*
Y0344349D01*
X0492002Y034437D01*
X0492Y0344376D01*
Y035075D01*
D02*
G37*
G36*
X0439026Y0339992D02*
X0437974D01*
X0436959Y033972D01*
X0436049Y0339194D01*
X0435306Y0338451D01*
X043478Y0337541D01*
X0434508Y0336526D01*
Y0335474D01*
X043478Y0334459D01*
X0435306Y0333549D01*
X0436049Y0332805D01*
X0436959Y033228D01*
X0437974Y0332008D01*
X0439026D01*
X0440041Y033228D01*
X0440951Y0332805D01*
X0441694Y0333549D01*
X044222Y0334459D01*
X0442492Y0335474D01*
Y0336526D01*
X044222Y0337541D01*
X0441694Y0338451D01*
X0440951Y0339194D01*
X0440041Y033972D01*
X0439026Y0339992D01*
D02*
G37*
G36*
X0429026D02*
X0427974D01*
X0426959Y033972D01*
X0426049Y0339194D01*
X0425306Y0338451D01*
X042478Y0337541D01*
X0424508Y0336526D01*
Y0335474D01*
X042478Y0334459D01*
X0425306Y0333549D01*
X0426049Y0332805D01*
X0426959Y033228D01*
X0427974Y0332008D01*
X0429026D01*
X0430041Y033228D01*
X0430951Y0332805D01*
X0431695Y0333549D01*
X043222Y0334459D01*
X0432492Y0335474D01*
Y0336526D01*
X043222Y0337541D01*
X0431695Y0338451D01*
X0430951Y0339194D01*
X0430041Y033972D01*
X0429026Y0339992D01*
D02*
G37*
G36*
X0419026D02*
X0417974D01*
X0416959Y033972D01*
X0416049Y0339194D01*
X0415306Y0338451D01*
X041478Y0337541D01*
X0414508Y0336526D01*
Y0335474D01*
X041478Y0334459D01*
X0415306Y0333549D01*
X0416049Y0332805D01*
X0416959Y033228D01*
X0417974Y0332008D01*
X0419026D01*
X0420041Y033228D01*
X0420951Y0332805D01*
X0421695Y0333549D01*
X042222Y0334459D01*
X0422492Y0335474D01*
Y0336526D01*
X042222Y0337541D01*
X0421695Y0338451D01*
X0420951Y0339194D01*
X0420041Y033972D01*
X0419026Y0339992D01*
D02*
G37*
G36*
X0409026D02*
X0407974D01*
X0406959Y033972D01*
X0406049Y0339194D01*
X0405305Y0338451D01*
X040478Y0337541D01*
X0404508Y0336526D01*
Y0335474D01*
X040478Y0334459D01*
X0405305Y0333549D01*
X0406049Y0332805D01*
X0406959Y033228D01*
X0407974Y0332008D01*
X0409026D01*
X0410041Y033228D01*
X0410951Y0332805D01*
X0411694Y0333549D01*
X041222Y0334459D01*
X0412492Y0335474D01*
Y0336526D01*
X041222Y0337541D01*
X0411694Y0338451D01*
X0410951Y0339194D01*
X0410041Y033972D01*
X0409026Y0339992D01*
D02*
G37*
G36*
X0369026D02*
X0367974D01*
X0366959Y033972D01*
X0366049Y0339194D01*
X0365305Y0338451D01*
X036478Y0337541D01*
X0364508Y0336526D01*
Y0335474D01*
X036478Y0334459D01*
X0365305Y0333549D01*
X0366049Y0332805D01*
X0366959Y033228D01*
X0367974Y0332008D01*
X0369026D01*
X0370041Y033228D01*
X0370951Y0332805D01*
X0371694Y0333549D01*
X037222Y0334459D01*
X0372492Y0335474D01*
Y0336526D01*
X037222Y0337541D01*
X0371694Y0338451D01*
X0370951Y0339194D01*
X0370041Y033972D01*
X0369026Y0339992D01*
D02*
G37*
G36*
X0352492Y03355D02*
X0349D01*
Y0332008D01*
X0352492D01*
Y03355D01*
D02*
G37*
G36*
X0348D02*
X0344508D01*
Y0332008D01*
X0348D01*
Y03355D01*
D02*
G37*
G36*
X04391Y032705D02*
X04361D01*
Y03238D01*
X0438076D01*
Y032434D01*
X0438085Y0324259D01*
X0438113Y0324187D01*
X043816Y0324123D01*
X0438226Y0324068D01*
X043831Y0324021D01*
X0438414Y0323982D01*
X0438536Y0323953D01*
X0438677Y0323931D01*
X0438836Y0323919D01*
X0439014Y0323914D01*
Y03238D01*
X04391D01*
Y032705D01*
D02*
G37*
G36*
Y03228D02*
X0438297D01*
X0438226Y0322761D01*
X043816Y0322705D01*
X0438113Y0322641D01*
X0438085Y0322569D01*
X0438076Y0322488D01*
Y03228D01*
X04361D01*
Y031955D01*
X04391D01*
Y03228D01*
D02*
G37*
G36*
X0481Y0322687D02*
D01*
Y0322654D01*
D01*
X0481005Y0322452D01*
X048102Y0322272D01*
X0481045Y0322112D01*
X048108Y0321974D01*
X0481125Y0321858D01*
X048118Y0321762D01*
X0481244Y0321688D01*
X0481319Y0321635D01*
X0481404Y0321603D01*
X0481499Y0321592D01*
X0481D01*
Y03189D01*
X0484111D01*
X0484129Y0319197D01*
X0484135Y0319102D01*
X0484164Y0319018D01*
X0484215Y0318943D01*
X0484266Y03189D01*
X0485221D01*
X0485141Y031951D01*
X0484712Y0320543D01*
X0484031Y0321431D01*
X0483143Y0322112D01*
X0482109Y0322541D01*
X0481Y0322687D01*
D02*
G37*
G36*
X048D02*
X0478891Y0322541D01*
X0477857Y0322112D01*
X0476969Y0321431D01*
X0476288Y0320543D01*
X0475859Y031951D01*
X0475779Y03189D01*
X048D01*
Y0321592D01*
X0479501D01*
X0479596Y0321603D01*
X0479681Y0321635D01*
X0479756Y0321688D01*
X047982Y0321762D01*
X0479875Y0321858D01*
X047992Y0321974D01*
X0479955Y0322112D01*
X047998Y0322272D01*
X0479995Y0322452D01*
X048Y0322654D01*
Y0322687D01*
D02*
G37*
G36*
X0413799Y0320559D02*
X0411527D01*
Y0320546D01*
X0411532Y0320357D01*
X0411547Y0320187D01*
X0411572Y0320037D01*
X0411607Y0319907D01*
X0411652Y0319797D01*
X0411707Y0319707D01*
X0411772Y0319637D01*
X0411847Y0319587D01*
X0411932Y0319557D01*
X0412027Y0319547D01*
X0411527D01*
Y03175D01*
X0413799D01*
Y0320559D01*
D02*
G37*
G36*
X0410527D02*
X0408255D01*
Y03175D01*
X0410527D01*
Y0319547D01*
X0410027D01*
X0410122Y0319557D01*
X0410207Y0319587D01*
X0410282Y0319637D01*
X0410347Y0319707D01*
X0410402Y0319797D01*
X0410447Y0319907D01*
X0410482Y0320037D01*
X0410507Y0320187D01*
X0410522Y0320357D01*
X0410527Y0320547D01*
X0410527D01*
Y0320559D01*
D02*
G37*
G36*
X0485221Y03179D02*
X0485182D01*
X0485171Y03177D01*
X0484956Y0317695D01*
X0484762Y031768D01*
X0484591Y0317655D01*
X0484441Y0317621D01*
X0484314Y0317576D01*
X0484209Y0317521D01*
X0484126Y0317457D01*
X0484064Y0317382D01*
X0484025Y0317298D01*
X0484008Y0317203D01*
X0484051Y03179D01*
X0481D01*
Y0314113D01*
X0482109Y0314259D01*
X0483143Y0314688D01*
X0484031Y0315369D01*
X0484712Y0316257D01*
X0485141Y031729D01*
X0485221Y03179D01*
D02*
G37*
G36*
X048D02*
X0475779D01*
X0475859Y031729D01*
X0476288Y0316257D01*
X0476969Y0315369D01*
X0477857Y0314688D01*
X0478891Y0314259D01*
X048Y0314113D01*
D01*
Y03179D01*
D02*
G37*
G36*
X0413799Y03165D02*
X0411527D01*
Y0314465D01*
X04122D01*
X0412105Y0314455D01*
X041202Y0314424D01*
X0411945Y0314374D01*
X041188Y0314303D01*
X0411825Y0314212D01*
X041178Y0314101D01*
X0411745Y0313969D01*
X041172Y0313817D01*
X0411705Y0313645D01*
X04117Y0313453D01*
X0411527D01*
Y0313441D01*
X0413799D01*
Y03165D01*
D02*
G37*
G36*
X0410527D02*
X0408255D01*
Y0313441D01*
X0410527D01*
Y0314291D01*
X041052Y0314303D01*
X0410455Y0314374D01*
X041038Y0314424D01*
X0410295Y0314455D01*
X04102Y0314465D01*
X0410527D01*
Y03165D01*
D02*
G37*
G36*
X0415374Y0312471D02*
X0413102D01*
Y0311464D01*
X0413141Y0311459D01*
X0413102D01*
Y0309412D01*
X041435D01*
Y0309912D01*
X041436Y0309817D01*
X041439Y0309732D01*
X0414441Y0309657D01*
X0414512Y0309592D01*
X0414603Y0309537D01*
X0414714Y0309492D01*
X0414846Y0309457D01*
X0414997Y0309432D01*
X0415169Y0309417D01*
X0415361Y0309412D01*
X0415374D01*
Y0312471D01*
D02*
G37*
G36*
X0412102D02*
X040983D01*
Y0309412D01*
X0412102D01*
Y0311459D01*
X0411288D01*
X0411369Y0311469D01*
X0411442Y0311496D01*
X0411506Y0311543D01*
X0411561Y0311608D01*
X0411608Y0311691D01*
X0411646Y0311793D01*
X0411676Y0311913D01*
X0411697Y0312052D01*
X041171Y031221D01*
X0411714Y0312386D01*
X0412102D01*
Y0312471D01*
D02*
G37*
G36*
X0392522Y0312404D02*
X0390251D01*
Y0309345D01*
X0392522D01*
Y0312404D01*
D02*
G37*
G36*
X0389251D02*
X0386979D01*
Y0309345D01*
X0389251D01*
Y0312404D01*
D02*
G37*
G36*
X0362953Y0312567D02*
X03595D01*
Y030813D01*
X0362953D01*
Y0312567D01*
D02*
G37*
G36*
X03585D02*
X0355047D01*
Y030813D01*
X0355059D01*
D01*
X0355252Y0308135D01*
X0355424Y030815D01*
X0355575Y0308175D01*
X0355707Y030821D01*
X0355818Y0308255D01*
X0355909Y030831D01*
X035598Y0308375D01*
X0356031Y030845D01*
X0356061Y0308535D01*
X0356071Y030863D01*
Y030813D01*
X03585D01*
Y0312567D01*
D02*
G37*
G36*
X0415374Y0308412D02*
X0415362D01*
Y0308412D01*
X0415169Y0308407D01*
X0414997Y0308392D01*
X0414846Y0308367D01*
X0414714Y0308332D01*
X0414603Y0308287D01*
X0414512Y0308232D01*
X0414441Y0308167D01*
X041439Y0308092D01*
X041436Y0308007D01*
X041435Y0307912D01*
Y0308412D01*
X0413102D01*
Y0305353D01*
X0415374D01*
Y0308412D01*
D02*
G37*
G36*
X03585Y030713D02*
X0356071D01*
Y030663D01*
X0356061Y0306725D01*
X0356031Y030681D01*
X035598Y0306885D01*
X0355909Y030695D01*
X0355818Y0307005D01*
X0355707Y030705D01*
X0355575Y0307085D01*
X0355424Y030711D01*
X0355252Y0307125D01*
X0355059Y030713D01*
X0355047D01*
Y0302693D01*
X03585D01*
Y030713D01*
D02*
G37*
G36*
X0412102Y0308412D02*
X040983D01*
Y0305353D01*
X0412102D01*
Y0308412D01*
D02*
G37*
G36*
X0392522Y0308345D02*
X0390251D01*
Y0305286D01*
X0392522D01*
Y0308345D01*
D02*
G37*
G36*
X0389251D02*
X0386979D01*
Y0305286D01*
X0389251D01*
Y0308345D01*
D02*
G37*
G36*
X0380074Y0305006D02*
X0377015D01*
Y0302734D01*
X0380074D01*
Y0305006D01*
D02*
G37*
G36*
X0362953Y030713D02*
X03595D01*
Y0302693D01*
X0362953D01*
Y030713D01*
D02*
G37*
G36*
X0469674Y03031D02*
X0469662D01*
D01*
X046947Y0303095D01*
X0469298Y030308D01*
X0469146Y0303055D01*
X0469015Y030302D01*
X0468903Y0302975D01*
X0468812Y030292D01*
X0468741Y0302855D01*
X0468691Y030278D01*
X046866Y0302695D01*
X046865Y03026D01*
Y03031D01*
X0467403D01*
Y0301065D01*
X0467903D01*
X0467808Y0301055D01*
X0467723Y0301025D01*
X0467648Y0300974D01*
X0467583Y0300903D01*
X0467528Y0300812D01*
X0467483Y0300701D01*
X0467448Y0300569D01*
X0467423Y0300417D01*
X0467408Y0300245D01*
X0467403Y0300053D01*
X0467403D01*
Y0300041D01*
X0469674D01*
Y03031D01*
D02*
G37*
G36*
X0466402D02*
X0464131D01*
Y0300041D01*
X0466402D01*
Y0300055D01*
X0466398Y0300245D01*
X0466383Y0300417D01*
X0466358Y0300569D01*
X0466323Y0300701D01*
X0466278Y0300812D01*
X0466223Y0300903D01*
X0466158Y0300974D01*
X0466083Y0301025D01*
X0465998Y0301055D01*
X0465903Y0301065D01*
X0466402D01*
Y03031D01*
D02*
G37*
G36*
X0380074Y0301734D02*
X0377015D01*
Y0299462D01*
X0380074D01*
Y0301734D01*
D02*
G37*
G36*
X0384133Y0305006D02*
X0381074D01*
Y0302234D01*
Y0299462D01*
X0384018D01*
X0384133Y0299462D01*
X0384518Y0299185D01*
Y0298576D01*
X0392621D01*
Y0304316D01*
X0384633D01*
X0384518Y0304317D01*
X0384133Y0304594D01*
Y0305006D01*
D02*
G37*
G36*
X0350059Y0298197D02*
X0347D01*
Y0295925D01*
X0350059D01*
Y0298197D01*
D02*
G37*
G36*
X0346D02*
X0342941D01*
Y0295925D01*
X0346D01*
Y0298197D01*
D02*
G37*
G36*
X0469674Y0297459D02*
X0467403D01*
Y0297447D01*
X0467403D01*
X0467408Y0297257D01*
X0467423Y0297087D01*
X0467448Y0296937D01*
X0467483Y0296807D01*
X0467528Y0296697D01*
X0467583Y0296607D01*
X0467648Y0296537D01*
X0467723Y0296487D01*
X0467808Y0296457D01*
X0467903Y0296447D01*
X0467403D01*
Y02944D01*
X0469674D01*
Y0297459D01*
D02*
G37*
G36*
X0466402D02*
X0464131D01*
Y02944D01*
X0466402D01*
Y0296447D01*
X0465903D01*
X0465998Y0296457D01*
X0466083Y0296487D01*
X0466158Y0296537D01*
X0466223Y0296607D01*
X0466278Y0296697D01*
X0466323Y0296807D01*
X0466358Y0296937D01*
X0466383Y0297087D01*
X0466398Y0297257D01*
X0466402Y0297446D01*
Y0297459D01*
D02*
G37*
G36*
X0350059Y0294925D02*
X0347D01*
Y0292653D01*
X0350059D01*
Y0294925D01*
D02*
G37*
G36*
X0346D02*
X0342941D01*
Y0292653D01*
X0346D01*
Y0294925D01*
D02*
G37*
G36*
X0469674Y02934D02*
X0467403D01*
Y0291365D01*
X0467627D01*
X0467532Y0291355D01*
X0467447Y0291324D01*
X0467403Y0291295D01*
Y0290341D01*
X0469674D01*
Y02934D01*
D02*
G37*
G36*
X0466402D02*
X0464131D01*
Y0290341D01*
X0466402D01*
Y0290353D01*
X0466127D01*
X0466122Y0290545D01*
X0466107Y0290717D01*
X0466082Y0290869D01*
X0466047Y0291001D01*
X0466002Y0291112D01*
X0465947Y0291203D01*
X0465882Y0291274D01*
X0465807Y0291324D01*
X0465722Y0291355D01*
X0465627Y0291365D01*
X0466402D01*
Y02934D01*
D02*
G37*
G36*
X0362755Y0278835D02*
X0360483D01*
Y0275776D01*
X0361728D01*
X0360969Y0277811D01*
X0361017Y0277727D01*
X0361086Y0277678D01*
X0361176Y0277663D01*
X0361286Y0277683D01*
X0361417Y0277738D01*
X0361569Y0277827D01*
X0361741Y0277951D01*
X0361935Y027811D01*
X0362383Y027853D01*
X036245Y0277183D01*
X0362279Y0277005D01*
X0362004Y0276674D01*
X0361899Y0276521D01*
X0361816Y0276375D01*
X0361755Y0276238D01*
X0361716Y0276108D01*
X0361699Y0275987D01*
X0361704Y0275874D01*
X0361729Y0275776D01*
X0362755D01*
Y0278835D01*
D02*
G37*
G36*
X0359483D02*
X0357212D01*
Y0275776D01*
X0357224D01*
X0357416Y0275781D01*
X0357588Y0275796D01*
X035774Y0275821D01*
X0357871Y0275856D01*
X0357983Y0275901D01*
X0358074Y0275956D01*
X0358144Y0276021D01*
X0358195Y0276096D01*
X0358225Y0276181D01*
X0358236Y0276276D01*
Y0275776D01*
X0359483D01*
Y0278835D01*
D02*
G37*
G36*
X0392962Y0276653D02*
X0389903D01*
Y0274381D01*
X0392962D01*
Y0276653D01*
D02*
G37*
G36*
X0388903D02*
X0385844D01*
Y0274381D01*
X0385856D01*
Y0274381D01*
X0386046Y0274387D01*
X0386216Y0274401D01*
X0386366Y0274427D01*
X0386496Y0274462D01*
X0386606Y0274506D01*
X0386696Y0274562D01*
X0386766Y0274626D01*
X0386816Y0274701D01*
X0386846Y0274786D01*
X0386856Y0274882D01*
Y0274381D01*
X0388903D01*
Y0276653D01*
D02*
G37*
G36*
X0401049D02*
X039799D01*
Y0276567D01*
X0398167D01*
X0398172Y0276389D01*
X0398184Y027623D01*
X0398206Y0276089D01*
X0398236Y0275967D01*
X0398274Y0275864D01*
X0398321Y0275779D01*
X0398376Y0275714D01*
X039844Y0275667D01*
X0398513Y0275639D01*
X0398594Y0275629D01*
X039799D01*
Y0274381D01*
X0401049D01*
Y0276653D01*
D02*
G37*
G36*
X039699D02*
X0393931D01*
Y0274381D01*
X039699D01*
Y0275629D01*
X0396741D01*
X0396822Y0275639D01*
X0396895Y0275667D01*
X0396958Y0275714D01*
X039699Y0275751D01*
Y0276653D01*
D02*
G37*
G36*
X0359483Y0274776D02*
X0358236D01*
Y0274276D01*
X0358225Y0274371D01*
X0358195Y0274456D01*
X0358144Y0274531D01*
X0358074Y0274596D01*
X0357983Y0274651D01*
X0357871Y0274696D01*
X035774Y0274731D01*
X0357588Y0274756D01*
X0357416Y0274771D01*
X0357224Y0274776D01*
X0357212D01*
Y0271717D01*
X0359483D01*
Y0274776D01*
D02*
G37*
G36*
X0388903Y0273381D02*
X0386856D01*
Y0272882D01*
X0386846Y0272976D01*
X0386816Y0273061D01*
X0386766Y0273136D01*
X0386696Y0273201D01*
X0386606Y0273256D01*
X0386496Y0273302D01*
X0386366Y0273337D01*
X0386216Y0273361D01*
X0386046Y0273376D01*
X0385856Y0273381D01*
X0385844D01*
Y027111D01*
X0388903D01*
Y0273381D01*
D02*
G37*
G36*
X0362755Y0274776D02*
X0360483D01*
Y0271717D01*
X0362755D01*
Y0274776D01*
D02*
G37*
G36*
X0401049Y0273381D02*
X039799D01*
Y027111D01*
X0401049D01*
Y0273381D01*
D02*
G37*
G36*
X039699D02*
X0393931D01*
Y027111D01*
X039699D01*
Y0273381D01*
D02*
G37*
G36*
X0392962Y0273381D02*
X0389903D01*
Y027111D01*
X0392962D01*
Y0273381D01*
D02*
G37*
G36*
X036433Y0270748D02*
X0362058D01*
Y0267689D01*
X036433D01*
Y0270748D01*
D02*
G37*
G36*
X0361058D02*
X0358786D01*
Y0267689D01*
X0361058D01*
Y0270748D01*
D02*
G37*
G36*
Y0266689D02*
X0358786D01*
Y026363D01*
X0361058D01*
Y0263642D01*
X0360124D01*
X0360121Y0263831D01*
X0360094Y0264152D01*
X0360072Y0264282D01*
X0360043Y0264391D01*
X0360007Y0264481D01*
X0359964Y0264551D01*
X0359915Y0264601D01*
X035986Y0264632D01*
X0359798Y0264641D01*
X0361058D01*
Y0266689D01*
D02*
G37*
G36*
X0486487Y0266285D02*
X04862D01*
Y02626D01*
X0490607D01*
X049053Y0263183D01*
X0490112Y0264193D01*
X0489447Y0265059D01*
X048858Y0265725D01*
X0487571Y0266143D01*
X0486487Y0266285D01*
D02*
G37*
G36*
X04852D02*
X0484913D01*
X0483829Y0266143D01*
X048282Y0265725D01*
X0481953Y0265059D01*
X0481288Y0264193D01*
X048087Y0263183D01*
X0480793Y02626D01*
X04852D01*
Y0266285D01*
D02*
G37*
G36*
X0490607Y02616D02*
X04862D01*
Y0257915D01*
X0486487D01*
X0487571Y0258057D01*
X048858Y0258475D01*
X0489447Y025914D01*
X0490112Y0260007D01*
X049053Y0261017D01*
X0490607Y02616D01*
D02*
G37*
G36*
X04852D02*
X0480793D01*
X048087Y0261017D01*
X0481288Y0260007D01*
X0481953Y025914D01*
X048282Y0258475D01*
X0483829Y0258057D01*
X0484913Y0257915D01*
X04852D01*
Y02616D01*
D02*
G37*
G36*
X0466974Y0260126D02*
X0463915D01*
Y0257855D01*
X0466974D01*
Y0260126D01*
D02*
G37*
G36*
X0462915D02*
X0459856D01*
Y0257855D01*
X0462915D01*
Y0260126D01*
D02*
G37*
G36*
X0458887Y0260099D02*
X0455828D01*
Y0257827D01*
X0458887D01*
Y0260099D01*
D02*
G37*
G36*
X0454828D02*
X0451768D01*
Y0257827D01*
X0451781D01*
X0451973Y0257832D01*
X0452145Y0257847D01*
X0452297Y0257872D01*
X0452428Y0257907D01*
X0452539Y0257952D01*
X0452631Y0258007D01*
X0452701Y0258072D01*
X0452752Y0258147D01*
X0452782Y0258232D01*
X0452793Y0258327D01*
Y0257827D01*
X0454828D01*
Y0260099D01*
D02*
G37*
G36*
Y0256827D02*
X0452793D01*
Y0256327D01*
X0452782Y0256422D01*
X0452752Y0256507D01*
X0452701Y0256582D01*
X0452631Y0256647D01*
X0452539Y0256702D01*
X0452428Y0256747D01*
X0452297Y0256782D01*
X0452145Y0256807D01*
X0451973Y0256822D01*
X0451781Y0256827D01*
Y0256827D01*
X0451768D01*
Y0254555D01*
X0454828D01*
Y0256827D01*
D02*
G37*
G36*
X0347839Y0269075D02*
X0347161D01*
X0346506Y0268899D01*
X0345919Y026856D01*
X034544Y0268081D01*
X0345101Y0267494D01*
X0344925Y0266839D01*
Y0266161D01*
X0345101Y0265506D01*
X034544Y0264919D01*
X0345919Y026444D01*
X0345971Y026441D01*
Y0262299D01*
X0344138D01*
Y0255968D01*
X0350862D01*
Y0262299D01*
X0349029D01*
Y026441D01*
X0349081Y026444D01*
X034956Y0264919D01*
X0349899Y0265506D01*
X0350075Y0266161D01*
Y0266839D01*
X0349899Y0267494D01*
X034956Y0268081D01*
X0349081Y026856D01*
X0348494Y0268899D01*
X0347839Y0269075D01*
D02*
G37*
G36*
X0466974Y0256855D02*
X0463915D01*
Y0254583D01*
X0466974D01*
Y0256855D01*
D02*
G37*
G36*
X0462915D02*
X0459856D01*
Y0254583D01*
X0462915D01*
Y0256855D01*
D02*
G37*
G36*
X0458887Y0256827D02*
X0455828D01*
Y0254555D01*
X0458887D01*
Y0256827D01*
D02*
G37*
G36*
X0438086Y0246131D02*
X0435003D01*
Y0244424D01*
X0439407D01*
Y024481D01*
X0439306Y0245315D01*
X043902Y0245744D01*
X0438591Y024603D01*
X0438086Y0246131D01*
D02*
G37*
G36*
X045305Y0246349D02*
X04498D01*
Y0243349D01*
X045305D01*
Y0246349D01*
D02*
G37*
G36*
X04488D02*
X044555D01*
Y0243349D01*
X04488D01*
Y0246349D01*
D02*
G37*
G36*
X0439407Y0243424D02*
X0435003D01*
Y0241718D01*
X0438086D01*
X0438591Y0241818D01*
X043902Y0242105D01*
X0439306Y0242533D01*
X0439407Y0243038D01*
Y0243424D01*
D02*
G37*
G36*
X0461251Y0246349D02*
X0453751D01*
Y0239349D01*
X0461251D01*
Y0240555D01*
X046304D01*
X0463306Y0240401D01*
X0463961Y0240225D01*
X0464639D01*
X0465294Y0240401D01*
X0465881Y024074D01*
X046636Y0241219D01*
X0466699Y0241806D01*
X0466875Y0242461D01*
Y0243139D01*
X0466699Y0243794D01*
X046636Y0244381D01*
X0465881Y024486D01*
X0465294Y0245199D01*
X0464639Y0245375D01*
X0463961D01*
X0463306Y0245199D01*
X0463208Y0245143D01*
X0461251D01*
Y0246349D01*
D02*
G37*
G36*
X03475Y0254396D02*
X0346586Y0254276D01*
X0345996Y0254031D01*
X0344138D01*
Y0251895D01*
X034409Y025178D01*
X034397Y0250866D01*
X034401Y0250561D01*
Y0249778D01*
X0343996Y0248369D01*
X034393Y0246964D01*
X034375D01*
Y0246021D01*
X0343743Y0245993D01*
X0343746Y0245972D01*
X0343742Y0245952D01*
X034375Y0245914D01*
Y0239964D01*
X0347271D01*
X03475Y0239934D01*
X034754D01*
X0347769Y0239964D01*
X035125D01*
Y0245914D01*
X0351258Y0245952D01*
X0351254Y0245973D01*
X0351257Y0245993D01*
X035125Y024616D01*
Y0246964D01*
X0351217D01*
X035107Y0250585D01*
Y0250826D01*
X035095Y025174D01*
X0350862Y0251952D01*
Y0254031D01*
X0349004D01*
X0348414Y0254276D01*
X03475Y0254396D01*
D02*
G37*
G36*
X045305Y0242349D02*
X04498D01*
Y0239349D01*
X045305D01*
Y0242349D01*
D02*
G37*
G36*
X04488D02*
X044555D01*
Y0239349D01*
X04488D01*
Y0242349D01*
D02*
G37*
G36*
X035125Y0237964D02*
X0348D01*
Y0234964D01*
X0350238D01*
Y0235298D01*
X0350248Y0235203D01*
X0350278Y0235118D01*
X0350328Y0235043D01*
X0350398Y0234978D01*
X0350421Y0234964D01*
X035125D01*
Y0237964D01*
D02*
G37*
G36*
X0347D02*
X034375D01*
Y0234964D01*
X0347D01*
Y0237964D01*
D02*
G37*
G36*
X0362952Y023953D02*
X0360483D01*
Y0239518D01*
X0361124D01*
X0361129Y0239328D01*
X0361144Y0239158D01*
X0361169Y0239008D01*
X0361204Y0238878D01*
X0361249Y0238768D01*
X0361304Y0238678D01*
X0361369Y0238608D01*
X0361444Y0238558D01*
X0361529Y0238528D01*
X0361624Y0238518D01*
X0360483D01*
Y0234798D01*
X0362952D01*
Y023953D01*
D02*
G37*
G36*
X0359483D02*
X0357015D01*
Y0234798D01*
X0357027D01*
D01*
X0357219Y0234803D01*
X0357391Y0234818D01*
X0357543Y0234843D01*
X0357674Y0234878D01*
X0357786Y0234923D01*
X0357877Y0234978D01*
X0357948Y0235043D01*
X0357998Y0235118D01*
X0358029Y0235203D01*
X0358039Y0235298D01*
Y0234798D01*
X0359483D01*
Y023953D01*
D02*
G37*
G36*
Y0233798D02*
X0358039D01*
Y0233298D01*
X0358029Y0233393D01*
X0357998Y0233478D01*
X0357948Y0233553D01*
X0357877Y0233618D01*
X0357786Y0233673D01*
X0357674Y0233718D01*
X0357543Y0233753D01*
X0357391Y0233778D01*
X0357219Y0233793D01*
X0357027Y0233798D01*
X0357015D01*
Y0229065D01*
X0359483D01*
Y0229078D01*
X0359233D01*
X0359228Y022927D01*
X0359213Y0229442D01*
X0359188Y0229594D01*
X0359153Y0229725D01*
X0359108Y0229837D01*
X0359053Y0229928D01*
X0358988Y0229998D01*
X0358913Y0230049D01*
X0358828Y0230079D01*
X0358733Y0230089D01*
X0359483D01*
Y0233798D01*
D02*
G37*
G36*
X035125Y0233964D02*
X0351238D01*
Y0233798D01*
X0351048Y0233793D01*
X0350878Y0233778D01*
X0350728Y0233753D01*
X0350598Y0233718D01*
X0350488Y0233673D01*
X0350398Y0233618D01*
X0350328Y0233553D01*
X0350278Y0233478D01*
X0350248Y0233393D01*
X0350238Y0233298D01*
Y0233964D01*
X0348D01*
Y0230964D01*
X035125D01*
Y0233964D01*
D02*
G37*
G36*
X0347D02*
X034375D01*
Y0230964D01*
X0347D01*
Y0233964D01*
D02*
G37*
G36*
X0362952Y0233798D02*
X0360483D01*
Y0230089D01*
X0360733D01*
X0360638Y0230079D01*
X0360553Y0230049D01*
X0360483Y0230002D01*
Y0229065D01*
X0362952D01*
Y0233798D01*
D02*
G37*
G36*
X036281Y0227998D02*
X0360538D01*
Y0227024D01*
X0360553Y0227014D01*
X0360638Y0226984D01*
X0360733Y0226974D01*
X0360538D01*
Y0224939D01*
X036281D01*
Y0227998D01*
D02*
G37*
G36*
X0359538D02*
X0357267D01*
Y0224939D01*
X0359538D01*
Y0226974D01*
X0358733D01*
X0358828Y0226984D01*
X0358913Y0227014D01*
X0358988Y0227065D01*
X0359053Y0227135D01*
X0359108Y0227227D01*
X0359153Y0227338D01*
X0359188Y0227469D01*
X0359213Y0227621D01*
X0359228Y0227793D01*
X0359233Y0227986D01*
X0359538D01*
Y0227998D01*
D02*
G37*
G36*
X036281Y0223938D02*
X0360538D01*
Y022088D01*
X036281D01*
Y0223938D01*
D02*
G37*
G36*
X0359538D02*
X0357267D01*
Y022088D01*
X0359538D01*
Y0223938D01*
D02*
G37*
G36*
X0350362Y0223335D02*
X0343638D01*
Y0217004D01*
X0350362D01*
Y0218471D01*
X035091D01*
X035094Y0218419D01*
X0351419Y021794D01*
X0352006Y0217601D01*
X0352661Y0217425D01*
X0353339D01*
X0353994Y0217601D01*
X0354581Y021794D01*
X035506Y0218419D01*
X0355399Y0219006D01*
X0355575Y0219661D01*
Y0220339D01*
X0355399Y0220994D01*
X035506Y0221581D01*
X0354581Y022206D01*
X0353994Y0222399D01*
X0353339Y0222575D01*
X0352661D01*
X0352006Y0222399D01*
X0351419Y022206D01*
X035094Y0221581D01*
X035091Y0221529D01*
X0350362D01*
Y0223335D01*
D02*
G37*
G36*
X0360326Y021991D02*
X0358054D01*
Y0216851D01*
X0360326D01*
Y021991D01*
D02*
G37*
G36*
Y0215851D02*
X0358054D01*
Y0212792D01*
X0360326D01*
Y0213474D01*
X0360313Y0213444D01*
X0360278Y0213314D01*
X0360253Y0213164D01*
X0360238Y0212994D01*
X0360233Y0212804D01*
X0359233D01*
X0359232Y0212994D01*
X0359191Y0213554D01*
X0359173Y0213644D01*
X0359151Y0213714D01*
X0359126Y0213764D01*
X0359098Y0213794D01*
X0359066Y0213804D01*
X0360326D01*
Y0215851D01*
D02*
G37*
G36*
X04104Y0214149D02*
X04074D01*
Y0210899D01*
X04104D01*
Y0214149D01*
D02*
G37*
G36*
X04064D02*
X04034D01*
Y0210899D01*
X04064D01*
Y0214149D01*
D02*
G37*
G36*
X04104Y0209899D02*
X04074D01*
Y0206649D01*
X04104D01*
Y0209899D01*
D02*
G37*
G36*
X04064D02*
X04034D01*
Y0206649D01*
X04064D01*
Y0209899D01*
D02*
G37*
G36*
X0347Y0215432D02*
X0346086Y0215312D01*
X0345496Y0215068D01*
X0343638D01*
Y0212931D01*
X034359Y0212816D01*
X034347Y0211902D01*
Y0210116D01*
X0343402Y0208D01*
X034325D01*
Y0207026D01*
X0343242Y0206988D01*
X0343247Y0206967D01*
X0343243Y0206946D01*
X034325Y0206918D01*
Y0201D01*
X0346771D01*
X0347Y020097D01*
X0347229Y0201D01*
X035075D01*
Y020695D01*
X0350758Y0206988D01*
X0350753Y0207013D01*
X0350756Y0207037D01*
X035075Y020717D01*
Y0208D01*
X035071D01*
X035053Y0211708D01*
Y0211902D01*
X035041Y0212816D01*
X0350362Y0212931D01*
Y0215068D01*
X0348504D01*
X0347914Y0215312D01*
X0347Y0215432D01*
D02*
G37*
G36*
X038924Y0200022D02*
X0386968D01*
Y0196963D01*
X038924D01*
Y0200022D01*
D02*
G37*
G36*
X0385968D02*
X0383697D01*
Y0196963D01*
X0383709D01*
Y01975D01*
X0383901Y0197505D01*
X0384073Y019752D01*
X0384225Y0197545D01*
X0384356Y019758D01*
X0384468Y0197625D01*
X0384559Y019768D01*
X038463Y0197745D01*
X038468Y019782D01*
X0384711Y0197905D01*
X0384721Y0198D01*
Y0196963D01*
X0385968D01*
Y0200022D01*
D02*
G37*
G36*
X035075Y0199D02*
X03475D01*
Y0196D01*
X0349738D01*
Y01965D01*
X0349748Y0196405D01*
X0349778Y019632D01*
X0349828Y0196245D01*
X0349898Y019618D01*
X0349988Y0196125D01*
X0350098Y019608D01*
X0350228Y0196045D01*
X0350378Y019602D01*
X0350548Y0196005D01*
X0350738Y0196D01*
X035075D01*
Y0199D01*
D02*
G37*
G36*
X03465D02*
X034325D01*
Y0196D01*
X03465D01*
Y0199D01*
D02*
G37*
G36*
X035075Y0195D02*
X0350738D01*
D01*
X0350548Y0194995D01*
X0350378Y019498D01*
X0350228Y0194955D01*
X0350098Y019492D01*
X0349988Y0194875D01*
X0349898Y019482D01*
X0349828Y0194755D01*
X0349778Y019468D01*
X0349748Y0194595D01*
X0349738Y01945D01*
Y0195D01*
X03475D01*
Y0192D01*
X035075D01*
Y0195D01*
D02*
G37*
G36*
X038924Y0195963D02*
X0386968D01*
Y0192904D01*
X038924D01*
Y0195963D01*
D02*
G37*
G36*
X0385968D02*
X0383697D01*
Y0192904D01*
X0385968D01*
Y0195963D01*
D02*
G37*
G36*
X03465Y0195D02*
X034325D01*
Y0192D01*
X03465D01*
Y0195D01*
D02*
G37*
G36*
X0390815Y0191934D02*
X0388543D01*
Y0188875D01*
X0390815D01*
Y0191934D01*
D02*
G37*
G36*
X0387543D02*
X0385272D01*
Y0188875D01*
X0387543D01*
Y0191934D01*
D02*
G37*
G36*
X03809Y018872D02*
X03755D01*
X0375463Y0188712D01*
X0375418D01*
X0375358Y01887D01*
X0375302D01*
X0375287Y0188697D01*
X0375251Y0188698D01*
X0375237Y0188693D01*
X0375224Y0188693D01*
X0375222Y0188692D01*
X0374625D01*
Y0188319D01*
X0374589Y0188285D01*
X0374589Y0188285D01*
X0374583Y0188272D01*
X0374573Y0188262D01*
X0374533Y0188168D01*
X0374477Y0188083D01*
X037446Y0188D01*
X0374425Y0187922D01*
X0374425Y0187908D01*
X0374419Y0187896D01*
X03744Y0187803D01*
X03744Y0187702D01*
X037438Y0187604D01*
X0374379Y0187474D01*
X0374379Y0187474D01*
X0374379Y0187474D01*
X0374282Y0164904D01*
X0374282Y0164904D01*
X0372346Y016192D01*
X037223D01*
X0371744Y0161954D01*
X0371744Y016242D01*
Y0165013D01*
X0366201D01*
X0366201Y0161954D01*
X0365715Y016192D01*
X0363126D01*
X0363082Y0164883D01*
X036306Y0164981D01*
X0363059Y0165082D01*
X0363041Y0165165D01*
X0363001Y0165257D01*
X0362998Y0165272D01*
X0362989Y0165284D01*
X0362963Y0165346D01*
X0362885Y0165527D01*
X0362884Y0165529D01*
X0362883Y016553D01*
X0362742Y0165667D01*
X0362601Y0165805D01*
X0362599Y0165806D01*
X0362598Y0165807D01*
X0362415Y016588D01*
X0362352Y0165905D01*
X0362339Y0165913D01*
X0362325Y0165916D01*
X0362231Y0165953D01*
X0362147Y0165969D01*
X0362047Y0165968D01*
X0361948Y0165986D01*
X0359343Y0165956D01*
X0355388Y016591D01*
X035529Y0165889D01*
X035519Y0165888D01*
X0355106Y016587D01*
X0355014Y016583D01*
X0354999Y0165827D01*
X0354987Y0165819D01*
X0354929Y0165794D01*
X035475Y016572D01*
X0354746Y0165716D01*
X035474Y0165714D01*
X0354611Y0165581D01*
X0354588D01*
Y0165558D01*
X0354469Y0165439D01*
X0354467Y0165433D01*
X0354462Y0165429D01*
X0354391Y016525D01*
X0354366Y0165191D01*
X0354358Y0165179D01*
X0354355Y0165164D01*
X0354317Y0165071D01*
X03543Y0164987D01*
X03543Y0164887D01*
X035428Y0164788D01*
Y01609D01*
Y0154179D01*
X03543Y015408D01*
Y015398D01*
X0354317Y0153896D01*
X0354355Y0153803D01*
X0354358Y0153788D01*
X0354366Y0153776D01*
X0354391Y0153715D01*
X0354465Y0153534D01*
X0354468Y0153532D01*
X0354469Y0153528D01*
X0354607Y015339D01*
X0354745Y0153251D01*
X0354748Y0153249D01*
X035475Y0153247D01*
X0354931Y0153172D01*
X0354991Y0153147D01*
X0355004Y0153138D01*
X0355018Y0153135D01*
X0355111Y0153096D01*
X0355195Y0153079D01*
X0355295Y0153078D01*
X0355393Y0153058D01*
X0380539Y0152886D01*
X038064Y0152905D01*
X0380742Y0152904D01*
X0380833Y0152922D01*
X0380923Y0152959D01*
X038093Y0152961D01*
X0380937Y0152965D01*
X0381017Y0152998D01*
X0381095Y0153029D01*
X0381102Y0153031D01*
X0381108Y0153035D01*
X0381198Y0153071D01*
X0381276Y0153122D01*
X0381303Y0153149D01*
X0381305Y015315D01*
X0381461Y0153254D01*
X0381462Y0153255D01*
X0381464Y0153255D01*
X0381484Y0153276D01*
X0381819D01*
Y0153682D01*
X0381875Y0153766D01*
X0381913Y0153859D01*
X0381929Y0153938D01*
X0381938Y0153959D01*
X0381942Y0153965D01*
X0381943Y0153973D01*
X0381981Y0154062D01*
X0381999Y0154153D01*
X0382Y0154255D01*
X038202Y0154356D01*
Y01876D01*
X0382Y0187698D01*
Y0187799D01*
X0381983Y0187882D01*
X0381945Y0187975D01*
X0381942Y018799D01*
X0381934Y0188002D01*
X0381831Y018825D01*
X038155Y0188531D01*
X0381302Y0188634D01*
X038129Y0188642D01*
X0381275Y0188645D01*
X0381182Y0188683D01*
X0381099Y01887D01*
X0380998D01*
X03809Y018872D01*
D02*
G37*
G36*
X0390815Y0187875D02*
X0388543D01*
Y0184816D01*
X0390815D01*
Y0187875D01*
D02*
G37*
G36*
X0387543D02*
X0385272D01*
Y0184816D01*
X0387543D01*
Y0187875D01*
D02*
G37*
G36*
X0362452Y0188692D02*
X0359983D01*
Y0188681D01*
X0360233D01*
X0360238Y018849D01*
X0360253Y0188321D01*
X0360278Y0188171D01*
X0360313Y018804D01*
X0360358Y0187931D01*
X0360413Y018784D01*
X0360478Y018777D01*
X0360553Y0187721D01*
X0360638Y018769D01*
X0360733Y018768D01*
X0359983D01*
Y018396D01*
X0362452D01*
Y0188692D01*
D02*
G37*
G36*
X0358983D02*
X0356515D01*
Y018396D01*
X0358983D01*
Y018768D01*
X0358733D01*
X0358828Y018769D01*
X0358913Y0187721D01*
X0358983Y0187767D01*
Y0188692D01*
D02*
G37*
G36*
X0421386Y0182647D02*
X0421D01*
Y0178244D01*
X0422707D01*
Y0181327D01*
X0422606Y0181832D01*
X042232Y0182261D01*
X0421891Y0182547D01*
X0421386Y0182647D01*
D02*
G37*
G36*
X042D02*
X0419614D01*
X0419109Y0182547D01*
X041868Y0182261D01*
X0418394Y0181832D01*
X0418294Y0181327D01*
Y0178244D01*
X042D01*
Y0182647D01*
D02*
G37*
G36*
X0362452Y018296D02*
X0359983D01*
Y0179252D01*
X0360483D01*
X0360388Y0179242D01*
X0360303Y0179211D01*
X0360228Y0179161D01*
X0360163Y017909D01*
X0360108Y0178999D01*
X0360063Y0178888D01*
X0360028Y0178756D01*
X0360003Y0178604D01*
X0359988Y0178432D01*
X0359983Y017824D01*
Y0178228D01*
X0362452D01*
Y018296D01*
D02*
G37*
G36*
X0358983D02*
X0356515D01*
Y0178228D01*
X0358983D01*
Y017824D01*
D01*
X0358978Y0178432D01*
X0358963Y0178604D01*
X0358938Y0178756D01*
X0358903Y0178888D01*
X0358858Y0178999D01*
X0358803Y017909D01*
X0358738Y0179161D01*
X0358663Y0179211D01*
X0358578Y0179242D01*
X0358483Y0179252D01*
X0358983D01*
Y018296D01*
D02*
G37*
G36*
X0429Y0189229D02*
X04173D01*
X0416715Y0189113D01*
X0416219Y0188781D01*
X0414419Y0186981D01*
X0414087Y0186485D01*
X0413971Y01859D01*
Y0182455D01*
X041368Y0182261D01*
X0413394Y0181832D01*
X0413294Y0181327D01*
Y0174161D01*
X0413394Y0173656D01*
X041368Y0173228D01*
X0414109Y0172941D01*
X0414614Y0172841D01*
X0416386D01*
X0416891Y0172941D01*
X041732Y0173228D01*
X0417606Y0173656D01*
X0417706Y0174161D01*
Y0181327D01*
X0417606Y0181832D01*
X041732Y0182261D01*
X0417029Y0182455D01*
Y0185266D01*
X0417934Y0186171D01*
X0428367D01*
X0429171Y0185366D01*
Y0180299D01*
X0427141D01*
Y0174756D01*
X0434259D01*
Y0180299D01*
X0432229D01*
Y0186D01*
X0432113Y0186585D01*
X0431781Y0187081D01*
X0430081Y0188781D01*
X0429585Y0189113D01*
X0429Y0189229D01*
D02*
G37*
G36*
X0372532Y017716D02*
X037026D01*
Y0176057D01*
X0370273Y0176054D01*
X0370378Y0176055D01*
X0370498Y0176084D01*
X0370633Y0176142D01*
X0370781Y0176228D01*
X0370944Y0176342D01*
X0371122Y0176485D01*
X0371519Y0176855D01*
X0372227Y0176148D01*
X0372027Y0175942D01*
X0371714Y0175573D01*
X03716Y017541D01*
X0371514Y0175261D01*
X0371456Y0175127D01*
X0371426Y0175007D01*
X0371425Y0174901D01*
X0371452Y017481D01*
X0371508Y0174734D01*
X037026Y0175981D01*
Y0174101D01*
X0372532D01*
Y017716D01*
D02*
G37*
G36*
X036926D02*
X0366988D01*
Y0174101D01*
X0367D01*
X0367193Y0174106D01*
X0367365Y0174121D01*
X0367516Y0174146D01*
X0367648Y0174181D01*
X0367759Y0174226D01*
X036785Y0174281D01*
X0367921Y0174346D01*
X0367972Y0174421D01*
X0368002Y0174506D01*
X0368012Y0174601D01*
Y0174101D01*
X036926D01*
Y017716D01*
D02*
G37*
G36*
X0422707Y0177244D02*
X0421D01*
Y0172841D01*
X0421386D01*
X0421891Y0172941D01*
X042232Y0173228D01*
X0422606Y0173656D01*
X0422707Y0174161D01*
Y0177244D01*
D02*
G37*
G36*
X042D02*
X0418294D01*
Y0174161D01*
X0418394Y0173656D01*
X041868Y0173228D01*
X0419109Y0172941D01*
X0419614Y0172841D01*
X042D01*
Y0177244D01*
D02*
G37*
G36*
X036926Y0173101D02*
X0368012D01*
Y0172601D01*
X0368002Y0172696D01*
X0367972Y0172781D01*
X0367921Y0172856D01*
X036785Y0172921D01*
X0367759Y0172976D01*
X0367648Y0173021D01*
X0367516Y0173056D01*
X0367365Y0173081D01*
X0367193Y0173096D01*
X0367Y0173101D01*
X0366988D01*
Y0170042D01*
X036926D01*
Y0173101D01*
D02*
G37*
G36*
X0372532D02*
X037026D01*
Y0170042D01*
X0372532D01*
Y0173101D01*
D02*
G37*
G36*
X0399083Y0171244D02*
X0396024D01*
Y0168972D01*
X0399083D01*
Y0171244D01*
D02*
G37*
G36*
X0434259D02*
X04312D01*
Y0168972D01*
X0434259D01*
Y0171244D01*
D02*
G37*
G36*
X04302D02*
X0427141D01*
Y0168972D01*
X04302D01*
Y0171244D01*
D02*
G37*
G36*
X0395024D02*
X0391965D01*
Y0168972D01*
X0395024D01*
Y0171244D01*
D02*
G37*
G36*
X0371744Y0169072D02*
X0369472D01*
Y0166013D01*
X0371744D01*
Y0169072D01*
D02*
G37*
G36*
X0368472D02*
X0366201D01*
Y0166013D01*
X0368472D01*
Y0169072D01*
D02*
G37*
G36*
X036269Y0148258D02*
X0359139D01*
Y0143624D01*
X036269D01*
Y0148258D01*
D02*
G37*
G36*
X0358139D02*
X0354588D01*
Y0143624D01*
X03546D01*
D01*
X0354792Y0143629D01*
X0354964Y0143644D01*
X0355116Y0143669D01*
X0355247Y0143704D01*
X0355359Y0143749D01*
X035545Y0143804D01*
X0355521Y0143869D01*
X0355571Y0143944D01*
X0355602Y0144029D01*
X0355612Y0144124D01*
Y0143624D01*
X0358139D01*
Y0148258D01*
D02*
G37*
G36*
Y0142624D02*
X0355612D01*
Y0142124D01*
X0355602Y0142219D01*
X0355571Y0142304D01*
X0355521Y0142379D01*
X035545Y0142444D01*
X0355359Y0142499D01*
X0355247Y0142544D01*
X0355116Y0142579D01*
X0354964Y0142604D01*
X0354792Y0142619D01*
X03546Y0142624D01*
X0354588D01*
Y013799D01*
X0358139D01*
Y0138002D01*
X0358139D01*
X0358134Y0138195D01*
X0358119Y0138367D01*
X0358094Y0138518D01*
X0358059Y013865D01*
X0358014Y0138761D01*
X0357959Y0138852D01*
X0357894Y0138923D01*
X0357819Y0138974D01*
X0357734Y0139004D01*
X0357639Y0139014D01*
X0358139D01*
Y0142624D01*
D02*
G37*
G36*
X036269D02*
X0359139D01*
Y0139014D01*
X0359639D01*
X0359544Y0139004D01*
X0359459Y0138974D01*
X0359384Y0138923D01*
X0359319Y0138852D01*
X0359264Y0138761D01*
X0359219Y013865D01*
X0359184Y0138518D01*
X0359159Y0138367D01*
X0359144Y0138195D01*
X0359139Y0138003D01*
Y013799D01*
X036269D01*
Y0142624D01*
D02*
G37*
G36*
X0370437Y0125421D02*
X0366D01*
Y0125409D01*
D01*
X0366005Y0125217D01*
X036602Y0125045D01*
X0366045Y0124893D01*
X036608Y0124762D01*
X0366125Y012465D01*
X036618Y0124559D01*
X0366245Y0124488D01*
X036632Y0124438D01*
X0366405Y0124407D01*
X03665Y0124397D01*
X0366D01*
Y012D01*
X0370437D01*
Y0125421D01*
D02*
G37*
G36*
X0365D02*
X0360563D01*
Y012D01*
X0365D01*
Y0124397D01*
X03645D01*
X0364595Y0124407D01*
X036468Y0124438D01*
X0364755Y0124488D01*
X036482Y0124559D01*
X0364875Y012465D01*
X036492Y0124762D01*
X0364955Y0124893D01*
X036498Y0125045D01*
X0364995Y0125217D01*
X0365Y0125409D01*
Y0125421D01*
D02*
G37*
G36*
X0381819Y0144843D02*
X0367181D01*
Y0136741D01*
X0369488D01*
X0369748Y0136713D01*
X036994Y0136645D01*
X0370109Y0136533D01*
X0370283Y0136345D01*
X0370462Y0136051D01*
X0370632Y0135634D01*
X0370777Y0135092D01*
X0370888Y0134429D01*
X0370957Y0133647D01*
X037097Y0133143D01*
Y01305D01*
X037109Y0129586D01*
X0371443Y0128735D01*
X0372004Y0128004D01*
X0376092Y0123915D01*
X0376806Y0123182D01*
X037883Y0120882D01*
X0379569Y011991D01*
X038014Y0119045D01*
X0380535Y0118308D01*
X0380563Y0118233D01*
Y0113579D01*
X0390437D01*
Y0125421D01*
X0385198D01*
X0384937Y0125572D01*
X0384185Y01261D01*
X0382347Y0127665D01*
X0381762Y0128231D01*
X037803Y0131962D01*
Y0133143D01*
X0378043Y0133647D01*
X0378112Y0134428D01*
X0378223Y0135092D01*
X0378368Y0135634D01*
X0378538Y0136051D01*
X0378717Y0136345D01*
X0378891Y0136533D01*
X037906Y0136645D01*
X0379252Y0136713D01*
X0379512Y0136741D01*
X0381819D01*
Y0144843D01*
D02*
G37*
G36*
X0370437Y0119D02*
X0366D01*
Y0113579D01*
X0370437D01*
Y0119D01*
D02*
G37*
G36*
X0365D02*
X0360563D01*
Y0113579D01*
X0365D01*
Y0119D01*
D02*
G37*
%LPD*%
G36*
X0393263Y035505D02*
X039305Y0354975D01*
X0392863Y035485D01*
X03927Y0354675D01*
X0392563Y035445D01*
X039245Y0354175D01*
X0392362Y035385D01*
X03923Y0353475D01*
X0392263Y035305D01*
X039225Y0352575D01*
X038975D01*
X0389738Y035305D01*
X03897Y0353475D01*
X0389637Y035385D01*
X038955Y0354175D01*
X0389438Y035445D01*
X03893Y0354675D01*
X0389138Y035485D01*
X038895Y0354975D01*
X0388738Y035505D01*
X03885Y0355075D01*
X03935D01*
X0393263Y035505D01*
D02*
G37*
G36*
X0490753Y0344237D02*
X0490542Y0344162D01*
X0490357Y0344037D01*
X0490196Y0343862D01*
X049006Y0343637D01*
X0489948Y0343362D01*
X0489861Y0343037D01*
X0489799Y0342662D01*
X0489762Y0342237D01*
X048975Y0341762D01*
X048725D01*
X0487238Y0342237D01*
X04872Y0342662D01*
X0487139Y0343037D01*
X0487052Y0343362D01*
X048694Y0343637D01*
X0486804Y0343862D01*
X0486643Y0344037D01*
X0486458Y0344162D01*
X0486247Y0344237D01*
X0486012Y0344262D01*
X0490988D01*
X0490753Y0344237D01*
D02*
G37*
G36*
X0348005Y0262095D02*
X034802Y0261923D01*
X0348045Y0261771D01*
X034808Y0261639D01*
X0348125Y0261528D01*
X034818Y0261437D01*
X0348245Y0261366D01*
X034832Y0261316D01*
X0348405Y0261285D01*
X03485Y0261275D01*
X03465D01*
X0346595Y0261285D01*
X034668Y0261316D01*
X0346755Y0261366D01*
X034682Y0261437D01*
X0346875Y0261528D01*
X034692Y0261639D01*
X0346955Y0261771D01*
X034698Y0261923D01*
X0346995Y0262095D01*
X0347Y0262287D01*
X0348D01*
X0348005Y0262095D01*
D02*
G37*
G36*
X0350238Y0245952D02*
X0344762D01*
X0344815Y0246001D01*
X0344862Y0246147D01*
X0344904Y0246391D01*
X034494Y0246732D01*
X0345015Y024834D01*
X034504Y0250826D01*
X035004D01*
X0350238Y0245952D01*
D02*
G37*
G36*
X0349738Y0206988D02*
X0344262D01*
X0344307Y0207037D01*
X0344348Y0207185D01*
X0344383Y020743D01*
X0344414Y0207774D01*
X0344491Y0210133D01*
X03445Y0211902D01*
X03495D01*
X0349738Y0206988D01*
D02*
G37*
G36*
X0380983Y0187683D02*
X0381Y01876D01*
Y0154356D01*
X0380982Y0154264D01*
X0380971Y0154249D01*
X0380933Y0154156D01*
X0380897Y0154103D01*
X0380741Y0153999D01*
X0380715Y0153974D01*
X0380638Y0153923D01*
X0380546Y0153905D01*
X03554Y0154077D01*
X0355317Y0154095D01*
X03553Y0154179D01*
Y01609D01*
Y0164788D01*
X0355317Y0164872D01*
X03554Y016489D01*
X0359355Y0164936D01*
X036196Y0164967D01*
X0362044Y0164951D01*
X0362062Y0164867D01*
X0362122Y01609D01*
X03729D01*
X0373697Y0162128D01*
X0375137Y0164349D01*
X0375137Y0164349D01*
X03753Y01646D01*
X0375301Y0164899D01*
Y0164899D01*
X0375399Y018747D01*
X03754Y01876D01*
X0375418Y0187692D01*
X0375418Y0187692D01*
X0375463D01*
X03755Y01877D01*
X03809D01*
X0380983Y0187683D01*
D02*
G37*
G36*
X0416005Y0182419D02*
X041602Y0182243D01*
X0416044Y0182088D01*
X0416079Y0181954D01*
X0416123Y018184D01*
X0416178Y0181747D01*
X0416242Y0181674D01*
X0416316Y0181623D01*
X04164Y0181591D01*
X0416493Y0181581D01*
X0414507D01*
X04146Y0181591D01*
X0414684Y0181623D01*
X0414758Y0181674D01*
X0414822Y0181747D01*
X0414877Y018184D01*
X0414921Y0181954D01*
X0414956Y0182088D01*
X041498Y0182243D01*
X0414995Y0182419D01*
X0415Y0182616D01*
X0416D01*
X0416005Y0182419D01*
D02*
G37*
G36*
X0431205Y0180095D02*
X043122Y0179923D01*
X0431245Y0179771D01*
X043128Y0179639D01*
X0431325Y0179528D01*
X043138Y0179437D01*
X0431445Y0179366D01*
X043152Y0179316D01*
X0431605Y0179285D01*
X04317Y0179275D01*
X04297D01*
X0429795Y0179285D01*
X042988Y0179316D01*
X0429955Y0179366D01*
X043002Y0179437D01*
X0430075Y0179528D01*
X043012Y0179639D01*
X0430155Y0179771D01*
X043018Y0179923D01*
X0430195Y0180095D01*
X04302Y0180287D01*
X04312D01*
X0431205Y0180095D01*
D02*
G37*
G36*
X0379025Y0137715D02*
X03786Y0137564D01*
X0378225Y0137314D01*
X03779Y0136963D01*
X0377625Y0136512D01*
X03774Y013596D01*
X0377225Y0135309D01*
X03771Y0134557D01*
X0377025Y0133705D01*
X0377Y0132753D01*
X0372D01*
X0371975Y0133705D01*
X03719Y0134557D01*
X0371775Y0135309D01*
X03716Y013596D01*
X0371375Y0136512D01*
X03711Y0136963D01*
X0370775Y0137314D01*
X03704Y0137564D01*
X0369975Y0137715D01*
X03695Y0137765D01*
X03795D01*
X0379025Y0137715D01*
D02*
G37*
G36*
X0381661Y0126909D02*
X038356Y0125292D01*
X0384388Y0124711D01*
X0385136Y012428D01*
X0385803Y0124001D01*
X0386389Y0123873D01*
X0386894Y0123897D01*
X0387318Y0124071D01*
X0387662Y0124397D01*
X0381587Y0116354D01*
X0381807Y0116804D01*
X0381859Y011735D01*
X0381745Y0117993D01*
X0381464Y0118732D01*
X0381016Y0119567D01*
X0380401Y01205D01*
X0379619Y0121528D01*
X0377554Y0123875D01*
X0376272Y0125193D01*
X0380591Y0127945D01*
X0381661Y0126909D01*
D02*
G37*
%LPC*%
G36*
X0367601Y0261583D02*
X0367312Y0261464D01*
X0367117Y0261269D01*
X0366922Y0261464D01*
X0366633Y0261583D01*
Y0260282D01*
X0366133D01*
Y0259782D01*
X0364831D01*
X0364951Y0259493D01*
X0365146Y0259298D01*
X0364951Y0259103D01*
X0364831Y0258814D01*
X0366133D01*
Y0257814D01*
X0364831D01*
X0364951Y0257524D01*
X0365146Y0257329D01*
X0364951Y0257135D01*
X0364831Y0256845D01*
X0366133D01*
Y0255845D01*
X0364831D01*
X0364951Y0255556D01*
X0365146Y0255361D01*
X0364951Y0255166D01*
X0364831Y0254877D01*
X0366133D01*
Y0254377D01*
X0366633D01*
Y0253075D01*
X0366922Y0253195D01*
X0367117Y025339D01*
X0367312Y0253195D01*
X0367601Y0253075D01*
Y0254377D01*
X0368601D01*
Y0253075D01*
X0368891Y0253195D01*
X0369086Y025339D01*
X036928Y0253195D01*
X036957Y0253075D01*
Y0254377D01*
X037057D01*
Y0253075D01*
X0370859Y0253195D01*
X0371054Y025339D01*
X0371249Y0253195D01*
X0371538Y0253075D01*
Y0254377D01*
X0372038D01*
Y0254877D01*
X037334D01*
X037322Y0255166D01*
X0373025Y0255361D01*
X037322Y0255556D01*
X037334Y0255845D01*
X0372038D01*
Y0256845D01*
X037334D01*
X037322Y0257135D01*
X0373025Y0257329D01*
X037322Y0257524D01*
X037334Y0257814D01*
X0372038D01*
Y0258814D01*
X037334D01*
X037322Y0259103D01*
X0373025Y0259298D01*
X037322Y0259493D01*
X037334Y0259782D01*
X0372038D01*
Y0260282D01*
X0371538D01*
Y0261583D01*
X0371249Y0261464D01*
X0371054Y0261269D01*
X0370859Y0261464D01*
X037057Y0261583D01*
Y0260282D01*
X036957D01*
Y0261583D01*
X036928Y0261464D01*
X0369086Y0261269D01*
X0368891Y0261464D01*
X0368601Y0261583D01*
Y0260282D01*
X0367601D01*
Y0261583D01*
D02*
G37*
G36*
X0365633Y0261583D02*
X0365343Y0261464D01*
X0364951Y0261071D01*
X0364831Y0260782D01*
X0365633D01*
Y0261583D01*
D02*
G37*
G36*
X0372538D02*
Y0260782D01*
X037334D01*
X037322Y0261071D01*
X0372828Y0261464D01*
X0372538Y0261583D01*
D02*
G37*
G36*
X0365633Y0253877D02*
X0364831D01*
X0364951Y0253587D01*
X0365343Y0253195D01*
X0365633Y0253075D01*
Y0253877D01*
D02*
G37*
G36*
X037334Y0253877D02*
X0372538D01*
Y0253075D01*
X0372828Y0253195D01*
X037322Y0253587D01*
X037334Y0253877D01*
D02*
G37*
G36*
X0367101Y0210746D02*
X0366812Y0210626D01*
X0366617Y0210431D01*
X0366422Y0210626D01*
X0366133Y0210746D01*
Y0209444D01*
X0365633D01*
Y0208945D01*
X0364331D01*
X0364451Y0208655D01*
X0364646Y020846D01*
X0364451Y0208265D01*
X0364331Y0207976D01*
X0365633D01*
Y0206976D01*
X0364331D01*
X0364451Y0206686D01*
X0364646Y0206492D01*
X0364451Y0206297D01*
X0364331Y0206007D01*
X0365633D01*
Y0205007D01*
X0364331D01*
X0364451Y0204718D01*
X0364646Y0204523D01*
X0364451Y0204328D01*
X0364331Y0204039D01*
X0365633D01*
Y0203539D01*
X0366133D01*
Y0202238D01*
X0366422Y0202357D01*
X0366617Y0202552D01*
X0366812Y0202357D01*
X0367101Y0202238D01*
Y0203539D01*
X0368101D01*
Y0202238D01*
X0368391Y0202357D01*
X0368586Y0202552D01*
X036878Y0202357D01*
X036907Y0202238D01*
Y0203539D01*
X037007D01*
Y0202238D01*
X0370359Y0202357D01*
X0370554Y0202552D01*
X0370749Y0202357D01*
X0371038Y0202238D01*
Y0203539D01*
X0371538D01*
Y0204039D01*
X037284D01*
X037272Y0204328D01*
X0372525Y0204523D01*
X037272Y0204718D01*
X037284Y0205007D01*
X0371538D01*
Y0206007D01*
X037284D01*
X037272Y0206297D01*
X0372525Y0206492D01*
X037272Y0206686D01*
X037284Y0206976D01*
X0371538D01*
Y0207976D01*
X037284D01*
X037272Y0208265D01*
X0372525Y020846D01*
X037272Y0208655D01*
X037284Y0208944D01*
X0371538D01*
Y0209444D01*
X0371038D01*
Y0210746D01*
X0370749Y0210626D01*
X0370554Y0210431D01*
X0370359Y0210626D01*
X037007Y0210746D01*
Y0209444D01*
X036907D01*
Y0210746D01*
X036878Y0210626D01*
X0368586Y0210431D01*
X0368391Y0210626D01*
X0368101Y0210746D01*
Y0209444D01*
X0367101D01*
Y0210746D01*
D02*
G37*
G36*
X0365133Y0210746D02*
X0364843Y0210626D01*
X0364451Y0210234D01*
X0364331Y0209945D01*
X0365133D01*
Y0210746D01*
D02*
G37*
G36*
X0372038D02*
Y0209944D01*
X037284D01*
X037272Y0210234D01*
X0372328Y0210626D01*
X0372038Y0210746D01*
D02*
G37*
G36*
X0365133Y0203039D02*
X0364331D01*
X0364451Y0202749D01*
X0364843Y0202357D01*
X0365133Y0202238D01*
Y0203039D01*
D02*
G37*
G36*
X037284Y0203039D02*
X0372038D01*
Y0202238D01*
X0372328Y0202357D01*
X037272Y0202749D01*
X037284Y0203039D01*
D02*
G37*
%LPD*%
D14*
X0479313Y03036D02*
G03*
X048Y030355I0000687J00047D01*
G01*
X0481D02*
G03*
X0481687Y03036I0J000475D01*
G01*
X04307Y0177528D02*
Y0186D01*
X0429Y01877D02*
X04307Y0186D01*
X04173Y01877D02*
X0429D01*
X04155Y01859D02*
X04173Y01877D01*
X04155Y0177744D02*
Y01859D01*
X0434503Y0228924D02*
X0472524D01*
X04857Y02421D01*
Y02443D01*
X0478Y02472D02*
X04913D01*
X04947Y02277D02*
Y02438D01*
X04913Y02472D02*
X04947Y02438D01*
X0464649Y0233849D02*
X0478Y02472D01*
X0438889Y02521D02*
X04857D01*
X0457501Y0233849D02*
X0464649D01*
X04947Y02277D02*
X0494712Y0227688D01*
Y02236D02*
Y0227688D01*
X04274Y0221D02*
Y02319D01*
X0429424Y0233924D02*
X0434503D01*
X04274Y02319D02*
X0429424Y0233924D01*
X0440276Y0238924D02*
X0445351Y0233849D01*
X04493D01*
X0434503Y0238924D02*
X0440276D01*
X04199Y02186D02*
X04236Y02223D01*
X0420876Y0243924D02*
X04236Y02412D01*
Y02223D02*
Y02412D01*
X0415054Y0243924D02*
X0420876D01*
X0405535Y0243951D02*
Y0252443D01*
Y0239956D02*
X0406567Y0238924D01*
X0405535Y0239956D02*
Y0243951D01*
X0406567Y0238924D02*
X0415054D01*
X040551Y0252045D02*
X0405565Y02521D01*
X04151D01*
X04228Y02598D02*
X0424579Y0261579D01*
Y0266506D01*
X0403347Y03172D02*
X0403547Y0317D01*
X0371327Y0306827D02*
X03817Y03172D01*
X0403347D01*
X0389403Y02665D02*
X03975D01*
X03974Y02078D02*
X04105Y01947D01*
Y0177744D02*
Y01947D01*
X03974Y02078D02*
Y0222923D01*
X04967Y03036D02*
X0503712Y0310612D01*
X048Y030355D02*
X0481D01*
X0466903Y03036D02*
X0479313D01*
X0481687D02*
X04967D01*
X0503712Y0310612D02*
Y03182D01*
X0422972Y0216572D02*
X04274Y0221D01*
X0422972Y0210094D02*
Y0216572D01*
X039689Y0243541D02*
X03974Y0243031D01*
X039648Y0243951D02*
X039689Y0243541D01*
X03974Y0233924D02*
Y0243031D01*
X03886Y0231723D02*
X03974Y0222923D01*
X03886Y0231723D02*
Y02551D01*
X0397209Y0255709D02*
X03987Y02572D01*
X039741Y024488D02*
Y0252644D01*
X03987Y02572D02*
X04234D01*
X0397209Y0252845D02*
X039741Y0252644D01*
X0397209Y0252845D02*
Y0255709D01*
X039651Y0252045D02*
X0397109Y0252644D01*
X039648Y0243951D02*
X039741Y024488D01*
X03979Y0233924D02*
X0398024Y02338D01*
X0415054D01*
X03886Y02551D02*
X03933Y02598D01*
X04228D01*
X04234Y02572D02*
X0426547Y0260347D01*
X04382Y01975D02*
Y02184D01*
X04434Y02236D01*
X0449151D01*
X04241Y02521D02*
X0430733D01*
X0434503Y0220203D02*
Y0228812D01*
X0426547Y0260347D02*
Y0266332D01*
X04229Y01978D02*
X04256Y01951D01*
X04229Y01978D02*
Y0202D01*
X04256Y01951D02*
X04358D01*
X04382Y01975D01*
X0461653Y0199753D02*
X047274Y021084D01*
Y02237D01*
X0444712Y0199753D02*
X0461653D01*
X0494712D02*
Y02236D01*
X04889D02*
X0494712D01*
X04493Y0233849D02*
X0457501D01*
X0432028Y0217728D02*
X0434503Y0220203D01*
X0432028Y0210094D02*
Y0217728D01*
Y0202128D02*
Y0210094D01*
X04319Y0202D02*
X0432028Y0202128D01*
X0416Y02186D02*
X04199D01*
X04159Y0210399D02*
Y02185D01*
X0416Y02186D01*
X0422972Y0203556D02*
Y0210094D01*
X0458151Y02236D02*
X0458251Y02237D01*
X046526D01*
X047274D02*
X047284Y02236D01*
X04799D01*
X04623Y0257354D02*
X0463415D01*
X0462272Y0257327D02*
X04623Y0257354D01*
X0440673Y0257327D02*
X0462272D01*
X04805Y02762D02*
Y02877D01*
X0440327Y0266366D02*
X0466115D01*
X047071Y026641D02*
X04805Y02762D01*
X0466115Y026641D02*
X047071D01*
X03412Y02793D02*
Y0295425D01*
X03465D01*
X03412D02*
Y0322586D01*
Y02793D02*
X0345224Y0275276D01*
X0389209Y03256D02*
X04129D01*
X0388809Y0336D02*
X0397209Y03276D01*
X04142D02*
X0424579Y0317221D01*
X03412Y0322586D02*
X0410489D01*
X0397209Y03276D02*
X04142D01*
X03785Y0336D02*
X0378809D01*
X04129Y03256D02*
X042261Y031589D01*
X0411027Y0317D02*
Y0322047D01*
X0378809Y0336D02*
X0389209Y03256D01*
X0410489Y0322586D02*
X0411027Y0322047D01*
X03885Y0336D02*
X0388809D01*
X03412Y0322586D02*
Y0335414D01*
X0371Y0359D02*
Y037476D01*
X03412Y03492D02*
X036676Y037476D01*
X0371D02*
X048274D01*
X036676D02*
X0371D01*
X04356Y03233D02*
X0435714Y0323414D01*
X0439014D01*
X04433Y03277D01*
Y03393D01*
X04462Y03422D01*
X04799D01*
X04805Y03238D02*
X04834Y03267D01*
X04805Y03182D02*
X0503712D01*
X04834Y03267D02*
Y03387D01*
X04805Y03184D02*
Y03238D01*
X04799Y03422D02*
X04834Y03387D01*
X03985Y0336D02*
X04049Y03296D01*
X0428D01*
X04311Y03265D01*
Y03177D02*
Y03265D01*
X0428516Y0315116D02*
X04311Y03177D01*
X0428516Y0299634D02*
Y0315116D01*
X0430484Y0299634D02*
Y0307484D01*
X04485Y03255D01*
Y0336D01*
X0426547Y0299634D02*
Y0323247D01*
X04266Y03233D01*
X0432453Y0299634D02*
Y0306353D01*
X04427Y03166D02*
X0449419D01*
X0432453Y0306353D02*
X04427Y03166D01*
X04589Y03142D02*
X04685Y03238D01*
X04431Y03142D02*
X04589D01*
X0434421Y0305521D02*
X04431Y03142D01*
X0449419Y03166D02*
X0458394Y0325575D01*
Y0335894D01*
X0434421Y0299634D02*
Y0305521D01*
X04685Y03238D02*
Y0336D01*
X0463Y03119D02*
X04785Y03274D01*
X04449Y03119D02*
X0463D01*
X04785Y03274D02*
Y0336D01*
X0436424Y0303424D02*
X04449Y03119D01*
X0458394Y0335894D02*
X04585Y0336D01*
X0436424Y0299669D02*
Y0303424D01*
X03655Y01195D02*
Y01278D01*
X03739Y02667D02*
Y02734D01*
X0372024Y0275276D02*
X03739Y02734D01*
X0369679Y0275276D02*
X0372024D01*
X0374199Y0266401D02*
X0389403D01*
X0412866Y0293827D02*
Y0299634D01*
X0403547Y0304253D02*
Y0308912D01*
X0408166Y0299634D02*
X0412866D01*
X0418673D01*
X0403547Y0304253D02*
X0408166Y0299634D01*
X0403547Y0308912D02*
Y0317D01*
X0457847Y03036D02*
X04579D01*
X0452D02*
X0457847D01*
X0446134Y0293827D02*
X04579D01*
X0360624Y0234938D02*
Y0275276D01*
X0359983Y0234298D02*
X0360624Y0234938D01*
X0359733Y01955D02*
Y0234048D01*
X04885Y0355578D02*
X0497521D01*
X0503712Y03359D02*
Y0349388D01*
X0497521Y0355578D02*
X0503712Y0349388D01*
Y03182D02*
Y03359D01*
X0503612Y0336D02*
X0503712Y03359D01*
X04985Y0336D02*
X0503612D01*
X04872Y0363666D02*
Y03703D01*
X0488348Y035573D02*
X04885Y0355578D01*
X0488348Y035573D02*
Y0359052D01*
X0487207Y0360193D02*
X0488348Y0359052D01*
X04872Y0363666D02*
X0487207Y0363659D01*
Y0360193D02*
Y0363659D01*
X048274Y037476D02*
X04872Y03703D01*
X03412Y0335414D02*
Y03492D01*
X0341786Y0336D02*
X03485D01*
X03412Y0335414D02*
X0341786Y0336D01*
X04112Y03134D02*
X0412214Y0312386D01*
Y03093D02*
Y0312386D01*
X04112Y03134D02*
Y0316827D01*
X0412214Y03093D02*
X0412602Y0308912D01*
X0411027Y0317D02*
X04112Y0316827D01*
X0401147Y0280047D02*
X0412866D01*
X0389403Y0273882D02*
X039749D01*
X0397667Y0274059D01*
Y0276567D01*
X0401147Y0280047D01*
X04642Y02858D02*
X0466627Y0288227D01*
X04562Y02858D02*
X04642D01*
X0466627Y0288227D02*
Y0293624D01*
X0457847Y02939D02*
Y03036D01*
X0466903Y02939D02*
Y03036D01*
X0466627Y0293624D02*
X0466903Y02939D01*
X0359483Y0173601D02*
X036976D01*
X0351685D02*
X0359483D01*
X0450142Y0291858D02*
X04562Y02858D01*
X0446134Y0291858D02*
X0450142D01*
X04739Y02919D02*
X04805Y02985D01*
X04739Y02866D02*
Y02919D01*
X04563Y02832D02*
X04705D01*
X044961Y028989D02*
X04563Y02832D01*
X04705D02*
X04739Y02866D01*
X0440327Y0304427D02*
X04442Y03083D01*
X04805D01*
X0446134Y028989D02*
X044961D01*
X0440327Y0299634D02*
Y0304427D01*
X03492Y01465D02*
Y0171116D01*
X0351685Y0173601D01*
X0359483D02*
X0359483Y0173601D01*
Y018346D01*
X0359733Y018371D01*
X0352576Y0143124D02*
X0358639D01*
X03492Y01465D02*
X0352576Y0143124D01*
X0358639Y0134661D02*
Y0143124D01*
Y0134661D02*
X03655Y01278D01*
X0380574Y0302234D02*
X0381525Y0303185D01*
X0341155Y030763D02*
X0359D01*
X03465Y028637D02*
X0359D01*
X0424579Y0299634D02*
Y0317221D01*
X043639Y0299634D02*
X0436424Y0299669D01*
X0382618Y0273882D02*
X0389403D01*
X03475Y0259134D02*
Y02665D01*
X0389403Y0266401D02*
X03895Y0266304D01*
X0386284Y0282016D02*
X0412866D01*
X03715Y02865D02*
X03818D01*
X0386284Y0282016D01*
X0388569Y0290569D02*
X0395155Y0283984D01*
X0412866D01*
X0408447Y0285953D02*
X0412866D01*
X04044Y029D02*
X0408447Y0285953D01*
X04044Y029D02*
Y0295459D01*
X0388569Y0290569D02*
Y0294754D01*
X0380574D02*
X0388569D01*
X0397231Y0301447D02*
X0398412D01*
X04044Y0295459D01*
X0397231Y0301447D02*
Y0308845D01*
X04045Y02695D02*
Y02752D01*
X039749Y0266401D02*
X0401401D01*
X04045Y02695D01*
X0407379Y0278079D02*
X0412866D01*
X04045Y02752D02*
X0407379Y0278079D01*
X0376Y02805D02*
X0382618Y0273882D01*
X036506Y02805D02*
X0376D01*
X0389506Y03086D02*
X0389751Y0308845D01*
X0438358Y0259642D02*
X0440673Y0257327D01*
X0438358Y0259642D02*
Y0266366D01*
X03731Y01911D02*
X0379Y0197D01*
X0385947D01*
X03731Y0177728D02*
Y01911D01*
X0386469Y0196463D02*
X038699Y0195941D01*
X0371327Y0298D02*
Y0306827D01*
X0345224Y0275276D02*
X0360624D01*
X034717Y022D02*
X0353D01*
X0347Y022017D02*
X034717Y022D01*
X0359733Y018371D02*
Y01955D01*
X0347D02*
X0359733D01*
Y0234048D02*
X0359983Y0234298D01*
X0347666D02*
X0359983D01*
X03475Y0234464D02*
X0347666Y0234298D01*
X0360624Y0276064D02*
X036506Y02805D01*
X0359Y028637D02*
X037137D01*
X03715Y02865D01*
X0360624Y0275276D02*
Y0276064D01*
X036976Y0173601D02*
Y0174388D01*
X03731Y0177728D01*
X0368972Y0172026D02*
X036976Y0172813D01*
Y0173601D01*
X0368972Y0165513D02*
Y0172026D01*
X0417388Y0308912D02*
X0420642Y0305658D01*
X0412602Y0308912D02*
X0417388D01*
X0420642Y0299634D02*
Y0305658D01*
X042261Y0299634D02*
Y031589D01*
X0426513Y0266332D02*
X0426547Y0266366D01*
D20*
X0418673Y0299634D02*
D03*
X0420642D02*
D03*
X042261D02*
D03*
X0424579D02*
D03*
X0426547D02*
D03*
X0428516D02*
D03*
X0430484D02*
D03*
X0432453D02*
D03*
X0434421D02*
D03*
X043639D02*
D03*
X0438358D02*
D03*
X0440327D02*
D03*
Y0266366D02*
D03*
X0438358D02*
D03*
X043639D02*
D03*
X0434421D02*
D03*
X0432453D02*
D03*
X0430484D02*
D03*
X0428516D02*
D03*
X0426547D02*
D03*
X0424579D02*
D03*
X042261D02*
D03*
X0420642D02*
D03*
X0418673D02*
D03*
D21*
X0446134Y0293827D02*
D03*
Y0291858D02*
D03*
Y028989D02*
D03*
Y0287921D02*
D03*
Y0285953D02*
D03*
Y0283984D02*
D03*
Y0282016D02*
D03*
Y0280047D02*
D03*
Y0278079D02*
D03*
Y027611D02*
D03*
Y0274142D02*
D03*
Y0272173D02*
D03*
X0412866D02*
D03*
Y0274142D02*
D03*
Y027611D02*
D03*
Y0278079D02*
D03*
Y0280047D02*
D03*
Y0282016D02*
D03*
Y0283984D02*
D03*
Y0285953D02*
D03*
Y0287921D02*
D03*
Y028989D02*
D03*
Y0291858D02*
D03*
Y0293827D02*
D03*
D22*
X0369038Y0257329D02*
D03*
X0368538Y0206492D02*
D03*
D23*
X0359983Y0234298D02*
D03*
X0369038D02*
D03*
X0378094D02*
D03*
X0359483Y018346D02*
D03*
X0368538D02*
D03*
X0377593D02*
D03*
D24*
X04889Y02236D02*
D03*
X04799D02*
D03*
X04159Y0210399D02*
D03*
X04069D02*
D03*
X0416Y02186D02*
D03*
X0407D02*
D03*
X04319Y0202D02*
D03*
X04229D02*
D03*
X039651Y0252045D02*
D03*
X040551D02*
D03*
X04151Y02521D02*
D03*
X04241D02*
D03*
X04885Y0347D02*
D03*
X04795D02*
D03*
X0458151Y02236D02*
D03*
X0449151D02*
D03*
X04266Y03233D02*
D03*
X04356D02*
D03*
D25*
X039648Y0243951D02*
D03*
X0405535D02*
D03*
X0422972Y0210094D02*
D03*
X0432028D02*
D03*
X047274Y02237D02*
D03*
X046526D02*
D03*
X0479445Y0355578D02*
D03*
X04885D02*
D03*
X0479445Y0363666D02*
D03*
X0486925D02*
D03*
X0438889Y02521D02*
D03*
X0431409D02*
D03*
X0395524Y0196463D02*
D03*
X0386469D02*
D03*
X0395524Y0188375D02*
D03*
X0388043D02*
D03*
X0378028Y0165513D02*
D03*
X0368972D02*
D03*
X037724Y0173601D02*
D03*
X036976D02*
D03*
X0369038Y0275276D02*
D03*
X0359983D02*
D03*
X0369038Y0267189D02*
D03*
X0361558D02*
D03*
X0369093Y0224439D02*
D03*
X0360038D02*
D03*
X0368306Y0216351D02*
D03*
X0360826D02*
D03*
X0403547Y0317D02*
D03*
X0411027D02*
D03*
X0403547Y0308912D02*
D03*
X0412602D02*
D03*
X0457847Y03036D02*
D03*
X0466903D02*
D03*
X0457847Y02939D02*
D03*
X0466903D02*
D03*
X0397231Y0308845D02*
D03*
X0389751D02*
D03*
D26*
X04493Y0233849D02*
D03*
Y0242849D02*
D03*
X0457501Y0233849D02*
D03*
Y0242849D02*
D03*
X04307Y01605D02*
D03*
Y01515D02*
D03*
X03475Y0234464D02*
D03*
Y0243464D02*
D03*
X0347Y01955D02*
D03*
Y02045D02*
D03*
X03715Y02865D02*
D03*
Y02955D02*
D03*
D27*
X0415054Y0228924D02*
D03*
Y0233924D02*
D03*
Y0238924D02*
D03*
Y0243924D02*
D03*
X0434503D02*
D03*
Y0238924D02*
D03*
Y0233924D02*
D03*
Y0228924D02*
D03*
D28*
X0388569Y0294754D02*
D03*
Y0301447D02*
D03*
X0397231Y0294754D02*
D03*
Y0301447D02*
D03*
D29*
X04055Y0158256D02*
D03*
X04105D02*
D03*
X04155D02*
D03*
X04205D02*
D03*
Y0177744D02*
D03*
X04155D02*
D03*
X04105D02*
D03*
X04055D02*
D03*
D30*
X0359Y030763D02*
D03*
Y028637D02*
D03*
D31*
X03745Y0140792D02*
D03*
Y0157327D02*
D03*
D32*
X03475Y0250866D02*
D03*
Y0259134D02*
D03*
X0347Y0211902D02*
D03*
Y022017D02*
D03*
D33*
X0358639Y0143124D02*
D03*
Y0160447D02*
D03*
D34*
X04307Y0168472D02*
D03*
Y0177528D02*
D03*
X0395524D02*
D03*
Y0168472D02*
D03*
X0463415Y026641D02*
D03*
Y0257354D02*
D03*
X0455328Y0266382D02*
D03*
Y0257327D02*
D03*
X039749Y0266401D02*
D03*
Y0273882D02*
D03*
X0389403Y0266401D02*
D03*
Y0273882D02*
D03*
X03465Y028637D02*
D03*
Y0295425D02*
D03*
X0380574Y0294754D02*
D03*
Y0302234D02*
D03*
D63*
X04069Y02286D02*
X040695Y022855D01*
X04074Y0228924D02*
X0415054D01*
X0407076Y02286D02*
X04074Y0228924D01*
X04069Y02286D02*
X0407076D01*
X040695Y021865D02*
Y022855D01*
X0368538Y0206492D02*
Y0223096D01*
X0464251Y0242849D02*
X04643Y02428D01*
X0457501Y0242849D02*
X0464251D01*
X040695Y021865D02*
X0407Y02186D01*
X0375438Y0224439D02*
X0378Y0227D01*
X0369093Y0224439D02*
X0375438D01*
X0378Y0227D02*
Y0234204D01*
X0369093Y0223651D02*
Y0224778D01*
X037724Y0183107D02*
X0377593Y018346D01*
X037724Y0173601D02*
Y0183107D01*
X0378028Y0159128D02*
Y0166301D01*
X037724Y0167088D02*
Y0172813D01*
Y0167088D02*
X0378028Y0166301D01*
X0372773Y01556D02*
X03745Y0157327D01*
X0362403Y01556D02*
X0372773D01*
X03745Y0157327D02*
X0376226D01*
X0358639Y0159364D02*
X0362403Y01556D01*
X0358639Y0159364D02*
Y0160447D01*
X0390908Y0206492D02*
X0395524Y0201876D01*
X0368538Y0206492D02*
X0390908D01*
X0395524Y0188375D02*
Y0201876D01*
Y0178747D02*
Y0188375D01*
X0369038Y0234298D02*
Y0275276D01*
X03912Y03475D02*
X04548D01*
X0470966Y0363666D02*
X0479445D01*
X04548Y03475D02*
X0470966Y0363666D01*
X037Y03475D02*
X03912D01*
X0391Y03477D02*
Y0359D01*
Y03477D02*
X03912Y03475D01*
X0390978Y0358978D02*
X0391Y0359D01*
X0479445Y0356366D02*
Y0362357D01*
X0395524Y0178747D02*
X0396743Y0177528D01*
X0405431D01*
X0479472Y0347028D02*
Y0355551D01*
X0479445Y0355578D02*
X0479472Y0355551D01*
Y0347028D02*
X04795Y0347D01*
X04885Y0336D02*
Y0347D01*
X03585Y0336D02*
X037Y03475D01*
X0368538Y0223096D02*
X0369093Y0223651D01*
X0405431Y0177528D02*
X04055Y0177596D01*
Y0177744D01*
X0368538Y018346D02*
Y0206492D01*
X0376226Y0157327D02*
X0378028Y0159128D01*
D64*
X04307Y01605D02*
X0445D01*
D65*
X0385Y012D02*
Y0120984D01*
X03745Y01305D02*
Y0140792D01*
X0383079Y0121921D02*
X0384063D01*
X0385Y0120984D01*
X03745Y01305D02*
X0383079Y0121921D01*
X0347Y02045D02*
Y0211902D01*
X03475Y0243464D02*
X034754D01*
X03475Y0250866D02*
X034754Y0250826D01*
Y0243464D02*
Y0250826D01*
D66*
X04805Y02884D02*
D03*
Y02985D02*
D03*
Y03083D02*
D03*
Y03184D02*
D03*
D67*
X0499801Y0367D02*
D03*
X0346D02*
D03*
X0499801Y01205D02*
D03*
X0346D02*
D03*
D68*
X0494712Y0199753D02*
D03*
X0444712D02*
D03*
X0445Y01605D02*
D03*
D69*
X0495D02*
D03*
D70*
X0372038Y0254377D02*
D03*
Y0256345D02*
D03*
Y0258314D02*
D03*
Y0260282D02*
D03*
Y0256345D02*
D03*
Y0258314D02*
D03*
Y0260282D02*
D03*
X037007Y0254377D02*
D03*
Y0256345D02*
D03*
Y0258314D02*
D03*
Y0260282D02*
D03*
X0368101Y0254377D02*
D03*
Y0256345D02*
D03*
Y0258314D02*
D03*
Y0260282D02*
D03*
X0366133Y0254377D02*
D03*
Y0256345D02*
D03*
Y0258314D02*
D03*
Y0260282D02*
D03*
X0371538Y0203539D02*
D03*
Y0205507D02*
D03*
Y0207476D02*
D03*
Y0209444D02*
D03*
Y0205507D02*
D03*
Y0207476D02*
D03*
Y0209444D02*
D03*
X036957Y0203539D02*
D03*
Y0205507D02*
D03*
Y0207476D02*
D03*
Y0209444D02*
D03*
X0367601Y0203539D02*
D03*
Y0205507D02*
D03*
Y0207476D02*
D03*
Y0209444D02*
D03*
X0365633Y0203539D02*
D03*
Y0205507D02*
D03*
Y0207476D02*
D03*
Y0209444D02*
D03*
D71*
X03974Y0233924D02*
D03*
Y0222923D02*
D03*
D72*
X0371Y0359D02*
D03*
X0381D02*
D03*
D73*
X0391D02*
D03*
D74*
X04857Y02621D02*
D03*
Y02521D02*
D03*
D75*
Y02421D02*
D03*
D76*
X0481Y01195D02*
D03*
X0461D02*
D03*
X043325D02*
D03*
X041325D02*
D03*
X03855D02*
D03*
X03655D02*
D03*
D77*
X04985Y0336D02*
D03*
X04885D02*
D03*
X04785D02*
D03*
X04685D02*
D03*
X04485D02*
D03*
X04285D02*
D03*
X04185D02*
D03*
X03985D02*
D03*
X03885D02*
D03*
X03785D02*
D03*
X03585D02*
D03*
X03685D02*
D03*
X04085D02*
D03*
X04385D02*
D03*
X04585D02*
D03*
D78*
X03485D02*
D03*
D79*
X04069Y02286D02*
D03*
X03898Y03172D02*
D03*
X04643Y02428D02*
D03*
X0452Y03036D02*
D03*
X03475Y02665D02*
D03*
X03739Y02667D02*
D03*
X0353Y022D02*
D03*
M02*
