G04*
G04 #@! TF.GenerationSoftware,Altium Limited,Altium Designer,21.9.2 (33)*
G04*
G04 Layer_Physical_Order=2*
G04 Layer_Color=16711680*
%FSTAX25Y25*%
%MOIN*%
G70*
G04*
G04 #@! TF.SameCoordinates,0F4E3B0E-42B1-4E8D-80DC-DAFE1E1038FA*
G04*
G04*
G04 #@! TF.FilePolarity,Positive*
G04*
G01*
G75*
%ADD14C,0.01000*%
%ADD63C,0.02500*%
%ADD66O,0.07500X0.06500*%
%ADD67C,0.13800*%
%ADD68C,0.06299*%
%ADD69R,0.06299X0.06299*%
%ADD70C,0.00787*%
%ADD71C,0.08000*%
%ADD72O,0.06299X0.07874*%
%ADD73R,0.06299X0.07874*%
%ADD74O,0.07874X0.06299*%
%ADD75R,0.07874X0.06299*%
%ADD76R,0.07874X0.09843*%
%ADD77C,0.05984*%
%ADD78R,0.05984X0.05984*%
%ADD79C,0.03150*%
G36*
X0506961Y0371404D02*
X0506461Y0371252D01*
X0505937Y0372036D01*
X0504837Y0373136D01*
X0503543Y0374001D01*
X0502105Y0374596D01*
X0500579Y03749D01*
X0499023D01*
X0497497Y0374596D01*
X0496059Y0374001D01*
X0494765Y0373136D01*
X0493665Y0372036D01*
X04928Y0370742D01*
X0492205Y0369304D01*
X0491901Y0367778D01*
Y0366222D01*
X0492205Y0364696D01*
X04928Y0363258D01*
X0493665Y0361964D01*
X0494765Y0360864D01*
X0496059Y0359999D01*
X0497497Y0359404D01*
X0499023Y03591D01*
X0500579D01*
X0502105Y0359404D01*
X0503543Y0359999D01*
X0504837Y0360864D01*
X0505937Y0361964D01*
X0506461Y0362748D01*
X0506961Y0362596D01*
Y0217922D01*
X0436982D01*
Y01667D01*
X03953D01*
Y0101539D01*
X0338539D01*
Y0116272D01*
X0338655Y0116373D01*
X0339314Y0116286D01*
X0339864Y0115464D01*
X0340964Y0114364D01*
X0342258Y0113499D01*
X0343696Y0112904D01*
X0345222Y01126D01*
X0346778D01*
X0348304Y0112904D01*
X0349742Y0113499D01*
X0351036Y0114364D01*
X0352136Y0115464D01*
X0353001Y0116758D01*
X0353596Y0118196D01*
X03539Y0119722D01*
Y0121278D01*
X0353596Y0122804D01*
X0353001Y0124242D01*
X0352136Y0125536D01*
X0351036Y0126636D01*
X0349742Y0127501D01*
X0348304Y0128096D01*
X0346778Y01284D01*
X0345222D01*
X0343696Y0128096D01*
X0342258Y0127501D01*
X0340964Y0126636D01*
X0339864Y0125536D01*
X0339314Y0124714D01*
X0338655Y0124627D01*
X0338539Y0124728D01*
Y0224763D01*
X0339001Y0224955D01*
X0345578Y0218378D01*
X0346322Y0217881D01*
X03472Y0217706D01*
X034738D01*
Y01684D01*
X0347458Y016801D01*
X0347679Y0167679D01*
X034801Y0167458D01*
X03484Y016738D01*
X0387449D01*
X0387641Y0167419D01*
X0387833Y0167456D01*
X0387836Y0167457D01*
X0387839Y0167458D01*
X0388002Y0167567D01*
X0388166Y0167675D01*
X0388167Y0167677D01*
X038817Y0167679D01*
X0388278Y0167841D01*
X0388389Y0168004D01*
X0388389Y0168007D01*
X0388391Y016801D01*
X0388429Y0168202D01*
X0388469Y0168394D01*
X0388801Y0223194D01*
X03888Y0223197D01*
X0388801Y02232D01*
X0388763Y0223392D01*
X0388725Y0223585D01*
X0388724Y0223587D01*
X0388723Y022359D01*
X0388615Y0223753D01*
X0388507Y0223917D01*
X0388504Y0223918D01*
X0388502Y0223921D01*
X038834Y022403D01*
X0388177Y022414D01*
X0388174Y022414D01*
X0388171Y0224142D01*
X0387979Y022418D01*
X0387787Y022422D01*
X0387784Y0224219D01*
X0387781Y022422D01*
X03484Y022422D01*
X034801Y0224142D01*
X0347679Y0223921D01*
X0347499Y0223652D01*
X034729Y0223565D01*
X0346933Y0223512D01*
X0342194Y022825D01*
Y031645D01*
X0357799Y0332055D01*
X0357974Y0332008D01*
X0359026D01*
X0360041Y033228D01*
X0360951Y0332805D01*
X0361695Y0333549D01*
X036222Y0334459D01*
X0362492Y0335474D01*
Y0336526D01*
X036222Y0337541D01*
X0361695Y0338451D01*
X0360951Y0339194D01*
X0360041Y033972D01*
X0359026Y0339992D01*
X0357974D01*
X0356959Y033972D01*
X0356049Y0339194D01*
X0355306Y0338451D01*
X035478Y0337541D01*
X0354508Y0336526D01*
Y0335474D01*
X0354555Y0335299D01*
X0352954Y0333698D01*
X0352492Y033389D01*
Y03355D01*
X0349D01*
Y0332008D01*
X035061D01*
X0350802Y0331546D01*
X0339001Y0319745D01*
X0338539Y0319937D01*
Y0362772D01*
X0338655Y0362873D01*
X0339314Y0362786D01*
X0339864Y0361964D01*
X0340964Y0360864D01*
X0342258Y0359999D01*
X0343696Y0359404D01*
X0345222Y03591D01*
X0346778D01*
X0348304Y0359404D01*
X0349742Y0359999D01*
X0351036Y0360864D01*
X0352136Y0361964D01*
X0353001Y0363258D01*
X0353596Y0364696D01*
X03539Y0366222D01*
Y0367778D01*
X0353596Y0369304D01*
X0353001Y0370742D01*
X0352136Y0372036D01*
X0351036Y0373136D01*
X0349742Y0374001D01*
X0348304Y0374596D01*
X0346778Y03749D01*
X0345222D01*
X0343696Y0374596D01*
X0342258Y0374001D01*
X0340964Y0373136D01*
X0339864Y0372036D01*
X0339314Y0371214D01*
X0338655Y0371127D01*
X0338539Y0371228D01*
Y0379461D01*
X0506961D01*
Y0371404D01*
D02*
G37*
G36*
X0387781Y02232D02*
X0387449Y01684D01*
X03484D01*
Y02232D01*
X0387781Y02232D01*
D02*
G37*
%LPC*%
G36*
X03715Y0363907D02*
Y03595D01*
X0375185D01*
Y0359787D01*
X0375043Y0360871D01*
X0374625Y036188D01*
X0373959Y0362747D01*
X0373093Y0363412D01*
X0372083Y036383D01*
X03715Y0363907D01*
D02*
G37*
G36*
X03705D02*
X0369917Y036383D01*
X0368907Y0363412D01*
X036804Y0362747D01*
X0367375Y036188D01*
X0366957Y0360871D01*
X0366815Y0359787D01*
Y03595D01*
X03705D01*
Y0363907D01*
D02*
G37*
G36*
X0381Y0363973D02*
X0379917Y036383D01*
X0378907Y0363412D01*
X0378041Y0362747D01*
X0377375Y036188D01*
X0376957Y0360871D01*
X0376815Y0359787D01*
Y0358213D01*
X0376833Y0358077D01*
X0375371Y0356615D01*
X0374947Y0356899D01*
X0375043Y0357129D01*
X0375185Y0358213D01*
Y03585D01*
X03715D01*
Y0354093D01*
X0372083Y035417D01*
X0372314Y0354265D01*
X0372597Y0353841D01*
X0366878Y0348122D01*
X0366381Y0347378D01*
X0366206Y03465D01*
Y0339285D01*
X0366049Y0339194D01*
X0365305Y0338451D01*
X036478Y0337541D01*
X0364508Y0336526D01*
Y0335474D01*
X036478Y0334459D01*
X0365305Y0333549D01*
X0366049Y0332805D01*
X0366959Y033228D01*
X0367974Y0332008D01*
X0369026D01*
X0370041Y033228D01*
X0370951Y0332805D01*
X0371694Y0333549D01*
X037222Y0334459D01*
X0372492Y0335474D01*
Y0336526D01*
X037222Y0337541D01*
X0371694Y0338451D01*
X0370951Y0339194D01*
X0370794Y0339285D01*
Y034555D01*
X0379561Y0354317D01*
X0379917Y035417D01*
X0381Y0354027D01*
X0382083Y035417D01*
X0383093Y0354588D01*
X038396Y0355253D01*
X0384625Y035612D01*
X0385043Y0357129D01*
X0385185Y0358213D01*
Y0359787D01*
X0385043Y0360871D01*
X0384625Y036188D01*
X038396Y0362747D01*
X0383093Y0363412D01*
X0382083Y036383D01*
X0381Y0363973D01*
D02*
G37*
G36*
X03705Y03585D02*
X0366815D01*
Y0358213D01*
X0366957Y0357129D01*
X0367375Y035612D01*
X036804Y0355253D01*
X0368907Y0354588D01*
X0369917Y035417D01*
X03705Y0354093D01*
Y03585D01*
D02*
G37*
G36*
X039515Y0363937D02*
X038685D01*
Y0354063D01*
X039515D01*
Y0363937D01*
D02*
G37*
G36*
X0499026Y0339992D02*
X0499D01*
Y03365D01*
X0502492D01*
Y0336526D01*
X050222Y0337541D01*
X0501694Y0338451D01*
X0500951Y0339194D01*
X0500041Y033972D01*
X0499026Y0339992D01*
D02*
G37*
G36*
X0498D02*
X0497974D01*
X0496959Y033972D01*
X0496049Y0339194D01*
X0495305Y0338451D01*
X049478Y0337541D01*
X0494508Y0336526D01*
Y03365D01*
X0498D01*
Y0339992D01*
D02*
G37*
G36*
X0352492D02*
X0349D01*
Y03365D01*
X0352492D01*
Y0339992D01*
D02*
G37*
G36*
X0348D02*
X0344508D01*
Y03365D01*
X0348D01*
Y0339992D01*
D02*
G37*
G36*
X0502492Y03355D02*
X0499D01*
Y0332008D01*
X0499026D01*
X0500041Y033228D01*
X0500951Y0332805D01*
X0501694Y0333549D01*
X050222Y0334459D01*
X0502492Y0335474D01*
Y03355D01*
D02*
G37*
G36*
X0498D02*
X0494508D01*
Y0335474D01*
X049478Y0334459D01*
X0495305Y0333549D01*
X0496049Y0332805D01*
X0496959Y033228D01*
X0497974Y0332008D01*
X0498D01*
Y03355D01*
D02*
G37*
G36*
X0489026Y0339992D02*
X0487974D01*
X0486959Y033972D01*
X0486049Y0339194D01*
X0485306Y0338451D01*
X048478Y0337541D01*
X0484508Y0336526D01*
Y0335474D01*
X048478Y0334459D01*
X0485306Y0333549D01*
X0486049Y0332805D01*
X0486959Y033228D01*
X0487974Y0332008D01*
X0489026D01*
X0490041Y033228D01*
X0490951Y0332805D01*
X0491694Y0333549D01*
X049222Y0334459D01*
X0492492Y0335474D01*
Y0336526D01*
X049222Y0337541D01*
X0491694Y0338451D01*
X0490951Y0339194D01*
X0490041Y033972D01*
X0489026Y0339992D01*
D02*
G37*
G36*
X0479026D02*
X0477974D01*
X0476959Y033972D01*
X0476049Y0339194D01*
X0475306Y0338451D01*
X047478Y0337541D01*
X0474508Y0336526D01*
Y0335474D01*
X047478Y0334459D01*
X0475306Y0333549D01*
X0476049Y0332805D01*
X0476959Y033228D01*
X0477974Y0332008D01*
X0479026D01*
X0480041Y033228D01*
X0480951Y0332805D01*
X0481695Y0333549D01*
X048222Y0334459D01*
X0482492Y0335474D01*
Y0336526D01*
X048222Y0337541D01*
X0481695Y0338451D01*
X0480951Y0339194D01*
X0480041Y033972D01*
X0479026Y0339992D01*
D02*
G37*
G36*
X0469026D02*
X0467974D01*
X0466959Y033972D01*
X0466049Y0339194D01*
X0465306Y0338451D01*
X046478Y0337541D01*
X0464508Y0336526D01*
Y0335474D01*
X046478Y0334459D01*
X0465306Y0333549D01*
X0466049Y0332805D01*
X0466959Y033228D01*
X0467974Y0332008D01*
X0469026D01*
X0470041Y033228D01*
X0470951Y0332805D01*
X0471695Y0333549D01*
X047222Y0334459D01*
X0472492Y0335474D01*
Y0336526D01*
X047222Y0337541D01*
X0471695Y0338451D01*
X0470951Y0339194D01*
X0470041Y033972D01*
X0469026Y0339992D01*
D02*
G37*
G36*
X0459026D02*
X0457974D01*
X0456959Y033972D01*
X0456049Y0339194D01*
X0455305Y0338451D01*
X045478Y0337541D01*
X0454508Y0336526D01*
Y0335474D01*
X045478Y0334459D01*
X0455305Y0333549D01*
X0456049Y0332805D01*
X0456959Y033228D01*
X0457974Y0332008D01*
X0459026D01*
X0460041Y033228D01*
X0460951Y0332805D01*
X0461694Y0333549D01*
X046222Y0334459D01*
X0462492Y0335474D01*
Y0336526D01*
X046222Y0337541D01*
X0461694Y0338451D01*
X0460951Y0339194D01*
X0460041Y033972D01*
X0459026Y0339992D01*
D02*
G37*
G36*
X0449026D02*
X0447974D01*
X0446959Y033972D01*
X0446049Y0339194D01*
X0445305Y0338451D01*
X044478Y0337541D01*
X0444508Y0336526D01*
Y0335474D01*
X044478Y0334459D01*
X0445305Y0333549D01*
X0446049Y0332805D01*
X0446959Y033228D01*
X0447974Y0332008D01*
X0449026D01*
X0450041Y033228D01*
X0450951Y0332805D01*
X0451694Y0333549D01*
X045222Y0334459D01*
X0452492Y0335474D01*
Y0336526D01*
X045222Y0337541D01*
X0451694Y0338451D01*
X0450951Y0339194D01*
X0450041Y033972D01*
X0449026Y0339992D01*
D02*
G37*
G36*
X0439026D02*
X0437974D01*
X0436959Y033972D01*
X0436049Y0339194D01*
X0435306Y0338451D01*
X043478Y0337541D01*
X0434508Y0336526D01*
Y0335474D01*
X043478Y0334459D01*
X0435306Y0333549D01*
X0436049Y0332805D01*
X0436959Y033228D01*
X0437974Y0332008D01*
X0439026D01*
X0440041Y033228D01*
X0440951Y0332805D01*
X0441694Y0333549D01*
X044222Y0334459D01*
X0442492Y0335474D01*
Y0336526D01*
X044222Y0337541D01*
X0441694Y0338451D01*
X0440951Y0339194D01*
X0440041Y033972D01*
X0439026Y0339992D01*
D02*
G37*
G36*
X0429026D02*
X0427974D01*
X0426959Y033972D01*
X0426049Y0339194D01*
X0425306Y0338451D01*
X042478Y0337541D01*
X0424508Y0336526D01*
Y0335474D01*
X042478Y0334459D01*
X0425306Y0333549D01*
X0426049Y0332805D01*
X0426959Y033228D01*
X0427974Y0332008D01*
X0429026D01*
X0430041Y033228D01*
X0430951Y0332805D01*
X0431695Y0333549D01*
X043222Y0334459D01*
X0432492Y0335474D01*
Y0336526D01*
X043222Y0337541D01*
X0431695Y0338451D01*
X0430951Y0339194D01*
X0430041Y033972D01*
X0429026Y0339992D01*
D02*
G37*
G36*
X0419026D02*
X0417974D01*
X0416959Y033972D01*
X0416049Y0339194D01*
X0415306Y0338451D01*
X041478Y0337541D01*
X0414508Y0336526D01*
Y0335474D01*
X041478Y0334459D01*
X0415306Y0333549D01*
X0416049Y0332805D01*
X0416959Y033228D01*
X0417974Y0332008D01*
X0419026D01*
X0420041Y033228D01*
X0420951Y0332805D01*
X0421695Y0333549D01*
X042222Y0334459D01*
X0422492Y0335474D01*
Y0336526D01*
X042222Y0337541D01*
X0421695Y0338451D01*
X0420951Y0339194D01*
X0420041Y033972D01*
X0419026Y0339992D01*
D02*
G37*
G36*
X0409026D02*
X0407974D01*
X0406959Y033972D01*
X0406049Y0339194D01*
X0405305Y0338451D01*
X040478Y0337541D01*
X0404508Y0336526D01*
Y0335474D01*
X040478Y0334459D01*
X0405305Y0333549D01*
X0406049Y0332805D01*
X0406959Y033228D01*
X0407974Y0332008D01*
X0409026D01*
X0410041Y033228D01*
X0410951Y0332805D01*
X0411694Y0333549D01*
X041222Y0334459D01*
X0412492Y0335474D01*
Y0336526D01*
X041222Y0337541D01*
X0411694Y0338451D01*
X0410951Y0339194D01*
X0410041Y033972D01*
X0409026Y0339992D01*
D02*
G37*
G36*
X0399026D02*
X0397974D01*
X0396959Y033972D01*
X0396049Y0339194D01*
X0395305Y0338451D01*
X039478Y0337541D01*
X0394508Y0336526D01*
Y0335474D01*
X039478Y0334459D01*
X0395305Y0333549D01*
X0396049Y0332805D01*
X0396959Y033228D01*
X0397974Y0332008D01*
X0399026D01*
X0400041Y033228D01*
X0400951Y0332805D01*
X0401694Y0333549D01*
X040222Y0334459D01*
X0402492Y0335474D01*
Y0336526D01*
X040222Y0337541D01*
X0401694Y0338451D01*
X0400951Y0339194D01*
X0400041Y033972D01*
X0399026Y0339992D01*
D02*
G37*
G36*
X0389026D02*
X0387974D01*
X0386959Y033972D01*
X0386049Y0339194D01*
X0385306Y0338451D01*
X038478Y0337541D01*
X0384508Y0336526D01*
Y0335474D01*
X038478Y0334459D01*
X0385306Y0333549D01*
X0386049Y0332805D01*
X0386959Y033228D01*
X0387974Y0332008D01*
X0389026D01*
X0390041Y033228D01*
X0390951Y0332805D01*
X0391694Y0333549D01*
X039222Y0334459D01*
X0392492Y0335474D01*
Y0336526D01*
X039222Y0337541D01*
X0391694Y0338451D01*
X0390951Y0339194D01*
X0390041Y033972D01*
X0389026Y0339992D01*
D02*
G37*
G36*
X0379026D02*
X0377974D01*
X0376959Y033972D01*
X0376049Y0339194D01*
X0375306Y0338451D01*
X037478Y0337541D01*
X0374508Y0336526D01*
Y0335474D01*
X037478Y0334459D01*
X0375306Y0333549D01*
X0376049Y0332805D01*
X0376959Y033228D01*
X0377974Y0332008D01*
X0379026D01*
X0380041Y033228D01*
X0380951Y0332805D01*
X0381695Y0333549D01*
X038222Y0334459D01*
X0382492Y0335474D01*
Y0336526D01*
X038222Y0337541D01*
X0381695Y0338451D01*
X0380951Y0339194D01*
X0380041Y033972D01*
X0379026Y0339992D01*
D02*
G37*
G36*
X0348Y03355D02*
X0344508D01*
Y0332008D01*
X0348D01*
Y03355D01*
D02*
G37*
G36*
X0481Y0322687D02*
D01*
Y03189D01*
X0485221D01*
X0485141Y031951D01*
X0484712Y0320543D01*
X0484031Y0321431D01*
X0483143Y0322112D01*
X0482109Y0322541D01*
X0481Y0322687D01*
D02*
G37*
G36*
X048D02*
X0478891Y0322541D01*
X0477857Y0322112D01*
X0476969Y0321431D01*
X0476288Y0320543D01*
X0475859Y031951D01*
X0475779Y03189D01*
X048D01*
Y0322687D01*
D02*
G37*
G36*
X0485221Y03179D02*
X0481D01*
Y0314113D01*
X0482109Y0314259D01*
X0483143Y0314688D01*
X0484031Y0315369D01*
X0484712Y0316257D01*
X0485141Y031729D01*
X0485221Y03179D01*
D02*
G37*
G36*
X048D02*
X0475779D01*
X0475859Y031729D01*
X0476288Y0316257D01*
X0476969Y0315369D01*
X0477857Y0314688D01*
X0478891Y0314259D01*
X048Y0314113D01*
D01*
Y03179D01*
D02*
G37*
G36*
X0481Y0312587D02*
X048D01*
X0478891Y0312441D01*
X0477857Y0312012D01*
X0476969Y0311331D01*
X0476288Y0310443D01*
X0475859Y0309409D01*
X0475713Y03083D01*
X0475859Y030719D01*
X0476288Y0306157D01*
X0476969Y0305269D01*
X0477857Y0304588D01*
X0478891Y0304159D01*
X048Y0304013D01*
X0481D01*
X0482109Y0304159D01*
X0483143Y0304588D01*
X0484031Y0305269D01*
X0484712Y0306157D01*
X0485141Y030719D01*
X0485287Y03083D01*
X0485141Y0309409D01*
X0484712Y0310443D01*
X0484031Y0311331D01*
X0483143Y0312012D01*
X0482109Y0312441D01*
X0481Y0312587D01*
D02*
G37*
G36*
Y0302787D02*
X048D01*
X0478891Y0302641D01*
X0477857Y0302212D01*
X0476969Y0301531D01*
X0476288Y0300643D01*
X0475859Y0299609D01*
X0475713Y02985D01*
X0475859Y0297391D01*
X0476288Y0296357D01*
X0476969Y0295469D01*
X0477857Y0294788D01*
X0478891Y0294359D01*
X048Y0294213D01*
X0481D01*
X0482109Y0294359D01*
X0483143Y0294788D01*
X0484031Y0295469D01*
X0484712Y0296357D01*
X0485141Y0297391D01*
X0485287Y02985D01*
X0485141Y0299609D01*
X0484712Y0300643D01*
X0484031Y0301531D01*
X0483143Y0302212D01*
X0482109Y0302641D01*
X0481Y0302787D01*
D02*
G37*
G36*
X0390139Y0319775D02*
X0389461D01*
X0388806Y0319599D01*
X0388219Y031926D01*
X038774Y0318781D01*
X0387401Y0318194D01*
X0387346Y031799D01*
X0372278Y0302922D01*
X037178Y0302178D01*
X0371606Y03013D01*
Y027672D01*
X03447Y027672D01*
X034431Y0276642D01*
X0343979Y0276421D01*
X0343758Y027609D01*
X034368Y02757D01*
Y02377D01*
X0343758Y023731D01*
X0343979Y0236979D01*
X034431Y0236758D01*
X03447Y023668D01*
X038739D01*
X0387582Y0236719D01*
X0387774Y0236756D01*
X0387777Y0236757D01*
X038778Y0236758D01*
X0387942Y0236867D01*
X0388106Y0236975D01*
X0388108Y0236977D01*
X0388111Y0236979D01*
X0388219Y0237142D01*
X0388329Y0237304D01*
X038833Y0237307D01*
X0388332Y023731D01*
X038837Y0237502D01*
X0388409Y0237694D01*
X0388426Y0240506D01*
X0403533D01*
X0403799Y0240459D01*
X0404019Y0240386D01*
X040418Y0240299D01*
X04043Y02402D01*
X0404399Y024008D01*
X0404486Y0239919D01*
X0404559Y0239699D01*
X0404606Y0239433D01*
Y0229776D01*
X0404501Y0229594D01*
X0404325Y0228939D01*
Y0228261D01*
X0404501Y0227606D01*
X040484Y0227019D01*
X0405319Y022654D01*
X0405906Y0226201D01*
X0406561Y0226025D01*
X0407239D01*
X0407894Y0226201D01*
X0408481Y022654D01*
X040896Y0227019D01*
X0409299Y0227606D01*
X0409475Y0228261D01*
Y0228939D01*
X0409299Y0229594D01*
X0409194Y0229776D01*
Y0239433D01*
X0409241Y0239699D01*
X0409314Y0239919D01*
X0409401Y024008D01*
X04095Y02402D01*
X040962Y0240299D01*
X0409781Y0240386D01*
X0410001Y0240459D01*
X0410267Y0240506D01*
X0463124D01*
X0463306Y0240401D01*
X0463961Y0240225D01*
X0464639D01*
X0465294Y0240401D01*
X0465881Y024074D01*
X046636Y0241219D01*
X0466699Y0241806D01*
X0466875Y0242461D01*
Y0243139D01*
X0466699Y0243794D01*
X046636Y0244381D01*
X0465881Y024486D01*
X0465294Y0245199D01*
X0464639Y0245375D01*
X0463961D01*
X0463306Y0245199D01*
X0463124Y0245094D01*
X0388809D01*
X0388456Y0245449D01*
X038864Y0275694D01*
X0388639Y0275697D01*
X038864Y02757D01*
X0388601Y0275892D01*
X0388564Y0276084D01*
X0388563Y0276087D01*
X0388562Y027609D01*
X0388453Y0276253D01*
X0388345Y0276417D01*
X0388343Y0276418D01*
X0388341Y0276421D01*
X0388178Y027653D01*
X0388016Y027664D01*
X0388013Y027664D01*
X038801Y0276642D01*
X0387818Y027668D01*
X0387626Y027672D01*
X0387623Y0276719D01*
X038762Y027672D01*
X0376194D01*
Y030035D01*
X0390591Y0314746D01*
X0390794Y0314801D01*
X0390976Y0314906D01*
X043745D01*
X0448421Y0303934D01*
X044823Y0303472D01*
X0409027D01*
Y0262528D01*
X0449972D01*
Y0301355D01*
X0450039Y0301382D01*
X0450472Y0301509D01*
X0451006Y0301201D01*
X0451209Y0301146D01*
X0465578Y0286778D01*
X0466322Y028628D01*
X04672Y0286106D01*
X0476403D01*
X0476969Y0285369D01*
X0477857Y0284688D01*
X0478891Y0284259D01*
X048Y0284113D01*
X0481D01*
X0482109Y0284259D01*
X0483143Y0284688D01*
X0484031Y0285369D01*
X0484712Y0286257D01*
X0485141Y0287291D01*
X0485287Y02884D01*
X0485141Y028951D01*
X0484712Y0290543D01*
X0484031Y0291431D01*
X0483143Y0292112D01*
X0482109Y0292541D01*
X0481Y0292687D01*
X048D01*
X0478891Y0292541D01*
X0477857Y0292112D01*
X0476969Y0291431D01*
X0476403Y0290694D01*
X046815D01*
X0454454Y0304391D01*
X0454399Y0304594D01*
X045406Y0305181D01*
X0453581Y030566D01*
X0452994Y0305999D01*
X045279Y0306054D01*
X0440022Y0318822D01*
X0439278Y031932D01*
X04384Y0319494D01*
X0390976D01*
X0390794Y0319599D01*
X0390139Y0319775D01*
D02*
G37*
G36*
X0486487Y0266285D02*
X04862D01*
Y02626D01*
X0490607D01*
X049053Y0263183D01*
X0490112Y0264193D01*
X0489447Y0265059D01*
X048858Y0265725D01*
X0487571Y0266143D01*
X0486487Y0266285D01*
D02*
G37*
G36*
X04852D02*
X0484913D01*
X0483829Y0266143D01*
X048282Y0265725D01*
X0481953Y0265059D01*
X0481288Y0264193D01*
X048087Y0263183D01*
X0480793Y02626D01*
X04852D01*
Y0266285D01*
D02*
G37*
G36*
X0490607Y02616D02*
X04862D01*
Y0257915D01*
X0486487D01*
X0487571Y0258057D01*
X048858Y0258475D01*
X0489447Y025914D01*
X0490112Y0260007D01*
X049053Y0261017D01*
X0490607Y02616D01*
D02*
G37*
G36*
X04852D02*
X0480793D01*
X048087Y0261017D01*
X0481288Y0260007D01*
X0481953Y025914D01*
X048282Y0258475D01*
X0483829Y0258057D01*
X0484913Y0257915D01*
X04852D01*
Y02616D01*
D02*
G37*
G36*
X0486487Y0256285D02*
X0484913D01*
X0483829Y0256143D01*
X048282Y0255725D01*
X0481953Y025506D01*
X0481288Y0254193D01*
X048087Y0253183D01*
X0480727Y02521D01*
X048087Y0251017D01*
X0481288Y0250007D01*
X0481953Y0249141D01*
X048282Y0248475D01*
X0483829Y0248057D01*
X0484913Y0247915D01*
X0486487D01*
X0487571Y0248057D01*
X048858Y0248475D01*
X0489447Y0249141D01*
X0490112Y0250007D01*
X049053Y0251017D01*
X0490673Y02521D01*
X049053Y0253183D01*
X0490112Y0254193D01*
X0489447Y025506D01*
X048858Y0255725D01*
X0487571Y0256143D01*
X0486487Y0256285D01*
D02*
G37*
G36*
X0490637Y024625D02*
X0480763D01*
Y023795D01*
X0490637D01*
Y024625D01*
D02*
G37*
G36*
X0398058Y0238924D02*
X0396742D01*
X039547Y0238583D01*
X039433Y0237925D01*
X0393399Y0236994D01*
X0392741Y0235854D01*
X03924Y0234582D01*
Y0233266D01*
X0392741Y0231994D01*
X0393399Y0230854D01*
X039433Y0229923D01*
X039547Y0229265D01*
X0396742Y0228924D01*
X0398058D01*
X039933Y0229265D01*
X040047Y0229923D01*
X0401401Y0230854D01*
X0402059Y0231994D01*
X04024Y0233266D01*
Y0234582D01*
X0402059Y0235854D01*
X0401401Y0236994D01*
X040047Y0237925D01*
X039933Y0238583D01*
X0398058Y0238924D01*
D02*
G37*
G36*
Y0227923D02*
X0396742D01*
X039547Y0227583D01*
X039433Y0226924D01*
X0393399Y0225993D01*
X0392741Y0224853D01*
X03924Y0223582D01*
Y0222265D01*
X0392741Y0220993D01*
X0393399Y0219853D01*
X039433Y0218922D01*
X039547Y0218264D01*
X0396742Y0217923D01*
X0398058D01*
X039933Y0218264D01*
X040047Y0218922D01*
X0401401Y0219853D01*
X0402059Y0220993D01*
X04024Y0222265D01*
Y0223582D01*
X0402059Y0224853D01*
X0401401Y0225993D01*
X040047Y0226924D01*
X039933Y0227583D01*
X0398058Y0227923D01*
D02*
G37*
G36*
X0370437Y0125421D02*
X0366D01*
Y012D01*
X0370437D01*
Y0125421D01*
D02*
G37*
G36*
X0365D02*
X0360563D01*
Y012D01*
X0365D01*
Y0125421D01*
D02*
G37*
G36*
X0390437D02*
X0380563D01*
Y0113579D01*
X0390437D01*
Y0125421D01*
D02*
G37*
G36*
X0370437Y0119D02*
X0366D01*
Y0113579D01*
X0370437D01*
Y0119D01*
D02*
G37*
G36*
X0365D02*
X0360563D01*
Y0113579D01*
X0365D01*
Y0119D01*
D02*
G37*
%LPD*%
G36*
X0450735Y0305581D02*
X0450847Y0305494D01*
X0450966Y0305418D01*
X0451092Y0305352D01*
X0451224Y0305296D01*
X0451363Y0305251D01*
X0451508Y0305216D01*
X045166Y0305192D01*
X0451819Y0305178D01*
X0451984Y0305175D01*
X0452Y03036D01*
X0450425Y0303616D01*
X0450422Y0303781D01*
X0450408Y030394D01*
X0450384Y0304092D01*
X0450349Y0304237D01*
X0450304Y0304376D01*
X0450248Y0304508D01*
X0450182Y0304634D01*
X0450106Y0304753D01*
X0450019Y0304865D01*
X0449922Y0304971D01*
X045063Y0305678D01*
X0450735Y0305581D01*
D02*
G37*
G36*
X0453575Y0303584D02*
X0453578Y0303419D01*
X0453592Y030326D01*
X0453616Y0303108D01*
X0453651Y0302963D01*
X0453696Y0302824D01*
X0453752Y0302692D01*
X0453818Y0302566D01*
X0453894Y0302447D01*
X0453981Y0302335D01*
X0454078Y0302229D01*
X0453371Y0301522D01*
X0453265Y0301619D01*
X0453153Y0301706D01*
X0453034Y0301782D01*
X0452908Y0301848D01*
X0452776Y0301904D01*
X0452637Y0301949D01*
X0452492Y0301984D01*
X045234Y0302008D01*
X0452181Y0302022D01*
X0452016Y0302025D01*
X0452Y03036D01*
X0453575Y0303584D01*
D02*
G37*
G36*
X041065Y024155D02*
X0410175Y0241525D01*
X040975Y024145D01*
X0409375Y0241325D01*
X040905Y024115D01*
X0408775Y0240925D01*
X040855Y024065D01*
X0408375Y0240325D01*
X040825Y023995D01*
X0408175Y0239525D01*
X040815Y023905D01*
X040565D01*
X0405625Y0239525D01*
X040555Y023995D01*
X0405425Y0240325D01*
X040525Y024065D01*
X0405025Y0240925D01*
X040475Y024115D01*
X0404425Y0241325D01*
X040405Y024145D01*
X0403625Y0241525D01*
X040315Y024155D01*
X04069Y024405D01*
X041065Y024155D01*
D02*
G37*
G36*
X038762Y02757D02*
X038739Y02377D01*
X03447D01*
Y02757D01*
X038762Y02757D01*
D02*
G37*
%LPC*%
G36*
X03744Y0269231D02*
Y02672D01*
X0376431D01*
X0376409Y0267372D01*
X0376149Y0267999D01*
X0375736Y0268536D01*
X0375199Y0268949D01*
X0374572Y0269209D01*
X03744Y0269231D01*
D02*
G37*
G36*
X03734D02*
X0373228Y0269209D01*
X0372602Y0268949D01*
X0372064Y0268536D01*
X0371651Y0267999D01*
X0371392Y0267372D01*
X0371369Y02672D01*
X03734D01*
Y0269231D01*
D02*
G37*
G36*
X0348Y0269031D02*
Y0267D01*
X0350031D01*
X0350009Y0267172D01*
X0349749Y0267798D01*
X0349336Y0268336D01*
X0348798Y0268749D01*
X0348172Y0269008D01*
X0348Y0269031D01*
D02*
G37*
G36*
X0347D02*
X0346828Y0269008D01*
X0346201Y0268749D01*
X0345664Y0268336D01*
X0345251Y0267798D01*
X0344991Y0267172D01*
X0344969Y0267D01*
X0347D01*
Y0269031D01*
D02*
G37*
G36*
X0376431Y02662D02*
X03744D01*
Y0264169D01*
X0374572Y0264192D01*
X0375199Y0264451D01*
X0375736Y0264864D01*
X0376149Y0265402D01*
X0376409Y0266028D01*
X0376431Y02662D01*
D02*
G37*
G36*
X03734D02*
X0371369D01*
X0371392Y0266028D01*
X0371651Y0265402D01*
X0372064Y0264864D01*
X0372602Y0264451D01*
X0373228Y0264192D01*
X03734Y0264169D01*
Y02662D01*
D02*
G37*
G36*
X0350031Y0266D02*
X0348D01*
Y0263969D01*
X0348172Y0263991D01*
X0348798Y0264251D01*
X0349336Y0264664D01*
X0349749Y0265201D01*
X0350009Y0265828D01*
X0350031Y0266D01*
D02*
G37*
G36*
X0347D02*
X0344969D01*
X0344991Y0265828D01*
X0345251Y0265201D01*
X0345664Y0264664D01*
X0346201Y0264251D01*
X0346828Y0263991D01*
X0347Y0263969D01*
Y0266D01*
D02*
G37*
G36*
X03535Y0222531D02*
Y02205D01*
X0355531D01*
X0355508Y0220672D01*
X0355249Y0221299D01*
X0354836Y0221836D01*
X0354298Y0222249D01*
X0353672Y0222509D01*
X03535Y0222531D01*
D02*
G37*
G36*
X03525D02*
X0352328Y0222509D01*
X0351701Y0222249D01*
X0351164Y0221836D01*
X0350751Y0221299D01*
X0350491Y0220672D01*
X0350469Y02205D01*
X03525D01*
Y0222531D01*
D02*
G37*
G36*
X0355531Y02195D02*
X03535D01*
Y0217469D01*
X0353672Y0217492D01*
X0354298Y0217751D01*
X0354836Y0218164D01*
X0355249Y0218702D01*
X0355508Y0219328D01*
X0355531Y02195D01*
D02*
G37*
G36*
X03525D02*
X0350469D01*
X0350491Y0219328D01*
X0350751Y0218702D01*
X0351164Y0218164D01*
X0351701Y0217751D01*
X0352328Y0217492D01*
X03525Y0217469D01*
Y02195D01*
D02*
G37*
%LPD*%
D14*
X0353Y022D02*
X035305Y022005D01*
D63*
X03399Y02273D02*
X03472Y022D01*
X03399Y03174D02*
X03585Y0336D01*
X03399Y02273D02*
Y03174D01*
X03472Y022D02*
X0353D01*
X0374925Y02428D02*
X04069D01*
X03739Y0243825D02*
Y0252499D01*
X0374682Y0253281D01*
X03739Y0243825D02*
X0374925Y02428D01*
X03739Y0262159D02*
Y02667D01*
Y0262159D02*
X0374682Y0261377D01*
Y0253281D02*
Y0261377D01*
X04069Y02428D02*
X04643D01*
X04069Y02286D02*
Y02428D01*
X03739Y03013D02*
X03898Y03172D01*
X03739Y02667D02*
Y03013D01*
X04384Y03172D02*
X04672Y02884D01*
X03898Y03172D02*
X04384D01*
X03738Y02666D02*
X03739Y02667D01*
X04672Y02884D02*
X04805D01*
X03476Y02666D02*
X03738D01*
X03475Y02665D02*
X03476Y02666D01*
X03685Y03465D02*
X0381Y0359D01*
X03685Y0336D02*
Y03465D01*
D66*
X04805Y02884D02*
D03*
Y02985D02*
D03*
Y03083D02*
D03*
Y03184D02*
D03*
D67*
X0499801Y0367D02*
D03*
X0346D02*
D03*
X0499801Y01205D02*
D03*
X0346D02*
D03*
D68*
X0494712Y0199753D02*
D03*
X0444712D02*
D03*
X0445Y01605D02*
D03*
D69*
X0495D02*
D03*
D70*
X0372038Y0254377D02*
D03*
Y0256345D02*
D03*
Y0258314D02*
D03*
Y0260282D02*
D03*
Y0256345D02*
D03*
Y0258314D02*
D03*
Y0260282D02*
D03*
X037007Y0254377D02*
D03*
Y0256345D02*
D03*
Y0258314D02*
D03*
Y0260282D02*
D03*
X0368101Y0254377D02*
D03*
Y0256345D02*
D03*
Y0258314D02*
D03*
Y0260282D02*
D03*
X0366133Y0254377D02*
D03*
Y0256345D02*
D03*
Y0258314D02*
D03*
Y0260282D02*
D03*
X0371538Y0203539D02*
D03*
Y0205507D02*
D03*
Y0207476D02*
D03*
Y0209444D02*
D03*
Y0205507D02*
D03*
Y0207476D02*
D03*
Y0209444D02*
D03*
X036957Y0203539D02*
D03*
Y0205507D02*
D03*
Y0207476D02*
D03*
Y0209444D02*
D03*
X0367601Y0203539D02*
D03*
Y0205507D02*
D03*
Y0207476D02*
D03*
Y0209444D02*
D03*
X0365633Y0203539D02*
D03*
Y0205507D02*
D03*
Y0207476D02*
D03*
Y0209444D02*
D03*
D71*
X03974Y0233924D02*
D03*
Y0222923D02*
D03*
D72*
X0371Y0359D02*
D03*
X0381D02*
D03*
D73*
X0391D02*
D03*
D74*
X04857Y02621D02*
D03*
Y02521D02*
D03*
D75*
Y02421D02*
D03*
D76*
X0481Y01195D02*
D03*
X0461D02*
D03*
X043325D02*
D03*
X041325D02*
D03*
X03855D02*
D03*
X03655D02*
D03*
D77*
X04985Y0336D02*
D03*
X04885D02*
D03*
X04785D02*
D03*
X04685D02*
D03*
X04485D02*
D03*
X04285D02*
D03*
X04185D02*
D03*
X03985D02*
D03*
X03885D02*
D03*
X03785D02*
D03*
X03585D02*
D03*
X03685D02*
D03*
X04085D02*
D03*
X04385D02*
D03*
X04585D02*
D03*
D78*
X03485D02*
D03*
D79*
X04069Y02286D02*
D03*
X03898Y03172D02*
D03*
X04643Y02428D02*
D03*
X0452Y03036D02*
D03*
X03475Y02665D02*
D03*
X03739Y02667D02*
D03*
X0353Y022D02*
D03*
M02*
