G04*
G04 #@! TF.GenerationSoftware,Altium Limited,Altium Designer,21.9.2 (33)*
G04*
G04 Layer_Color=16711935*
%FSTAX25Y25*%
%MOIN*%
G70*
G04*
G04 #@! TF.SameCoordinates,0F4E3B0E-42B1-4E8D-80DC-DAFE1E1038FA*
G04*
G04*
G04 #@! TF.FilePolarity,Positive*
G04*
G01*
G75*
%ADD12C,0.00787*%
%ADD13C,0.00394*%
%ADD16C,0.00500*%
G36*
X0347Y0215119D02*
X0348378Y0217217D01*
X0345622D01*
X0347Y0215119D01*
D02*
G37*
G36*
X03475Y0254083D02*
X0348878Y0256181D01*
X0346122D01*
X03475Y0254083D01*
D02*
G37*
D12*
X0441078Y0227349D02*
G03*
X0441078Y0227349I-0000394J0D01*
G01*
X0406032Y0152D02*
G03*
X0406032Y0152I-0000394J0D01*
G01*
D13*
X0421232Y0293236D02*
G03*
X0421232Y0293236I-0001969J0D01*
G01*
X041572Y026922D02*
X044328D01*
X041572Y0296779D02*
X044328D01*
Y026922D02*
Y0296779D01*
X041572Y026922D02*
Y0296779D01*
X0355849Y023853D02*
X0382227D01*
X0355849Y0253097D02*
X0382227D01*
X0355849Y023853D02*
Y0253097D01*
X0382227Y023853D02*
Y0253097D01*
X0355349Y0187692D02*
X0381727D01*
X0355349Y0202259D02*
X0381727D01*
X0355349Y0187692D02*
Y0202259D01*
X0381727Y0187692D02*
Y0202259D01*
X0397071Y024149D02*
Y0246411D01*
X0404945Y024149D02*
Y0246411D01*
X0397071D02*
X0404945D01*
X0397071Y024149D02*
X0404945D01*
X0423563Y0207634D02*
Y0212555D01*
X0431437Y0207634D02*
Y0212555D01*
X0423563D02*
X0431437D01*
X0423563Y0207634D02*
X0431437D01*
X0472937Y0221239D02*
Y0226161D01*
X0465063Y0221239D02*
Y0226161D01*
Y0221239D02*
X0472937D01*
X0465063Y0226161D02*
X0472937D01*
X0386404Y0303218D02*
X0399396D01*
X0386404Y0292982D02*
X0399396D01*
X0386404D02*
Y0303218D01*
X0399396Y0292982D02*
Y0303218D01*
X0342516Y0340921D02*
X0504484D01*
Y0331079D02*
Y0340921D01*
X0342516Y0331079D02*
X0504484D01*
X0342516D02*
Y0340921D01*
X0367787Y0139749D02*
X0381213D01*
X0367787Y0158371D02*
X0381213D01*
X0367787Y0139749D02*
Y0158371D01*
X0381213Y0139749D02*
Y0158371D01*
X0345039Y0258937D02*
X0349961D01*
Y0251063D02*
Y0258937D01*
X0345039Y0251063D02*
X0349961D01*
X0345039D02*
Y0258937D01*
X0344539Y0219973D02*
X0349461D01*
Y0212099D02*
Y0219973D01*
X0344539Y0212099D02*
X0349461D01*
X0344539D02*
Y0219973D01*
X0480035Y0358039D02*
X048791D01*
X0480035Y0353118D02*
X048791D01*
X0480035D02*
Y0358039D01*
X048791Y0353118D02*
Y0358039D01*
X0479248Y0366127D02*
X0487122D01*
X0479248Y0361206D02*
X0487122D01*
X0479248D02*
Y0366127D01*
X0487122Y0361206D02*
Y0366127D01*
X0431212Y0249639D02*
X0439086D01*
X0431212Y0254561D02*
X0439086D01*
Y0249639D02*
Y0254561D01*
X0431212Y0249639D02*
Y0254561D01*
X0428239Y0169063D02*
Y0176937D01*
X0433161Y0169063D02*
Y0176937D01*
X0428239Y0169063D02*
X0433161D01*
X0428239Y0176937D02*
X0433161D01*
X0397984Y0169063D02*
Y0176937D01*
X0393063Y0169063D02*
Y0176937D01*
X0397984D01*
X0393063Y0169063D02*
X0397984D01*
X0387059Y0194002D02*
X0394933D01*
X0387059Y0198923D02*
X0394933D01*
Y0194002D02*
Y0198923D01*
X0387059Y0194002D02*
Y0198923D01*
X0387846Y0185914D02*
X0395721D01*
X0387846Y0190836D02*
X0395721D01*
Y0185914D02*
Y0190836D01*
X0387846Y0185914D02*
Y0190836D01*
X0369563Y0163053D02*
X0377437D01*
X0369563Y0167974D02*
X0377437D01*
Y0163053D02*
Y0167974D01*
X0369563Y0163053D02*
Y0167974D01*
Y017114D02*
X0377437D01*
X0369563Y0176061D02*
X0377437D01*
Y017114D02*
Y0176061D01*
X0369563Y017114D02*
Y0176061D01*
X0360574Y0272816D02*
X0368448D01*
X0360574Y0277737D02*
X0368448D01*
Y0272816D02*
Y0277737D01*
X0360574Y0272816D02*
Y0277737D01*
X0361361Y0264728D02*
X0369235D01*
X0361361Y0269649D02*
X0369235D01*
Y0264728D02*
Y0269649D01*
X0361361Y0264728D02*
Y0269649D01*
X0360629Y0221978D02*
X0368503D01*
X0360629Y0226899D02*
X0368503D01*
Y0221978D02*
Y0226899D01*
X0360629Y0221978D02*
Y0226899D01*
X0360629Y021389D02*
X0368503D01*
X0360629Y0218812D02*
X0368503D01*
Y021389D02*
Y0218812D01*
X0360629Y021389D02*
Y0218812D01*
X040335Y0319461D02*
X0411224D01*
X040335Y0314539D02*
X0411224D01*
X040335D02*
Y0319461D01*
X0411224Y0314539D02*
Y0319461D01*
X0404137Y0311373D02*
X0412011D01*
X0404137Y0306452D02*
X0412011D01*
X0404137D02*
Y0311373D01*
X0412011Y0306452D02*
Y0311373D01*
X0458438Y0306061D02*
X0466312D01*
X0458438Y0301139D02*
X0466312D01*
X0458438D02*
Y0306061D01*
X0466312Y0301139D02*
Y0306061D01*
X0458438Y0296361D02*
X0466312D01*
X0458438Y0291439D02*
X0466312D01*
X0458438D02*
Y0296361D01*
X0466312Y0291439D02*
Y0296361D01*
X0465876Y0257945D02*
Y0265819D01*
X0460955Y0257945D02*
Y0265819D01*
X0465876D01*
X0460955Y0257945D02*
X0465876D01*
X0457788Y0257917D02*
Y0265792D01*
X0452867Y0257917D02*
Y0265792D01*
X0457788D01*
X0452867Y0257917D02*
X0457788D01*
X039503Y0266204D02*
Y0274078D01*
X0399951Y0266204D02*
Y0274078D01*
X039503Y0266204D02*
X0399951D01*
X039503Y0274078D02*
X0399951D01*
X0386942Y0266204D02*
Y0274078D01*
X0391863Y0266204D02*
Y0274078D01*
X0386942Y0266204D02*
X0391863D01*
X0386942Y0274078D02*
X0391863D01*
X0344039Y0286961D02*
Y0294835D01*
X0348961Y0286961D02*
Y0294835D01*
X0344039Y0286961D02*
X0348961D01*
X0344039Y0294835D02*
X0348961D01*
X0378113Y0294557D02*
Y0302431D01*
X0383035Y0294557D02*
Y0302431D01*
X0378113Y0294557D02*
X0383035D01*
X0378113Y0302431D02*
X0383035D01*
X0389554Y0306384D02*
X0397428D01*
X0389554Y0311306D02*
X0397428D01*
Y0306384D02*
Y0311306D01*
X0389554Y0306384D02*
Y0311306D01*
D16*
X0417102Y0226769D02*
Y024608D01*
X0432456Y0226769D02*
Y024608D01*
X0417102D02*
X0432456D01*
X0417102Y0226769D02*
X0432456D01*
X0403354Y0160323D02*
Y0175677D01*
X0422646Y0160323D02*
Y0175677D01*
X0403354Y0160323D02*
X0422646D01*
X0403354Y0175677D02*
X0422646D01*
M02*
