G04*
G04 #@! TF.GenerationSoftware,Altium Limited,Altium Designer,21.9.2 (33)*
G04*
G04 Layer_Color=255*
%FSTAX25Y25*%
%MOIN*%
G70*
G04*
G04 #@! TF.SameCoordinates,0F4E3B0E-42B1-4E8D-80DC-DAFE1E1038FA*
G04*
G04*
G04 #@! TF.FilePolarity,Positive*
G04*
G01*
G75*
%ADD66O,0.07500X0.06500*%
%ADD67C,0.13800*%
%ADD68C,0.06299*%
%ADD69R,0.06299X0.06299*%
%ADD70C,0.00787*%
%ADD71C,0.08000*%
%ADD72O,0.06299X0.07874*%
%ADD73R,0.06299X0.07874*%
%ADD74O,0.07874X0.06299*%
%ADD75R,0.07874X0.06299*%
%ADD76R,0.07874X0.09843*%
%ADD77C,0.05984*%
%ADD78R,0.05984X0.05984*%
D66*
X04805Y02884D02*
D03*
Y02985D02*
D03*
Y03083D02*
D03*
Y03184D02*
D03*
D67*
X0499801Y0367D02*
D03*
X0346D02*
D03*
X0499801Y01205D02*
D03*
X0346D02*
D03*
D68*
X0494712Y0199753D02*
D03*
X0444712D02*
D03*
X0445Y01605D02*
D03*
D69*
X0495D02*
D03*
D70*
X0372038Y0254377D02*
D03*
Y0256345D02*
D03*
Y0258314D02*
D03*
Y0260282D02*
D03*
Y0256345D02*
D03*
Y0258314D02*
D03*
Y0260282D02*
D03*
X037007Y0254377D02*
D03*
Y0256345D02*
D03*
Y0258314D02*
D03*
Y0260282D02*
D03*
X0368101Y0254377D02*
D03*
Y0256345D02*
D03*
Y0258314D02*
D03*
Y0260282D02*
D03*
X0366133Y0254377D02*
D03*
Y0256345D02*
D03*
Y0258314D02*
D03*
Y0260282D02*
D03*
X0371538Y0203539D02*
D03*
Y0205507D02*
D03*
Y0207476D02*
D03*
Y0209444D02*
D03*
Y0205507D02*
D03*
Y0207476D02*
D03*
Y0209444D02*
D03*
X036957Y0203539D02*
D03*
Y0205507D02*
D03*
Y0207476D02*
D03*
Y0209444D02*
D03*
X0367601Y0203539D02*
D03*
Y0205507D02*
D03*
Y0207476D02*
D03*
Y0209444D02*
D03*
X0365633Y0203539D02*
D03*
Y0205507D02*
D03*
Y0207476D02*
D03*
Y0209444D02*
D03*
D71*
X03974Y0233924D02*
D03*
Y0222923D02*
D03*
D72*
X0371Y0359D02*
D03*
X0381D02*
D03*
D73*
X0391D02*
D03*
D74*
X04857Y02621D02*
D03*
Y02521D02*
D03*
D75*
Y02421D02*
D03*
D76*
X0481Y01195D02*
D03*
X0461D02*
D03*
X043325D02*
D03*
X041325D02*
D03*
X03855D02*
D03*
X03655D02*
D03*
D77*
X04985Y0336D02*
D03*
X04885D02*
D03*
X04785D02*
D03*
X04685D02*
D03*
X04485D02*
D03*
X04285D02*
D03*
X04185D02*
D03*
X03985D02*
D03*
X03885D02*
D03*
X03785D02*
D03*
X03585D02*
D03*
X03685D02*
D03*
X04085D02*
D03*
X04385D02*
D03*
X04585D02*
D03*
D78*
X03485D02*
D03*
M02*
