G04*
G04 #@! TF.GenerationSoftware,Altium Limited,Altium Designer,21.9.2 (33)*
G04*
G04 Layer_Color=32768*
%FSTAX25Y25*%
%MOIN*%
G70*
G04*
G04 #@! TF.SameCoordinates,0F4E3B0E-42B1-4E8D-80DC-DAFE1E1038FA*
G04*
G04*
G04 #@! TF.FilePolarity,Positive*
G04*
G01*
G75*
%ADD13C,0.00394*%
%ADD80C,0.00197*%
D13*
X04295Y0281031D02*
Y0284968D01*
X0427531Y0283D02*
X0431468D01*
X0369038Y0243845D02*
Y0247782D01*
X036707Y0245814D02*
X0371007D01*
X0368538Y0193007D02*
Y0196944D01*
X036657Y0194976D02*
X0370507D01*
X03929Y0296131D02*
Y0300068D01*
X0390932Y02981D02*
X0394869D01*
X03745Y0147091D02*
Y0151028D01*
X0372532Y0149059D02*
X0376468D01*
D80*
X0409027Y0262528D02*
X0449972D01*
X0409027Y0303472D02*
X0449972D01*
Y0262528D02*
Y0303472D01*
X0409027Y0262528D02*
Y0303472D01*
X0354865Y0229081D02*
X0383212D01*
X0354865Y0262546D02*
X0383212D01*
X0354865Y0229081D02*
Y0262546D01*
X0383212Y0229081D02*
Y0262546D01*
X0354365Y0178244D02*
X0382712D01*
X0354365Y0211708D02*
X0382712D01*
X0354365Y0178244D02*
Y0211708D01*
X0382712Y0178244D02*
Y0211708D01*
X0393921Y0240506D02*
Y0247395D01*
Y0240506D02*
X0408094D01*
Y0247395D01*
X0393921D02*
X0408094D01*
X0401008Y0241982D02*
Y0245919D01*
X0399039Y0243951D02*
X0402976D01*
X0420413Y0206649D02*
Y0213539D01*
Y0206649D02*
X0434587D01*
Y0213539D01*
X0420413D02*
X0434587D01*
X04275Y0208126D02*
Y0212063D01*
X0425531Y0210094D02*
X0429468D01*
X0462701Y0220255D02*
X0475299D01*
X0462701D02*
Y0227145D01*
X0475299D01*
Y0220255D02*
Y0227145D01*
X0467031Y02237D02*
X0470968D01*
X0469Y0221731D02*
Y0225669D01*
X0410192Y0225784D02*
Y0247064D01*
X0439365Y0225784D02*
Y0247064D01*
X0410192D02*
X0439365D01*
X0410192Y0225784D02*
X0439365D01*
X038542Y0304202D02*
X0400381D01*
X038542Y0291998D02*
X0400381D01*
X038542D02*
Y0304202D01*
X0400381Y0291998D02*
Y0304202D01*
X0402173Y0153394D02*
Y0182606D01*
X0423827Y0153394D02*
Y0182606D01*
X0402173Y0153394D02*
X0423827D01*
X0402173Y0182606D02*
X0423827D01*
X0341236Y0342102D02*
X0505764D01*
Y0329898D02*
Y0342102D01*
X0341236Y0329898D02*
X0505764D01*
X0341236D02*
Y0342102D01*
X0421531Y0336D02*
X0425468D01*
X04235Y0334032D02*
Y0337968D01*
X0366626Y0137249D02*
X0382374D01*
X0366626Y0160871D02*
X0382374D01*
X0366626Y0137249D02*
Y0160871D01*
X0382374Y0137249D02*
Y0160871D01*
X03475Y0253031D02*
Y0256968D01*
X0345532Y0255D02*
X0349468D01*
X0344055Y0247913D02*
Y0262087D01*
X0350945D01*
Y0247913D02*
Y0262087D01*
X0344055Y0247913D02*
X0350945D01*
X0347Y0214068D02*
Y0218004D01*
X0345031Y0216036D02*
X0348969D01*
X0343555Y0208949D02*
Y0223123D01*
X0350445D01*
Y0208949D02*
Y0223123D01*
X0343555Y0208949D02*
X0350445D01*
X0352143Y0138006D02*
X0365135D01*
X0352143Y0165565D02*
X0365135D01*
X0352143Y0138006D02*
Y0165565D01*
X0365135Y0138006D02*
Y0165565D01*
X0358639Y0149817D02*
Y0153754D01*
X035667Y0151786D02*
X0360607D01*
X0482004Y0355578D02*
X0485941D01*
X0483972Y035361D02*
Y0357547D01*
X0476886Y0352134D02*
X0491059D01*
X0476886D02*
Y0359023D01*
X0491059D01*
Y0352134D02*
Y0359023D01*
X0483185Y0361698D02*
Y0365635D01*
X0481216Y0363666D02*
X0485153D01*
X0489484Y0360221D02*
Y0367111D01*
X0476886D02*
X0489484D01*
X0476886Y0360221D02*
Y0367111D01*
Y0360221D02*
X0489484D01*
X0435149Y0250132D02*
Y0254068D01*
X043318Y02521D02*
X0437117D01*
X0428849Y0248655D02*
Y0255545D01*
Y0248655D02*
X0441448D01*
Y0255545D01*
X0428849D02*
X0441448D01*
X04307Y0171031D02*
Y0174969D01*
X0428731Y0173D02*
X0432668D01*
X0434145Y0165913D02*
Y0180087D01*
X0427255Y0165913D02*
X0434145D01*
X0427255D02*
Y0180087D01*
X0434145D01*
X0395524Y0171031D02*
Y0174969D01*
X0393555Y0173D02*
X0397492D01*
X0392079Y0165913D02*
Y0180087D01*
X0398969D01*
Y0165913D02*
Y0180087D01*
X0392079Y0165913D02*
X0398969D01*
X0389028Y0196463D02*
X0392965D01*
X0390996Y0194494D02*
Y0198431D01*
X0383909Y0199908D02*
X0398083D01*
Y0193018D02*
Y0199908D01*
X0383909Y0193018D02*
X0398083D01*
X0383909D02*
Y0199908D01*
X0391783Y0186407D02*
Y0190343D01*
X0389815Y0188375D02*
X0393752D01*
X0385484Y018493D02*
Y019182D01*
Y018493D02*
X0398083D01*
Y019182D01*
X0385484D02*
X0398083D01*
X0371532Y0165513D02*
X0375468D01*
X03735Y0163545D02*
Y0167482D01*
X0366413Y0168958D02*
X0380587D01*
Y0162068D02*
Y0168958D01*
X0366413Y0162068D02*
X0380587D01*
X0366413D02*
Y0168958D01*
X03735Y0171632D02*
Y0175569D01*
X0371532Y0173601D02*
X0375468D01*
X0367201Y0170156D02*
Y0177046D01*
Y0170156D02*
X0379799D01*
Y0177046D01*
X0367201D02*
X0379799D01*
X0362542Y0275276D02*
X0366479D01*
X0364511Y0273308D02*
Y0277245D01*
X0357424Y0278721D02*
X0371597D01*
Y0271831D02*
Y0278721D01*
X0357424Y0271831D02*
X0371597D01*
X0357424D02*
Y0278721D01*
X0365298Y026522D02*
Y0269157D01*
X036333Y0267189D02*
X0367267D01*
X0358999Y0263744D02*
Y0270634D01*
Y0263744D02*
X0371597D01*
Y0270634D01*
X0358999D02*
X0371597D01*
X0362597Y0224439D02*
X0366534D01*
X0364566Y022247D02*
Y0226407D01*
X0357479Y0227883D02*
X0371653D01*
Y0220994D02*
Y0227883D01*
X0357479Y0220994D02*
X0371653D01*
X0357479D02*
Y0227883D01*
X0364566Y0214382D02*
Y0218319D01*
X0362597Y0216351D02*
X0366534D01*
X0358267Y0212906D02*
Y0219796D01*
Y0212906D02*
X0370865D01*
Y0219796D01*
X0358267D02*
X0370865D01*
X0407287Y0315032D02*
Y0318969D01*
X0405318Y0317D02*
X0409256D01*
X0413586Y0313555D02*
Y0320445D01*
X0400988D02*
X0413586D01*
X0400988Y0313555D02*
Y0320445D01*
Y0313555D02*
X0413586D01*
X0406106Y0308912D02*
X0410043D01*
X0408074Y0306944D02*
Y0310881D01*
X0400988Y0305468D02*
X0415161D01*
X0400988D02*
Y0312357D01*
X0415161D01*
Y0305468D02*
Y0312357D01*
X0460406Y03036D02*
X0464344D01*
X0462375Y0301631D02*
Y0305569D01*
X0455288Y0300155D02*
X0469462D01*
X0455288D02*
Y0307045D01*
X0469462D01*
Y0300155D02*
Y0307045D01*
X0460406Y02939D02*
X0464344D01*
X0462375Y0291932D02*
Y0295868D01*
X0455288Y0290455D02*
X0469462D01*
X0455288D02*
Y0297345D01*
X0469462D01*
Y0290455D02*
Y0297345D01*
X0463415Y0259913D02*
Y026385D01*
X0461447Y0261882D02*
X0465384D01*
X045997Y0254795D02*
Y0268969D01*
X046686D01*
Y0254795D02*
Y0268969D01*
X045997Y0254795D02*
X046686D01*
X0455328Y0259886D02*
Y0263823D01*
X0453359Y0261855D02*
X0457296D01*
X0451883Y0254768D02*
Y0268941D01*
X0458773D01*
Y0254768D02*
Y0268941D01*
X0451883Y0254768D02*
X0458773D01*
X0395522Y0270141D02*
X0399459D01*
X039749Y0268173D02*
Y027211D01*
X0394045Y0276441D02*
X0400935D01*
X0394045Y0263842D02*
Y0276441D01*
Y0263842D02*
X0400935D01*
Y0276441D01*
X0387434Y0270141D02*
X0391371D01*
X0389403Y0268173D02*
Y027211D01*
X0385958Y0276441D02*
X0392848D01*
X0385958Y0263842D02*
Y0276441D01*
Y0263842D02*
X0392848D01*
Y0276441D01*
X03465Y0288929D02*
Y0292866D01*
X0344531Y0290898D02*
X0348468D01*
X0349945Y0283811D02*
Y0297984D01*
X0343055Y0283811D02*
X0349945D01*
X0343055D02*
Y0297984D01*
X0349945D01*
X0378606Y0298494D02*
X0382542D01*
X0380574Y0296525D02*
Y0300462D01*
X0377129Y0304793D02*
X0384019D01*
X0377129Y0292195D02*
Y0304793D01*
Y0292195D02*
X0384019D01*
Y0304793D01*
X0393491Y0306877D02*
Y0310814D01*
X0391522Y0308845D02*
X0395459D01*
X0387192Y03054D02*
Y031229D01*
Y03054D02*
X039979D01*
Y031229D01*
X0387192D02*
X039979D01*
M02*
